G04 #@! TF.FileFunction,Copper,L2,Bot,Signal*
%FSLAX46Y46*%
G04 Gerber Fmt 4.6, Leading zero omitted, Abs format (unit mm)*
G04 Created by KiCad (PCBNEW (2016-05-30 BZR 6864, Git 09dc517)-product) date 06/20/16 14:34:37*
%MOMM*%
%LPD*%
G01*
G04 APERTURE LIST*
%ADD10C,0.100000*%
%ADD11R,4.200000X3.200000*%
%ADD12R,1.727200X2.032000*%
%ADD13O,1.727200X2.032000*%
%ADD14R,2.032000X2.032000*%
%ADD15O,2.032000X2.032000*%
%ADD16R,1.727200X1.727200*%
%ADD17O,1.727200X1.727200*%
%ADD18C,1.700000*%
%ADD19R,2.032000X1.727200*%
%ADD20O,2.032000X1.727200*%
%ADD21C,0.452400*%
%ADD22C,0.203200*%
%ADD23C,0.508000*%
%ADD24C,0.152400*%
%ADD25C,0.025400*%
G04 APERTURE END LIST*
D10*
D11*
X63500000Y-88310000D03*
X63500000Y-59010000D03*
D12*
X71120000Y-50800000D03*
D13*
X68580000Y-50800000D03*
X66040000Y-50800000D03*
X63500000Y-50800000D03*
D14*
X61976000Y-15367000D03*
D15*
X59436000Y-15367000D03*
D16*
X19050000Y-64770000D03*
D17*
X16510000Y-64770000D03*
X19050000Y-62230000D03*
X16510000Y-62230000D03*
X19050000Y-59690000D03*
X16510000Y-59690000D03*
X19050000Y-57150000D03*
X16510000Y-57150000D03*
X19050000Y-54610000D03*
X16510000Y-54610000D03*
X19050000Y-52070000D03*
X16510000Y-52070000D03*
X19050000Y-49530000D03*
X16510000Y-49530000D03*
X19050000Y-46990000D03*
X16510000Y-46990000D03*
X19050000Y-44450000D03*
X16510000Y-44450000D03*
X19050000Y-41910000D03*
X16510000Y-41910000D03*
X19050000Y-39370000D03*
X16510000Y-39370000D03*
X19050000Y-36830000D03*
X16510000Y-36830000D03*
X19050000Y-34290000D03*
X16510000Y-34290000D03*
X19050000Y-31750000D03*
X16510000Y-31750000D03*
X19050000Y-29210000D03*
X16510000Y-29210000D03*
X19050000Y-26670000D03*
X16510000Y-26670000D03*
X19050000Y-24130000D03*
X16510000Y-24130000D03*
X19050000Y-21590000D03*
X16510000Y-21590000D03*
X19050000Y-19050000D03*
X16510000Y-19050000D03*
X19050000Y-16510000D03*
X16510000Y-16510000D03*
D18*
X76454000Y-25034000D03*
X76454000Y-18034000D03*
D19*
X81280000Y-68580000D03*
D20*
X81280000Y-71120000D03*
X81280000Y-73660000D03*
X81280000Y-76200000D03*
X81280000Y-78740000D03*
D19*
X76200000Y-40005000D03*
D20*
X76200000Y-42545000D03*
X76200000Y-45085000D03*
D19*
X42672000Y-64770000D03*
D20*
X42672000Y-62230000D03*
X42672000Y-59690000D03*
X42672000Y-57150000D03*
D21*
X69850000Y-60960000D03*
X80010000Y-59690000D03*
X54610000Y-59690000D03*
X54610000Y-87630000D03*
X80010000Y-87630000D03*
X66294000Y-88265000D03*
X66421000Y-73279000D03*
X66167000Y-59055000D03*
X33020000Y-64770000D03*
X26670000Y-64770000D03*
X46990000Y-58420000D03*
X38100000Y-58420000D03*
X38100000Y-63500000D03*
X26670000Y-15240000D03*
X35560000Y-15240000D03*
X45720000Y-15240000D03*
X40386000Y-48768000D03*
X40386000Y-48133000D03*
X40386000Y-47498000D03*
X42037000Y-52451000D03*
X34417000Y-29083000D03*
X41910000Y-20193000D03*
X35814000Y-18796000D03*
X71120000Y-38100000D03*
X73660000Y-34290000D03*
X64770000Y-26670000D03*
X64770000Y-31750000D03*
X69977000Y-22860000D03*
X71120000Y-33147000D03*
X64389000Y-17653000D03*
X57023000Y-17653000D03*
X56896000Y-27051000D03*
X81407000Y-27686000D03*
X59690000Y-21336000D03*
X61722000Y-21336000D03*
X79629000Y-34544000D03*
X33655000Y-44196000D03*
X31242000Y-27813000D03*
X31242000Y-25654000D03*
X31242000Y-23495000D03*
X31242000Y-21336000D03*
X31242000Y-19177000D03*
X38100000Y-47625000D03*
X38100000Y-45466000D03*
X36068000Y-48387000D03*
X34671000Y-46990000D03*
X29337000Y-41529000D03*
X29210000Y-30480000D03*
X30480000Y-30480000D03*
X30480000Y-42672000D03*
X29845000Y-30480000D03*
X29845000Y-41021000D03*
X31115000Y-30480000D03*
X31115000Y-42164000D03*
X76581000Y-72898000D03*
X76581000Y-68580000D03*
D22*
X81280000Y-78740000D02*
X81280000Y-86360000D01*
X54610000Y-87630000D02*
X54610000Y-59690000D01*
X81280000Y-86360000D02*
X80010000Y-87630000D01*
D23*
X63500000Y-88310000D02*
X66249000Y-88310000D01*
X66249000Y-88310000D02*
X66294000Y-88265000D01*
X66122000Y-59010000D02*
X66167000Y-59055000D01*
X63500000Y-59010000D02*
X66122000Y-59010000D01*
D22*
X33020000Y-64770000D02*
X36830000Y-64770000D01*
X19050000Y-64770000D02*
X26670000Y-64770000D01*
X38100000Y-58420000D02*
X46990000Y-58420000D01*
X36830000Y-64770000D02*
X38100000Y-63500000D01*
X45720000Y-15240000D02*
X35560000Y-15240000D01*
X25400000Y-16510000D02*
X26670000Y-15240000D01*
X25400000Y-16510000D02*
X19050000Y-16510000D01*
X71120000Y-38100000D02*
X66040000Y-38100000D01*
X63500000Y-45720000D02*
X71120000Y-38100000D01*
X63500000Y-50800000D02*
X63500000Y-45720000D01*
X64770000Y-36830000D02*
X64770000Y-31750000D01*
X66040000Y-38100000D02*
X64770000Y-36830000D01*
D23*
X61341000Y-26162000D02*
X66421000Y-31242000D01*
X66421000Y-31242000D02*
X66421000Y-35814000D01*
X79629000Y-34544000D02*
X80518000Y-34544000D01*
X79248000Y-50800000D02*
X71120000Y-50800000D01*
X79248000Y-50800000D02*
X82550000Y-47498000D01*
X82550000Y-36576000D02*
X82550000Y-47498000D01*
X80518000Y-34544000D02*
X82550000Y-36576000D01*
X67183000Y-36576000D02*
X76962000Y-36576000D01*
X61722000Y-22352000D02*
X61341000Y-22733000D01*
X61341000Y-22733000D02*
X61341000Y-26162000D01*
X66421000Y-35814000D02*
X67183000Y-36576000D01*
X61722000Y-21336000D02*
X61722000Y-22352000D01*
X78994000Y-34544000D02*
X79629000Y-34544000D01*
X76962000Y-36576000D02*
X78994000Y-34544000D01*
D22*
X66040000Y-50800000D02*
X66040000Y-45974000D01*
X66929000Y-45085000D02*
X76200000Y-45085000D01*
X66040000Y-45974000D02*
X66929000Y-45085000D01*
D23*
X33655000Y-54864000D02*
X33655000Y-44196000D01*
X31242000Y-25654000D02*
X31242000Y-27813000D01*
X31242000Y-23495000D02*
X31242000Y-25654000D01*
X31242000Y-21336000D02*
X31242000Y-23495000D01*
X33655000Y-54864000D02*
X45720000Y-54864000D01*
X31242000Y-17907000D02*
X31242000Y-19177000D01*
X32004000Y-17145000D02*
X31242000Y-17907000D01*
X44577000Y-17145000D02*
X32004000Y-17145000D01*
X47371000Y-19939000D02*
X44577000Y-17145000D01*
X47371000Y-53213000D02*
X47371000Y-19939000D01*
X45720000Y-54864000D02*
X47371000Y-53213000D01*
X31242000Y-19177000D02*
X31242000Y-21336000D01*
X19050000Y-59690000D02*
X32512000Y-59690000D01*
X33655000Y-58547000D02*
X33655000Y-54864000D01*
X32512000Y-59690000D02*
X33655000Y-58547000D01*
D22*
X38100000Y-45466000D02*
X38100000Y-47625000D01*
X34671000Y-46990000D02*
X36068000Y-48387000D01*
D24*
X29337000Y-41529000D02*
X29210000Y-41402000D01*
D22*
X29210000Y-41402000D02*
X29210000Y-30480000D01*
X30480000Y-42672000D02*
X30480000Y-30480000D01*
X29845000Y-41021000D02*
X29845000Y-30480000D01*
X31115000Y-42164000D02*
X31115000Y-30480000D01*
X76581000Y-68580000D02*
X76581000Y-72898000D01*
D25*
G36*
X83604900Y-91224900D02*
X51015100Y-91224900D01*
X51015100Y-88681475D01*
X60879300Y-88681475D01*
X60879300Y-90013574D01*
X60958572Y-90204953D01*
X61105047Y-90351428D01*
X61296427Y-90430700D01*
X63128525Y-90430700D01*
X63258700Y-90300525D01*
X63258700Y-88551300D01*
X63741300Y-88551300D01*
X63741300Y-90300525D01*
X63871475Y-90430700D01*
X65703573Y-90430700D01*
X65894953Y-90351428D01*
X66041428Y-90204953D01*
X66120700Y-90013574D01*
X66120700Y-88681475D01*
X65990525Y-88551300D01*
X63741300Y-88551300D01*
X63258700Y-88551300D01*
X61009475Y-88551300D01*
X60879300Y-88681475D01*
X51015100Y-88681475D01*
X51015100Y-86606426D01*
X60879300Y-86606426D01*
X60879300Y-87938525D01*
X61009475Y-88068700D01*
X63258700Y-88068700D01*
X63258700Y-86319475D01*
X63741300Y-86319475D01*
X63741300Y-88068700D01*
X65990525Y-88068700D01*
X66120700Y-87938525D01*
X66120700Y-86606426D01*
X66041428Y-86415047D01*
X65894953Y-86268572D01*
X65703573Y-86189300D01*
X63871475Y-86189300D01*
X63741300Y-86319475D01*
X63258700Y-86319475D01*
X63128525Y-86189300D01*
X61296427Y-86189300D01*
X61105047Y-86268572D01*
X60958572Y-86415047D01*
X60879300Y-86606426D01*
X51015100Y-86606426D01*
X51015100Y-79191566D01*
X79819023Y-79191566D01*
X79961704Y-79477187D01*
X80332562Y-79867241D01*
X80824457Y-80085683D01*
X81038700Y-79986362D01*
X81038700Y-78981300D01*
X81521300Y-78981300D01*
X81521300Y-79986362D01*
X81735543Y-80085683D01*
X82227438Y-79867241D01*
X82598296Y-79477187D01*
X82740977Y-79191566D01*
X82663092Y-78981300D01*
X81521300Y-78981300D01*
X81038700Y-78981300D01*
X79896908Y-78981300D01*
X79819023Y-79191566D01*
X51015100Y-79191566D01*
X51015100Y-78288434D01*
X79819023Y-78288434D01*
X79896908Y-78498700D01*
X81038700Y-78498700D01*
X81038700Y-77493638D01*
X81521300Y-77493638D01*
X81521300Y-78498700D01*
X82663092Y-78498700D01*
X82740977Y-78288434D01*
X82598296Y-78002813D01*
X82227438Y-77612759D01*
X81735543Y-77394317D01*
X81521300Y-77493638D01*
X81038700Y-77493638D01*
X80824457Y-77394317D01*
X80332562Y-77612759D01*
X79961704Y-78002813D01*
X79819023Y-78288434D01*
X51015100Y-78288434D01*
X51015100Y-76200000D01*
X80075761Y-76200000D01*
X80154066Y-76593666D01*
X80377060Y-76927401D01*
X80710795Y-77150395D01*
X81104461Y-77228700D01*
X81455539Y-77228700D01*
X81849205Y-77150395D01*
X82182940Y-76927401D01*
X82405934Y-76593666D01*
X82484239Y-76200000D01*
X82405934Y-75806334D01*
X82182940Y-75472599D01*
X81849205Y-75249605D01*
X81455539Y-75171300D01*
X81104461Y-75171300D01*
X80710795Y-75249605D01*
X80377060Y-75472599D01*
X80154066Y-75806334D01*
X80075761Y-76200000D01*
X51015100Y-76200000D01*
X51015100Y-73660000D01*
X80075761Y-73660000D01*
X80154066Y-74053666D01*
X80377060Y-74387401D01*
X80710795Y-74610395D01*
X81104461Y-74688700D01*
X81455539Y-74688700D01*
X81849205Y-74610395D01*
X82182940Y-74387401D01*
X82405934Y-74053666D01*
X82484239Y-73660000D01*
X82405934Y-73266334D01*
X82182940Y-72932599D01*
X81849205Y-72709605D01*
X81455539Y-72631300D01*
X81104461Y-72631300D01*
X80710795Y-72709605D01*
X80377060Y-72932599D01*
X80154066Y-73266334D01*
X80075761Y-73660000D01*
X51015100Y-73660000D01*
X51015100Y-68657493D01*
X76189632Y-68657493D01*
X76249079Y-68801364D01*
X76314300Y-68866699D01*
X76314300Y-72611336D01*
X76249465Y-72676057D01*
X76189768Y-72819824D01*
X76189632Y-72975493D01*
X76249079Y-73119364D01*
X76359057Y-73229535D01*
X76502824Y-73289232D01*
X76658493Y-73289368D01*
X76802364Y-73229921D01*
X76912535Y-73119943D01*
X76972232Y-72976176D01*
X76972368Y-72820507D01*
X76912921Y-72676636D01*
X76847700Y-72611301D01*
X76847700Y-71120000D01*
X80075761Y-71120000D01*
X80154066Y-71513666D01*
X80377060Y-71847401D01*
X80710795Y-72070395D01*
X81104461Y-72148700D01*
X81455539Y-72148700D01*
X81849205Y-72070395D01*
X82182940Y-71847401D01*
X82405934Y-71513666D01*
X82484239Y-71120000D01*
X82405934Y-70726334D01*
X82182940Y-70392599D01*
X81849205Y-70169605D01*
X81455539Y-70091300D01*
X81104461Y-70091300D01*
X80710795Y-70169605D01*
X80377060Y-70392599D01*
X80154066Y-70726334D01*
X80075761Y-71120000D01*
X76847700Y-71120000D01*
X76847700Y-68866664D01*
X76912535Y-68801943D01*
X76972232Y-68658176D01*
X76972368Y-68502507D01*
X76912921Y-68358636D01*
X76802943Y-68248465D01*
X76659176Y-68188768D01*
X76503507Y-68188632D01*
X76359636Y-68248079D01*
X76249465Y-68358057D01*
X76189768Y-68501824D01*
X76189632Y-68657493D01*
X51015100Y-68657493D01*
X51015100Y-68580000D01*
X51010967Y-68559221D01*
X51010967Y-68538036D01*
X50914294Y-68052028D01*
X50882176Y-67974489D01*
X50812700Y-67870511D01*
X50812700Y-67716400D01*
X80095666Y-67716400D01*
X80095666Y-69443600D01*
X80108480Y-69508019D01*
X80144970Y-69562630D01*
X80199581Y-69599120D01*
X80264000Y-69611934D01*
X82296000Y-69611934D01*
X82360419Y-69599120D01*
X82415030Y-69562630D01*
X82451520Y-69508019D01*
X82464334Y-69443600D01*
X82464334Y-67716400D01*
X82451520Y-67651981D01*
X82415030Y-67597370D01*
X82360419Y-67560880D01*
X82296000Y-67548066D01*
X80264000Y-67548066D01*
X80199581Y-67560880D01*
X80144970Y-67597370D01*
X80108480Y-67651981D01*
X80095666Y-67716400D01*
X50812700Y-67716400D01*
X50812700Y-57410000D01*
X61231666Y-57410000D01*
X61231666Y-60610000D01*
X61244480Y-60674419D01*
X61280970Y-60729030D01*
X61335581Y-60765520D01*
X61400000Y-60778334D01*
X65600000Y-60778334D01*
X65664419Y-60765520D01*
X65719030Y-60729030D01*
X65755520Y-60674419D01*
X65768334Y-60610000D01*
X65768334Y-59429100D01*
X65987014Y-59429100D01*
X66006618Y-59442199D01*
X66167000Y-59474100D01*
X66327383Y-59442199D01*
X66463349Y-59351349D01*
X66554199Y-59215383D01*
X66586100Y-59055000D01*
X66554199Y-58894618D01*
X66463349Y-58758652D01*
X66418348Y-58713652D01*
X66343692Y-58663768D01*
X66282383Y-58622802D01*
X66122000Y-58590900D01*
X65768334Y-58590900D01*
X65768334Y-57410000D01*
X65755520Y-57345581D01*
X65719030Y-57290970D01*
X65664419Y-57254480D01*
X65600000Y-57241666D01*
X61400000Y-57241666D01*
X61335581Y-57254480D01*
X61280970Y-57290970D01*
X61244480Y-57345581D01*
X61231666Y-57410000D01*
X50812700Y-57410000D01*
X50812700Y-55892700D01*
X83604900Y-55892700D01*
X83604900Y-91224900D01*
X83604900Y-91224900D01*
G37*
X83604900Y-91224900D02*
X51015100Y-91224900D01*
X51015100Y-88681475D01*
X60879300Y-88681475D01*
X60879300Y-90013574D01*
X60958572Y-90204953D01*
X61105047Y-90351428D01*
X61296427Y-90430700D01*
X63128525Y-90430700D01*
X63258700Y-90300525D01*
X63258700Y-88551300D01*
X63741300Y-88551300D01*
X63741300Y-90300525D01*
X63871475Y-90430700D01*
X65703573Y-90430700D01*
X65894953Y-90351428D01*
X66041428Y-90204953D01*
X66120700Y-90013574D01*
X66120700Y-88681475D01*
X65990525Y-88551300D01*
X63741300Y-88551300D01*
X63258700Y-88551300D01*
X61009475Y-88551300D01*
X60879300Y-88681475D01*
X51015100Y-88681475D01*
X51015100Y-86606426D01*
X60879300Y-86606426D01*
X60879300Y-87938525D01*
X61009475Y-88068700D01*
X63258700Y-88068700D01*
X63258700Y-86319475D01*
X63741300Y-86319475D01*
X63741300Y-88068700D01*
X65990525Y-88068700D01*
X66120700Y-87938525D01*
X66120700Y-86606426D01*
X66041428Y-86415047D01*
X65894953Y-86268572D01*
X65703573Y-86189300D01*
X63871475Y-86189300D01*
X63741300Y-86319475D01*
X63258700Y-86319475D01*
X63128525Y-86189300D01*
X61296427Y-86189300D01*
X61105047Y-86268572D01*
X60958572Y-86415047D01*
X60879300Y-86606426D01*
X51015100Y-86606426D01*
X51015100Y-79191566D01*
X79819023Y-79191566D01*
X79961704Y-79477187D01*
X80332562Y-79867241D01*
X80824457Y-80085683D01*
X81038700Y-79986362D01*
X81038700Y-78981300D01*
X81521300Y-78981300D01*
X81521300Y-79986362D01*
X81735543Y-80085683D01*
X82227438Y-79867241D01*
X82598296Y-79477187D01*
X82740977Y-79191566D01*
X82663092Y-78981300D01*
X81521300Y-78981300D01*
X81038700Y-78981300D01*
X79896908Y-78981300D01*
X79819023Y-79191566D01*
X51015100Y-79191566D01*
X51015100Y-78288434D01*
X79819023Y-78288434D01*
X79896908Y-78498700D01*
X81038700Y-78498700D01*
X81038700Y-77493638D01*
X81521300Y-77493638D01*
X81521300Y-78498700D01*
X82663092Y-78498700D01*
X82740977Y-78288434D01*
X82598296Y-78002813D01*
X82227438Y-77612759D01*
X81735543Y-77394317D01*
X81521300Y-77493638D01*
X81038700Y-77493638D01*
X80824457Y-77394317D01*
X80332562Y-77612759D01*
X79961704Y-78002813D01*
X79819023Y-78288434D01*
X51015100Y-78288434D01*
X51015100Y-76200000D01*
X80075761Y-76200000D01*
X80154066Y-76593666D01*
X80377060Y-76927401D01*
X80710795Y-77150395D01*
X81104461Y-77228700D01*
X81455539Y-77228700D01*
X81849205Y-77150395D01*
X82182940Y-76927401D01*
X82405934Y-76593666D01*
X82484239Y-76200000D01*
X82405934Y-75806334D01*
X82182940Y-75472599D01*
X81849205Y-75249605D01*
X81455539Y-75171300D01*
X81104461Y-75171300D01*
X80710795Y-75249605D01*
X80377060Y-75472599D01*
X80154066Y-75806334D01*
X80075761Y-76200000D01*
X51015100Y-76200000D01*
X51015100Y-73660000D01*
X80075761Y-73660000D01*
X80154066Y-74053666D01*
X80377060Y-74387401D01*
X80710795Y-74610395D01*
X81104461Y-74688700D01*
X81455539Y-74688700D01*
X81849205Y-74610395D01*
X82182940Y-74387401D01*
X82405934Y-74053666D01*
X82484239Y-73660000D01*
X82405934Y-73266334D01*
X82182940Y-72932599D01*
X81849205Y-72709605D01*
X81455539Y-72631300D01*
X81104461Y-72631300D01*
X80710795Y-72709605D01*
X80377060Y-72932599D01*
X80154066Y-73266334D01*
X80075761Y-73660000D01*
X51015100Y-73660000D01*
X51015100Y-68657493D01*
X76189632Y-68657493D01*
X76249079Y-68801364D01*
X76314300Y-68866699D01*
X76314300Y-72611336D01*
X76249465Y-72676057D01*
X76189768Y-72819824D01*
X76189632Y-72975493D01*
X76249079Y-73119364D01*
X76359057Y-73229535D01*
X76502824Y-73289232D01*
X76658493Y-73289368D01*
X76802364Y-73229921D01*
X76912535Y-73119943D01*
X76972232Y-72976176D01*
X76972368Y-72820507D01*
X76912921Y-72676636D01*
X76847700Y-72611301D01*
X76847700Y-71120000D01*
X80075761Y-71120000D01*
X80154066Y-71513666D01*
X80377060Y-71847401D01*
X80710795Y-72070395D01*
X81104461Y-72148700D01*
X81455539Y-72148700D01*
X81849205Y-72070395D01*
X82182940Y-71847401D01*
X82405934Y-71513666D01*
X82484239Y-71120000D01*
X82405934Y-70726334D01*
X82182940Y-70392599D01*
X81849205Y-70169605D01*
X81455539Y-70091300D01*
X81104461Y-70091300D01*
X80710795Y-70169605D01*
X80377060Y-70392599D01*
X80154066Y-70726334D01*
X80075761Y-71120000D01*
X76847700Y-71120000D01*
X76847700Y-68866664D01*
X76912535Y-68801943D01*
X76972232Y-68658176D01*
X76972368Y-68502507D01*
X76912921Y-68358636D01*
X76802943Y-68248465D01*
X76659176Y-68188768D01*
X76503507Y-68188632D01*
X76359636Y-68248079D01*
X76249465Y-68358057D01*
X76189768Y-68501824D01*
X76189632Y-68657493D01*
X51015100Y-68657493D01*
X51015100Y-68580000D01*
X51010967Y-68559221D01*
X51010967Y-68538036D01*
X50914294Y-68052028D01*
X50882176Y-67974489D01*
X50812700Y-67870511D01*
X50812700Y-67716400D01*
X80095666Y-67716400D01*
X80095666Y-69443600D01*
X80108480Y-69508019D01*
X80144970Y-69562630D01*
X80199581Y-69599120D01*
X80264000Y-69611934D01*
X82296000Y-69611934D01*
X82360419Y-69599120D01*
X82415030Y-69562630D01*
X82451520Y-69508019D01*
X82464334Y-69443600D01*
X82464334Y-67716400D01*
X82451520Y-67651981D01*
X82415030Y-67597370D01*
X82360419Y-67560880D01*
X82296000Y-67548066D01*
X80264000Y-67548066D01*
X80199581Y-67560880D01*
X80144970Y-67597370D01*
X80108480Y-67651981D01*
X80095666Y-67716400D01*
X50812700Y-67716400D01*
X50812700Y-57410000D01*
X61231666Y-57410000D01*
X61231666Y-60610000D01*
X61244480Y-60674419D01*
X61280970Y-60729030D01*
X61335581Y-60765520D01*
X61400000Y-60778334D01*
X65600000Y-60778334D01*
X65664419Y-60765520D01*
X65719030Y-60729030D01*
X65755520Y-60674419D01*
X65768334Y-60610000D01*
X65768334Y-59429100D01*
X65987014Y-59429100D01*
X66006618Y-59442199D01*
X66167000Y-59474100D01*
X66327383Y-59442199D01*
X66463349Y-59351349D01*
X66554199Y-59215383D01*
X66586100Y-59055000D01*
X66554199Y-58894618D01*
X66463349Y-58758652D01*
X66418348Y-58713652D01*
X66343692Y-58663768D01*
X66282383Y-58622802D01*
X66122000Y-58590900D01*
X65768334Y-58590900D01*
X65768334Y-57410000D01*
X65755520Y-57345581D01*
X65719030Y-57290970D01*
X65664419Y-57254480D01*
X65600000Y-57241666D01*
X61400000Y-57241666D01*
X61335581Y-57254480D01*
X61280970Y-57290970D01*
X61244480Y-57345581D01*
X61231666Y-57410000D01*
X50812700Y-57410000D01*
X50812700Y-55892700D01*
X83604900Y-55892700D01*
X83604900Y-91224900D01*
G36*
X83604900Y-53327300D02*
X54622700Y-53327300D01*
X54622700Y-51255543D01*
X62154317Y-51255543D01*
X62372759Y-51747438D01*
X62762813Y-52118296D01*
X63048434Y-52260977D01*
X63258700Y-52183092D01*
X63258700Y-51041300D01*
X63741300Y-51041300D01*
X63741300Y-52183092D01*
X63951566Y-52260977D01*
X64237187Y-52118296D01*
X64627241Y-51747438D01*
X64845683Y-51255543D01*
X64746362Y-51041300D01*
X63741300Y-51041300D01*
X63258700Y-51041300D01*
X62253638Y-51041300D01*
X62154317Y-51255543D01*
X54622700Y-51255543D01*
X54622700Y-50624461D01*
X65011300Y-50624461D01*
X65011300Y-50975539D01*
X65089605Y-51369205D01*
X65312599Y-51702940D01*
X65646334Y-51925934D01*
X66040000Y-52004239D01*
X66433666Y-51925934D01*
X66767401Y-51702940D01*
X66990395Y-51369205D01*
X67068700Y-50975539D01*
X67068700Y-50624461D01*
X67551300Y-50624461D01*
X67551300Y-50975539D01*
X67629605Y-51369205D01*
X67852599Y-51702940D01*
X68186334Y-51925934D01*
X68580000Y-52004239D01*
X68973666Y-51925934D01*
X69307401Y-51702940D01*
X69530395Y-51369205D01*
X69608700Y-50975539D01*
X69608700Y-50624461D01*
X69530395Y-50230795D01*
X69307401Y-49897060D01*
X68973666Y-49674066D01*
X68580000Y-49595761D01*
X68186334Y-49674066D01*
X67852599Y-49897060D01*
X67629605Y-50230795D01*
X67551300Y-50624461D01*
X67068700Y-50624461D01*
X66990395Y-50230795D01*
X66767401Y-49897060D01*
X66433666Y-49674066D01*
X66306700Y-49648811D01*
X66306700Y-46084470D01*
X67039470Y-45351700D01*
X75048811Y-45351700D01*
X75074066Y-45478666D01*
X75297060Y-45812401D01*
X75630795Y-46035395D01*
X76024461Y-46113700D01*
X76375539Y-46113700D01*
X76769205Y-46035395D01*
X77102940Y-45812401D01*
X77325934Y-45478666D01*
X77404239Y-45085000D01*
X77325934Y-44691334D01*
X77102940Y-44357599D01*
X76769205Y-44134605D01*
X76375539Y-44056300D01*
X76024461Y-44056300D01*
X75630795Y-44134605D01*
X75297060Y-44357599D01*
X75074066Y-44691334D01*
X75048811Y-44818300D01*
X66929000Y-44818300D01*
X66826938Y-44838601D01*
X66740415Y-44896415D01*
X65851415Y-45785415D01*
X65793601Y-45871938D01*
X65773300Y-45974000D01*
X65773300Y-49648811D01*
X65646334Y-49674066D01*
X65312599Y-49897060D01*
X65089605Y-50230795D01*
X65011300Y-50624461D01*
X54622700Y-50624461D01*
X54622700Y-50344457D01*
X62154317Y-50344457D01*
X62253638Y-50558700D01*
X63258700Y-50558700D01*
X63258700Y-49416908D01*
X63741300Y-49416908D01*
X63741300Y-50558700D01*
X64746362Y-50558700D01*
X64845683Y-50344457D01*
X64627241Y-49852562D01*
X64237187Y-49481704D01*
X63951566Y-49339023D01*
X63741300Y-49416908D01*
X63258700Y-49416908D01*
X63048434Y-49339023D01*
X62762813Y-49481704D01*
X62372759Y-49852562D01*
X62154317Y-50344457D01*
X54622700Y-50344457D01*
X54622700Y-42545000D01*
X74995761Y-42545000D01*
X75074066Y-42938666D01*
X75297060Y-43272401D01*
X75630795Y-43495395D01*
X76024461Y-43573700D01*
X76375539Y-43573700D01*
X76769205Y-43495395D01*
X77102940Y-43272401D01*
X77325934Y-42938666D01*
X77404239Y-42545000D01*
X77325934Y-42151334D01*
X77102940Y-41817599D01*
X76769205Y-41594605D01*
X76375539Y-41516300D01*
X76024461Y-41516300D01*
X75630795Y-41594605D01*
X75297060Y-41817599D01*
X75074066Y-42151334D01*
X74995761Y-42545000D01*
X54622700Y-42545000D01*
X54622700Y-39141400D01*
X75015666Y-39141400D01*
X75015666Y-40868600D01*
X75028480Y-40933019D01*
X75064970Y-40987630D01*
X75119581Y-41024120D01*
X75184000Y-41036934D01*
X77216000Y-41036934D01*
X77280419Y-41024120D01*
X77335030Y-40987630D01*
X77371520Y-40933019D01*
X77384334Y-40868600D01*
X77384334Y-39141400D01*
X77371520Y-39076981D01*
X77335030Y-39022370D01*
X77280419Y-38985880D01*
X77216000Y-38973066D01*
X75184000Y-38973066D01*
X75119581Y-38985880D01*
X75064970Y-39022370D01*
X75028480Y-39076981D01*
X75015666Y-39141400D01*
X54622700Y-39141400D01*
X54622700Y-22733000D01*
X60921900Y-22733000D01*
X60921900Y-26162000D01*
X60953802Y-26322383D01*
X61044652Y-26458348D01*
X66001900Y-31415597D01*
X66001900Y-35814000D01*
X66033802Y-35974383D01*
X66124652Y-36110348D01*
X66886652Y-36872349D01*
X66968157Y-36926809D01*
X67022617Y-36963198D01*
X67183000Y-36995100D01*
X76962000Y-36995100D01*
X77122383Y-36963198D01*
X77258348Y-36872348D01*
X79167596Y-34963100D01*
X80344404Y-34963100D01*
X82130900Y-36749596D01*
X82130900Y-47324403D01*
X79074404Y-50380900D01*
X72151934Y-50380900D01*
X72151934Y-49784000D01*
X72139120Y-49719581D01*
X72102630Y-49664970D01*
X72048019Y-49628480D01*
X71983600Y-49615666D01*
X70256400Y-49615666D01*
X70191981Y-49628480D01*
X70137370Y-49664970D01*
X70100880Y-49719581D01*
X70088066Y-49784000D01*
X70088066Y-51816000D01*
X70100880Y-51880419D01*
X70137370Y-51935030D01*
X70191981Y-51971520D01*
X70256400Y-51984334D01*
X71983600Y-51984334D01*
X72048019Y-51971520D01*
X72102630Y-51935030D01*
X72139120Y-51880419D01*
X72151934Y-51816000D01*
X72151934Y-51219100D01*
X79248000Y-51219100D01*
X79408383Y-51187198D01*
X79544348Y-51096348D01*
X82846348Y-47794349D01*
X82937198Y-47658383D01*
X82969100Y-47498000D01*
X82969100Y-36576000D01*
X82937198Y-36415617D01*
X82846348Y-36279652D01*
X80814348Y-34247652D01*
X80678383Y-34156802D01*
X80518000Y-34124900D01*
X78994000Y-34124900D01*
X78833617Y-34156802D01*
X78697652Y-34247652D01*
X76788404Y-36156900D01*
X67356597Y-36156900D01*
X66840100Y-35640404D01*
X66840100Y-31242000D01*
X66808198Y-31081617D01*
X66771809Y-31027157D01*
X66717349Y-30945652D01*
X61760100Y-25988404D01*
X61760100Y-25303869D01*
X75091064Y-25303869D01*
X75298085Y-25804899D01*
X75681085Y-26188567D01*
X76181753Y-26396463D01*
X76723869Y-26396936D01*
X77224899Y-26189915D01*
X77608567Y-25806915D01*
X77816463Y-25306247D01*
X77816936Y-24764131D01*
X77609915Y-24263101D01*
X77226915Y-23879433D01*
X76726247Y-23671537D01*
X76184131Y-23671064D01*
X75683101Y-23878085D01*
X75299433Y-24261085D01*
X75091537Y-24761753D01*
X75091064Y-25303869D01*
X61760100Y-25303869D01*
X61760100Y-22906596D01*
X62018348Y-22648349D01*
X62109198Y-22512383D01*
X62141100Y-22352000D01*
X62141100Y-21336000D01*
X62109198Y-21175617D01*
X62018348Y-21039652D01*
X61882383Y-20948802D01*
X61722000Y-20916900D01*
X61561617Y-20948802D01*
X61425652Y-21039652D01*
X61334802Y-21175617D01*
X61302900Y-21336000D01*
X61302900Y-22178403D01*
X61044652Y-22436652D01*
X60953802Y-22572617D01*
X60921900Y-22733000D01*
X54622700Y-22733000D01*
X54622700Y-18303869D01*
X75091064Y-18303869D01*
X75298085Y-18804899D01*
X75681085Y-19188567D01*
X76181753Y-19396463D01*
X76723869Y-19396936D01*
X77224899Y-19189915D01*
X77608567Y-18806915D01*
X77816463Y-18306247D01*
X77816936Y-17764131D01*
X77609915Y-17263101D01*
X77226915Y-16879433D01*
X76726247Y-16671537D01*
X76184131Y-16671064D01*
X75683101Y-16878085D01*
X75299433Y-17261085D01*
X75091537Y-17761753D01*
X75091064Y-18303869D01*
X54622700Y-18303869D01*
X54622700Y-15343861D01*
X58254900Y-15343861D01*
X58254900Y-15390139D01*
X58344806Y-15842126D01*
X58600836Y-16225303D01*
X58984013Y-16481333D01*
X59436000Y-16571239D01*
X59887987Y-16481333D01*
X60271164Y-16225303D01*
X60527194Y-15842126D01*
X60617100Y-15390139D01*
X60617100Y-15343861D01*
X60527194Y-14891874D01*
X60271164Y-14508697D01*
X60035154Y-14351000D01*
X60791666Y-14351000D01*
X60791666Y-16383000D01*
X60804480Y-16447419D01*
X60840970Y-16502030D01*
X60895581Y-16538520D01*
X60960000Y-16551334D01*
X62992000Y-16551334D01*
X63056419Y-16538520D01*
X63111030Y-16502030D01*
X63147520Y-16447419D01*
X63160334Y-16383000D01*
X63160334Y-14351000D01*
X63147520Y-14286581D01*
X63111030Y-14231970D01*
X63056419Y-14195480D01*
X62992000Y-14182666D01*
X60960000Y-14182666D01*
X60895581Y-14195480D01*
X60840970Y-14231970D01*
X60804480Y-14286581D01*
X60791666Y-14351000D01*
X60035154Y-14351000D01*
X59887987Y-14252667D01*
X59436000Y-14162761D01*
X58984013Y-14252667D01*
X58600836Y-14508697D01*
X58344806Y-14891874D01*
X58254900Y-15343861D01*
X54622700Y-15343861D01*
X54622700Y-12915100D01*
X83604900Y-12915100D01*
X83604900Y-53327300D01*
X83604900Y-53327300D01*
G37*
X83604900Y-53327300D02*
X54622700Y-53327300D01*
X54622700Y-51255543D01*
X62154317Y-51255543D01*
X62372759Y-51747438D01*
X62762813Y-52118296D01*
X63048434Y-52260977D01*
X63258700Y-52183092D01*
X63258700Y-51041300D01*
X63741300Y-51041300D01*
X63741300Y-52183092D01*
X63951566Y-52260977D01*
X64237187Y-52118296D01*
X64627241Y-51747438D01*
X64845683Y-51255543D01*
X64746362Y-51041300D01*
X63741300Y-51041300D01*
X63258700Y-51041300D01*
X62253638Y-51041300D01*
X62154317Y-51255543D01*
X54622700Y-51255543D01*
X54622700Y-50624461D01*
X65011300Y-50624461D01*
X65011300Y-50975539D01*
X65089605Y-51369205D01*
X65312599Y-51702940D01*
X65646334Y-51925934D01*
X66040000Y-52004239D01*
X66433666Y-51925934D01*
X66767401Y-51702940D01*
X66990395Y-51369205D01*
X67068700Y-50975539D01*
X67068700Y-50624461D01*
X67551300Y-50624461D01*
X67551300Y-50975539D01*
X67629605Y-51369205D01*
X67852599Y-51702940D01*
X68186334Y-51925934D01*
X68580000Y-52004239D01*
X68973666Y-51925934D01*
X69307401Y-51702940D01*
X69530395Y-51369205D01*
X69608700Y-50975539D01*
X69608700Y-50624461D01*
X69530395Y-50230795D01*
X69307401Y-49897060D01*
X68973666Y-49674066D01*
X68580000Y-49595761D01*
X68186334Y-49674066D01*
X67852599Y-49897060D01*
X67629605Y-50230795D01*
X67551300Y-50624461D01*
X67068700Y-50624461D01*
X66990395Y-50230795D01*
X66767401Y-49897060D01*
X66433666Y-49674066D01*
X66306700Y-49648811D01*
X66306700Y-46084470D01*
X67039470Y-45351700D01*
X75048811Y-45351700D01*
X75074066Y-45478666D01*
X75297060Y-45812401D01*
X75630795Y-46035395D01*
X76024461Y-46113700D01*
X76375539Y-46113700D01*
X76769205Y-46035395D01*
X77102940Y-45812401D01*
X77325934Y-45478666D01*
X77404239Y-45085000D01*
X77325934Y-44691334D01*
X77102940Y-44357599D01*
X76769205Y-44134605D01*
X76375539Y-44056300D01*
X76024461Y-44056300D01*
X75630795Y-44134605D01*
X75297060Y-44357599D01*
X75074066Y-44691334D01*
X75048811Y-44818300D01*
X66929000Y-44818300D01*
X66826938Y-44838601D01*
X66740415Y-44896415D01*
X65851415Y-45785415D01*
X65793601Y-45871938D01*
X65773300Y-45974000D01*
X65773300Y-49648811D01*
X65646334Y-49674066D01*
X65312599Y-49897060D01*
X65089605Y-50230795D01*
X65011300Y-50624461D01*
X54622700Y-50624461D01*
X54622700Y-50344457D01*
X62154317Y-50344457D01*
X62253638Y-50558700D01*
X63258700Y-50558700D01*
X63258700Y-49416908D01*
X63741300Y-49416908D01*
X63741300Y-50558700D01*
X64746362Y-50558700D01*
X64845683Y-50344457D01*
X64627241Y-49852562D01*
X64237187Y-49481704D01*
X63951566Y-49339023D01*
X63741300Y-49416908D01*
X63258700Y-49416908D01*
X63048434Y-49339023D01*
X62762813Y-49481704D01*
X62372759Y-49852562D01*
X62154317Y-50344457D01*
X54622700Y-50344457D01*
X54622700Y-42545000D01*
X74995761Y-42545000D01*
X75074066Y-42938666D01*
X75297060Y-43272401D01*
X75630795Y-43495395D01*
X76024461Y-43573700D01*
X76375539Y-43573700D01*
X76769205Y-43495395D01*
X77102940Y-43272401D01*
X77325934Y-42938666D01*
X77404239Y-42545000D01*
X77325934Y-42151334D01*
X77102940Y-41817599D01*
X76769205Y-41594605D01*
X76375539Y-41516300D01*
X76024461Y-41516300D01*
X75630795Y-41594605D01*
X75297060Y-41817599D01*
X75074066Y-42151334D01*
X74995761Y-42545000D01*
X54622700Y-42545000D01*
X54622700Y-39141400D01*
X75015666Y-39141400D01*
X75015666Y-40868600D01*
X75028480Y-40933019D01*
X75064970Y-40987630D01*
X75119581Y-41024120D01*
X75184000Y-41036934D01*
X77216000Y-41036934D01*
X77280419Y-41024120D01*
X77335030Y-40987630D01*
X77371520Y-40933019D01*
X77384334Y-40868600D01*
X77384334Y-39141400D01*
X77371520Y-39076981D01*
X77335030Y-39022370D01*
X77280419Y-38985880D01*
X77216000Y-38973066D01*
X75184000Y-38973066D01*
X75119581Y-38985880D01*
X75064970Y-39022370D01*
X75028480Y-39076981D01*
X75015666Y-39141400D01*
X54622700Y-39141400D01*
X54622700Y-22733000D01*
X60921900Y-22733000D01*
X60921900Y-26162000D01*
X60953802Y-26322383D01*
X61044652Y-26458348D01*
X66001900Y-31415597D01*
X66001900Y-35814000D01*
X66033802Y-35974383D01*
X66124652Y-36110348D01*
X66886652Y-36872349D01*
X66968157Y-36926809D01*
X67022617Y-36963198D01*
X67183000Y-36995100D01*
X76962000Y-36995100D01*
X77122383Y-36963198D01*
X77258348Y-36872348D01*
X79167596Y-34963100D01*
X80344404Y-34963100D01*
X82130900Y-36749596D01*
X82130900Y-47324403D01*
X79074404Y-50380900D01*
X72151934Y-50380900D01*
X72151934Y-49784000D01*
X72139120Y-49719581D01*
X72102630Y-49664970D01*
X72048019Y-49628480D01*
X71983600Y-49615666D01*
X70256400Y-49615666D01*
X70191981Y-49628480D01*
X70137370Y-49664970D01*
X70100880Y-49719581D01*
X70088066Y-49784000D01*
X70088066Y-51816000D01*
X70100880Y-51880419D01*
X70137370Y-51935030D01*
X70191981Y-51971520D01*
X70256400Y-51984334D01*
X71983600Y-51984334D01*
X72048019Y-51971520D01*
X72102630Y-51935030D01*
X72139120Y-51880419D01*
X72151934Y-51816000D01*
X72151934Y-51219100D01*
X79248000Y-51219100D01*
X79408383Y-51187198D01*
X79544348Y-51096348D01*
X82846348Y-47794349D01*
X82937198Y-47658383D01*
X82969100Y-47498000D01*
X82969100Y-36576000D01*
X82937198Y-36415617D01*
X82846348Y-36279652D01*
X80814348Y-34247652D01*
X80678383Y-34156802D01*
X80518000Y-34124900D01*
X78994000Y-34124900D01*
X78833617Y-34156802D01*
X78697652Y-34247652D01*
X76788404Y-36156900D01*
X67356597Y-36156900D01*
X66840100Y-35640404D01*
X66840100Y-31242000D01*
X66808198Y-31081617D01*
X66771809Y-31027157D01*
X66717349Y-30945652D01*
X61760100Y-25988404D01*
X61760100Y-25303869D01*
X75091064Y-25303869D01*
X75298085Y-25804899D01*
X75681085Y-26188567D01*
X76181753Y-26396463D01*
X76723869Y-26396936D01*
X77224899Y-26189915D01*
X77608567Y-25806915D01*
X77816463Y-25306247D01*
X77816936Y-24764131D01*
X77609915Y-24263101D01*
X77226915Y-23879433D01*
X76726247Y-23671537D01*
X76184131Y-23671064D01*
X75683101Y-23878085D01*
X75299433Y-24261085D01*
X75091537Y-24761753D01*
X75091064Y-25303869D01*
X61760100Y-25303869D01*
X61760100Y-22906596D01*
X62018348Y-22648349D01*
X62109198Y-22512383D01*
X62141100Y-22352000D01*
X62141100Y-21336000D01*
X62109198Y-21175617D01*
X62018348Y-21039652D01*
X61882383Y-20948802D01*
X61722000Y-20916900D01*
X61561617Y-20948802D01*
X61425652Y-21039652D01*
X61334802Y-21175617D01*
X61302900Y-21336000D01*
X61302900Y-22178403D01*
X61044652Y-22436652D01*
X60953802Y-22572617D01*
X60921900Y-22733000D01*
X54622700Y-22733000D01*
X54622700Y-18303869D01*
X75091064Y-18303869D01*
X75298085Y-18804899D01*
X75681085Y-19188567D01*
X76181753Y-19396463D01*
X76723869Y-19396936D01*
X77224899Y-19189915D01*
X77608567Y-18806915D01*
X77816463Y-18306247D01*
X77816936Y-17764131D01*
X77609915Y-17263101D01*
X77226915Y-16879433D01*
X76726247Y-16671537D01*
X76184131Y-16671064D01*
X75683101Y-16878085D01*
X75299433Y-17261085D01*
X75091537Y-17761753D01*
X75091064Y-18303869D01*
X54622700Y-18303869D01*
X54622700Y-15343861D01*
X58254900Y-15343861D01*
X58254900Y-15390139D01*
X58344806Y-15842126D01*
X58600836Y-16225303D01*
X58984013Y-16481333D01*
X59436000Y-16571239D01*
X59887987Y-16481333D01*
X60271164Y-16225303D01*
X60527194Y-15842126D01*
X60617100Y-15390139D01*
X60617100Y-15343861D01*
X60527194Y-14891874D01*
X60271164Y-14508697D01*
X60035154Y-14351000D01*
X60791666Y-14351000D01*
X60791666Y-16383000D01*
X60804480Y-16447419D01*
X60840970Y-16502030D01*
X60895581Y-16538520D01*
X60960000Y-16551334D01*
X62992000Y-16551334D01*
X63056419Y-16538520D01*
X63111030Y-16502030D01*
X63147520Y-16447419D01*
X63160334Y-16383000D01*
X63160334Y-14351000D01*
X63147520Y-14286581D01*
X63111030Y-14231970D01*
X63056419Y-14195480D01*
X62992000Y-14182666D01*
X60960000Y-14182666D01*
X60895581Y-14195480D01*
X60840970Y-14231970D01*
X60804480Y-14286581D01*
X60791666Y-14351000D01*
X60035154Y-14351000D01*
X59887987Y-14252667D01*
X59436000Y-14162761D01*
X58984013Y-14252667D01*
X58600836Y-14508697D01*
X58344806Y-14891874D01*
X58254900Y-15343861D01*
X54622700Y-15343861D01*
X54622700Y-12915100D01*
X83604900Y-12915100D01*
X83604900Y-53327300D01*
G36*
X48247300Y-67094900D02*
X12915100Y-67094900D01*
X12915100Y-64770000D01*
X15461147Y-64770000D01*
X15539452Y-65163666D01*
X15762446Y-65497401D01*
X16096181Y-65720395D01*
X16489847Y-65798700D01*
X16530153Y-65798700D01*
X16923819Y-65720395D01*
X17257554Y-65497401D01*
X17480548Y-65163666D01*
X17484962Y-65141475D01*
X17665700Y-65141475D01*
X17665700Y-65737173D01*
X17744972Y-65928553D01*
X17891447Y-66075028D01*
X18082826Y-66154300D01*
X18678525Y-66154300D01*
X18808700Y-66024125D01*
X18808700Y-65011300D01*
X19291300Y-65011300D01*
X19291300Y-66024125D01*
X19421475Y-66154300D01*
X20017174Y-66154300D01*
X20208553Y-66075028D01*
X20355028Y-65928553D01*
X20434300Y-65737173D01*
X20434300Y-65141475D01*
X20304125Y-65011300D01*
X19291300Y-65011300D01*
X18808700Y-65011300D01*
X17795875Y-65011300D01*
X17665700Y-65141475D01*
X17484962Y-65141475D01*
X17558853Y-64770000D01*
X17480548Y-64376334D01*
X17257554Y-64042599D01*
X16923819Y-63819605D01*
X16839471Y-63802827D01*
X17665700Y-63802827D01*
X17665700Y-64398525D01*
X17795875Y-64528700D01*
X18808700Y-64528700D01*
X18808700Y-63515875D01*
X19291300Y-63515875D01*
X19291300Y-64528700D01*
X20304125Y-64528700D01*
X20434300Y-64398525D01*
X20434300Y-63906400D01*
X41487666Y-63906400D01*
X41487666Y-65633600D01*
X41500480Y-65698019D01*
X41536970Y-65752630D01*
X41591581Y-65789120D01*
X41656000Y-65801934D01*
X43688000Y-65801934D01*
X43752419Y-65789120D01*
X43807030Y-65752630D01*
X43843520Y-65698019D01*
X43856334Y-65633600D01*
X43856334Y-63906400D01*
X43843520Y-63841981D01*
X43807030Y-63787370D01*
X43752419Y-63750880D01*
X43688000Y-63738066D01*
X41656000Y-63738066D01*
X41591581Y-63750880D01*
X41536970Y-63787370D01*
X41500480Y-63841981D01*
X41487666Y-63906400D01*
X20434300Y-63906400D01*
X20434300Y-63802827D01*
X20355028Y-63611447D01*
X20208553Y-63464972D01*
X20017174Y-63385700D01*
X19421475Y-63385700D01*
X19291300Y-63515875D01*
X18808700Y-63515875D01*
X18678525Y-63385700D01*
X18082826Y-63385700D01*
X17891447Y-63464972D01*
X17744972Y-63611447D01*
X17665700Y-63802827D01*
X16839471Y-63802827D01*
X16530153Y-63741300D01*
X16489847Y-63741300D01*
X16096181Y-63819605D01*
X15762446Y-64042599D01*
X15539452Y-64376334D01*
X15461147Y-64770000D01*
X12915100Y-64770000D01*
X12915100Y-62681566D01*
X15201423Y-62681566D01*
X15265374Y-62836010D01*
X15592026Y-63266178D01*
X16058431Y-63538597D01*
X16268700Y-63462952D01*
X16268700Y-62471300D01*
X16751300Y-62471300D01*
X16751300Y-63462952D01*
X16961569Y-63538597D01*
X17427974Y-63266178D01*
X17754626Y-62836010D01*
X17818577Y-62681566D01*
X17740692Y-62471300D01*
X16751300Y-62471300D01*
X16268700Y-62471300D01*
X15279308Y-62471300D01*
X15201423Y-62681566D01*
X12915100Y-62681566D01*
X12915100Y-62230000D01*
X18001147Y-62230000D01*
X18079452Y-62623666D01*
X18302446Y-62957401D01*
X18636181Y-63180395D01*
X19029847Y-63258700D01*
X19070153Y-63258700D01*
X19463819Y-63180395D01*
X19797554Y-62957401D01*
X20020548Y-62623666D01*
X20098853Y-62230000D01*
X41467761Y-62230000D01*
X41546066Y-62623666D01*
X41769060Y-62957401D01*
X42102795Y-63180395D01*
X42496461Y-63258700D01*
X42847539Y-63258700D01*
X43241205Y-63180395D01*
X43574940Y-62957401D01*
X43797934Y-62623666D01*
X43876239Y-62230000D01*
X43797934Y-61836334D01*
X43574940Y-61502599D01*
X43241205Y-61279605D01*
X42847539Y-61201300D01*
X42496461Y-61201300D01*
X42102795Y-61279605D01*
X41769060Y-61502599D01*
X41546066Y-61836334D01*
X41467761Y-62230000D01*
X20098853Y-62230000D01*
X20020548Y-61836334D01*
X19797554Y-61502599D01*
X19463819Y-61279605D01*
X19070153Y-61201300D01*
X19029847Y-61201300D01*
X18636181Y-61279605D01*
X18302446Y-61502599D01*
X18079452Y-61836334D01*
X18001147Y-62230000D01*
X12915100Y-62230000D01*
X12915100Y-61778434D01*
X15201423Y-61778434D01*
X15279308Y-61988700D01*
X16268700Y-61988700D01*
X16268700Y-60997048D01*
X16751300Y-60997048D01*
X16751300Y-61988700D01*
X17740692Y-61988700D01*
X17818577Y-61778434D01*
X17754626Y-61623990D01*
X17427974Y-61193822D01*
X16961569Y-60921403D01*
X16751300Y-60997048D01*
X16268700Y-60997048D01*
X16058431Y-60921403D01*
X15592026Y-61193822D01*
X15265374Y-61623990D01*
X15201423Y-61778434D01*
X12915100Y-61778434D01*
X12915100Y-59690000D01*
X15461147Y-59690000D01*
X15539452Y-60083666D01*
X15762446Y-60417401D01*
X16096181Y-60640395D01*
X16489847Y-60718700D01*
X16530153Y-60718700D01*
X16923819Y-60640395D01*
X17257554Y-60417401D01*
X17480548Y-60083666D01*
X17558853Y-59690000D01*
X18001147Y-59690000D01*
X18079452Y-60083666D01*
X18302446Y-60417401D01*
X18636181Y-60640395D01*
X19029847Y-60718700D01*
X19070153Y-60718700D01*
X19463819Y-60640395D01*
X19797554Y-60417401D01*
X20003554Y-60109100D01*
X32512000Y-60109100D01*
X32672383Y-60077198D01*
X32808348Y-59986348D01*
X33104696Y-59690000D01*
X41467761Y-59690000D01*
X41546066Y-60083666D01*
X41769060Y-60417401D01*
X42102795Y-60640395D01*
X42496461Y-60718700D01*
X42847539Y-60718700D01*
X43241205Y-60640395D01*
X43574940Y-60417401D01*
X43797934Y-60083666D01*
X43876239Y-59690000D01*
X43797934Y-59296334D01*
X43574940Y-58962599D01*
X43241205Y-58739605D01*
X42847539Y-58661300D01*
X42496461Y-58661300D01*
X42102795Y-58739605D01*
X41769060Y-58962599D01*
X41546066Y-59296334D01*
X41467761Y-59690000D01*
X33104696Y-59690000D01*
X33951348Y-58843349D01*
X33996773Y-58775365D01*
X34042198Y-58707383D01*
X34074100Y-58547000D01*
X34074100Y-57150000D01*
X41467761Y-57150000D01*
X41546066Y-57543666D01*
X41769060Y-57877401D01*
X42102795Y-58100395D01*
X42496461Y-58178700D01*
X42847539Y-58178700D01*
X43241205Y-58100395D01*
X43574940Y-57877401D01*
X43797934Y-57543666D01*
X43876239Y-57150000D01*
X43797934Y-56756334D01*
X43574940Y-56422599D01*
X43241205Y-56199605D01*
X42847539Y-56121300D01*
X42496461Y-56121300D01*
X42102795Y-56199605D01*
X41769060Y-56422599D01*
X41546066Y-56756334D01*
X41467761Y-57150000D01*
X34074100Y-57150000D01*
X34074100Y-55283100D01*
X45720000Y-55283100D01*
X45880383Y-55251198D01*
X46016348Y-55160348D01*
X47667349Y-53509348D01*
X47758199Y-53373382D01*
X47790100Y-53213000D01*
X47790100Y-19939000D01*
X47758198Y-19778617D01*
X47721809Y-19724157D01*
X47667349Y-19642652D01*
X44873348Y-16848652D01*
X44873347Y-16848651D01*
X44737383Y-16757802D01*
X44577000Y-16725900D01*
X32004000Y-16725900D01*
X31843617Y-16757802D01*
X31789157Y-16794191D01*
X31707652Y-16848651D01*
X30945652Y-17610652D01*
X30854802Y-17746617D01*
X30822900Y-17907000D01*
X30822900Y-27813000D01*
X30854802Y-27973383D01*
X30945652Y-28109348D01*
X31081617Y-28200198D01*
X31242000Y-28232100D01*
X31402383Y-28200198D01*
X31538348Y-28109348D01*
X31629198Y-27973383D01*
X31661100Y-27813000D01*
X31661100Y-18080596D01*
X32177597Y-17564100D01*
X44403404Y-17564100D01*
X46951900Y-20112597D01*
X46951900Y-53039403D01*
X45546404Y-54444900D01*
X34074100Y-54444900D01*
X34074100Y-47067493D01*
X34279632Y-47067493D01*
X34339079Y-47211364D01*
X34449057Y-47321535D01*
X34592824Y-47381232D01*
X34685143Y-47381313D01*
X35676712Y-48372883D01*
X35676632Y-48464493D01*
X35736079Y-48608364D01*
X35846057Y-48718535D01*
X35989824Y-48778232D01*
X36145493Y-48778368D01*
X36289364Y-48718921D01*
X36399535Y-48608943D01*
X36459232Y-48465176D01*
X36459368Y-48309507D01*
X36399921Y-48165636D01*
X36289943Y-48055465D01*
X36146176Y-47995768D01*
X36053858Y-47995687D01*
X35062288Y-47004118D01*
X35062368Y-46912507D01*
X35002921Y-46768636D01*
X34892943Y-46658465D01*
X34749176Y-46598768D01*
X34593507Y-46598632D01*
X34449636Y-46658079D01*
X34339465Y-46768057D01*
X34279768Y-46911824D01*
X34279632Y-47067493D01*
X34074100Y-47067493D01*
X34074100Y-45543493D01*
X37708632Y-45543493D01*
X37768079Y-45687364D01*
X37833300Y-45752699D01*
X37833300Y-47338336D01*
X37768465Y-47403057D01*
X37708768Y-47546824D01*
X37708632Y-47702493D01*
X37768079Y-47846364D01*
X37878057Y-47956535D01*
X38021824Y-48016232D01*
X38177493Y-48016368D01*
X38321364Y-47956921D01*
X38431535Y-47846943D01*
X38491232Y-47703176D01*
X38491368Y-47547507D01*
X38431921Y-47403636D01*
X38366700Y-47338301D01*
X38366700Y-45752664D01*
X38431535Y-45687943D01*
X38491232Y-45544176D01*
X38491368Y-45388507D01*
X38431921Y-45244636D01*
X38321943Y-45134465D01*
X38178176Y-45074768D01*
X38022507Y-45074632D01*
X37878636Y-45134079D01*
X37768465Y-45244057D01*
X37708768Y-45387824D01*
X37708632Y-45543493D01*
X34074100Y-45543493D01*
X34074100Y-44196000D01*
X34042198Y-44035617D01*
X33951348Y-43899652D01*
X33815383Y-43808802D01*
X33655000Y-43776900D01*
X33494617Y-43808802D01*
X33358652Y-43899652D01*
X33267802Y-44035617D01*
X33235900Y-44196000D01*
X33235900Y-58373403D01*
X32338404Y-59270900D01*
X20003554Y-59270900D01*
X19797554Y-58962599D01*
X19463819Y-58739605D01*
X19070153Y-58661300D01*
X19029847Y-58661300D01*
X18636181Y-58739605D01*
X18302446Y-58962599D01*
X18079452Y-59296334D01*
X18001147Y-59690000D01*
X17558853Y-59690000D01*
X17480548Y-59296334D01*
X17257554Y-58962599D01*
X16923819Y-58739605D01*
X16530153Y-58661300D01*
X16489847Y-58661300D01*
X16096181Y-58739605D01*
X15762446Y-58962599D01*
X15539452Y-59296334D01*
X15461147Y-59690000D01*
X12915100Y-59690000D01*
X12915100Y-57150000D01*
X15461147Y-57150000D01*
X15539452Y-57543666D01*
X15762446Y-57877401D01*
X16096181Y-58100395D01*
X16489847Y-58178700D01*
X16530153Y-58178700D01*
X16923819Y-58100395D01*
X17257554Y-57877401D01*
X17480548Y-57543666D01*
X17558853Y-57150000D01*
X18001147Y-57150000D01*
X18079452Y-57543666D01*
X18302446Y-57877401D01*
X18636181Y-58100395D01*
X19029847Y-58178700D01*
X19070153Y-58178700D01*
X19463819Y-58100395D01*
X19797554Y-57877401D01*
X20020548Y-57543666D01*
X20098853Y-57150000D01*
X20020548Y-56756334D01*
X19797554Y-56422599D01*
X19463819Y-56199605D01*
X19070153Y-56121300D01*
X19029847Y-56121300D01*
X18636181Y-56199605D01*
X18302446Y-56422599D01*
X18079452Y-56756334D01*
X18001147Y-57150000D01*
X17558853Y-57150000D01*
X17480548Y-56756334D01*
X17257554Y-56422599D01*
X16923819Y-56199605D01*
X16530153Y-56121300D01*
X16489847Y-56121300D01*
X16096181Y-56199605D01*
X15762446Y-56422599D01*
X15539452Y-56756334D01*
X15461147Y-57150000D01*
X12915100Y-57150000D01*
X12915100Y-54610000D01*
X15461147Y-54610000D01*
X15539452Y-55003666D01*
X15762446Y-55337401D01*
X16096181Y-55560395D01*
X16489847Y-55638700D01*
X16530153Y-55638700D01*
X16923819Y-55560395D01*
X17257554Y-55337401D01*
X17480548Y-55003666D01*
X17558853Y-54610000D01*
X18001147Y-54610000D01*
X18079452Y-55003666D01*
X18302446Y-55337401D01*
X18636181Y-55560395D01*
X19029847Y-55638700D01*
X19070153Y-55638700D01*
X19463819Y-55560395D01*
X19797554Y-55337401D01*
X20020548Y-55003666D01*
X20098853Y-54610000D01*
X20020548Y-54216334D01*
X19797554Y-53882599D01*
X19463819Y-53659605D01*
X19070153Y-53581300D01*
X19029847Y-53581300D01*
X18636181Y-53659605D01*
X18302446Y-53882599D01*
X18079452Y-54216334D01*
X18001147Y-54610000D01*
X17558853Y-54610000D01*
X17480548Y-54216334D01*
X17257554Y-53882599D01*
X16923819Y-53659605D01*
X16530153Y-53581300D01*
X16489847Y-53581300D01*
X16096181Y-53659605D01*
X15762446Y-53882599D01*
X15539452Y-54216334D01*
X15461147Y-54610000D01*
X12915100Y-54610000D01*
X12915100Y-52521566D01*
X15201423Y-52521566D01*
X15265374Y-52676010D01*
X15592026Y-53106178D01*
X16058431Y-53378597D01*
X16268700Y-53302952D01*
X16268700Y-52311300D01*
X16751300Y-52311300D01*
X16751300Y-53302952D01*
X16961569Y-53378597D01*
X17427974Y-53106178D01*
X17754626Y-52676010D01*
X17818577Y-52521566D01*
X17740692Y-52311300D01*
X16751300Y-52311300D01*
X16268700Y-52311300D01*
X15279308Y-52311300D01*
X15201423Y-52521566D01*
X12915100Y-52521566D01*
X12915100Y-52070000D01*
X18001147Y-52070000D01*
X18079452Y-52463666D01*
X18302446Y-52797401D01*
X18636181Y-53020395D01*
X19029847Y-53098700D01*
X19070153Y-53098700D01*
X19463819Y-53020395D01*
X19797554Y-52797401D01*
X20020548Y-52463666D01*
X20098853Y-52070000D01*
X20020548Y-51676334D01*
X19797554Y-51342599D01*
X19463819Y-51119605D01*
X19070153Y-51041300D01*
X19029847Y-51041300D01*
X18636181Y-51119605D01*
X18302446Y-51342599D01*
X18079452Y-51676334D01*
X18001147Y-52070000D01*
X12915100Y-52070000D01*
X12915100Y-51618434D01*
X15201423Y-51618434D01*
X15279308Y-51828700D01*
X16268700Y-51828700D01*
X16268700Y-50837048D01*
X16751300Y-50837048D01*
X16751300Y-51828700D01*
X17740692Y-51828700D01*
X17818577Y-51618434D01*
X17754626Y-51463990D01*
X17427974Y-51033822D01*
X16961569Y-50761403D01*
X16751300Y-50837048D01*
X16268700Y-50837048D01*
X16058431Y-50761403D01*
X15592026Y-51033822D01*
X15265374Y-51463990D01*
X15201423Y-51618434D01*
X12915100Y-51618434D01*
X12915100Y-49530000D01*
X15461147Y-49530000D01*
X15539452Y-49923666D01*
X15762446Y-50257401D01*
X16096181Y-50480395D01*
X16489847Y-50558700D01*
X16530153Y-50558700D01*
X16923819Y-50480395D01*
X17257554Y-50257401D01*
X17480548Y-49923666D01*
X17558853Y-49530000D01*
X18001147Y-49530000D01*
X18079452Y-49923666D01*
X18302446Y-50257401D01*
X18636181Y-50480395D01*
X19029847Y-50558700D01*
X19070153Y-50558700D01*
X19463819Y-50480395D01*
X19797554Y-50257401D01*
X20020548Y-49923666D01*
X20098853Y-49530000D01*
X20020548Y-49136334D01*
X19797554Y-48802599D01*
X19463819Y-48579605D01*
X19070153Y-48501300D01*
X19029847Y-48501300D01*
X18636181Y-48579605D01*
X18302446Y-48802599D01*
X18079452Y-49136334D01*
X18001147Y-49530000D01*
X17558853Y-49530000D01*
X17480548Y-49136334D01*
X17257554Y-48802599D01*
X16923819Y-48579605D01*
X16530153Y-48501300D01*
X16489847Y-48501300D01*
X16096181Y-48579605D01*
X15762446Y-48802599D01*
X15539452Y-49136334D01*
X15461147Y-49530000D01*
X12915100Y-49530000D01*
X12915100Y-46990000D01*
X15461147Y-46990000D01*
X15539452Y-47383666D01*
X15762446Y-47717401D01*
X16096181Y-47940395D01*
X16489847Y-48018700D01*
X16530153Y-48018700D01*
X16923819Y-47940395D01*
X17257554Y-47717401D01*
X17480548Y-47383666D01*
X17558853Y-46990000D01*
X18001147Y-46990000D01*
X18079452Y-47383666D01*
X18302446Y-47717401D01*
X18636181Y-47940395D01*
X19029847Y-48018700D01*
X19070153Y-48018700D01*
X19463819Y-47940395D01*
X19797554Y-47717401D01*
X20020548Y-47383666D01*
X20098853Y-46990000D01*
X20020548Y-46596334D01*
X19797554Y-46262599D01*
X19463819Y-46039605D01*
X19070153Y-45961300D01*
X19029847Y-45961300D01*
X18636181Y-46039605D01*
X18302446Y-46262599D01*
X18079452Y-46596334D01*
X18001147Y-46990000D01*
X17558853Y-46990000D01*
X17480548Y-46596334D01*
X17257554Y-46262599D01*
X16923819Y-46039605D01*
X16530153Y-45961300D01*
X16489847Y-45961300D01*
X16096181Y-46039605D01*
X15762446Y-46262599D01*
X15539452Y-46596334D01*
X15461147Y-46990000D01*
X12915100Y-46990000D01*
X12915100Y-44450000D01*
X15461147Y-44450000D01*
X15539452Y-44843666D01*
X15762446Y-45177401D01*
X16096181Y-45400395D01*
X16489847Y-45478700D01*
X16530153Y-45478700D01*
X16923819Y-45400395D01*
X17257554Y-45177401D01*
X17480548Y-44843666D01*
X17558853Y-44450000D01*
X18001147Y-44450000D01*
X18079452Y-44843666D01*
X18302446Y-45177401D01*
X18636181Y-45400395D01*
X19029847Y-45478700D01*
X19070153Y-45478700D01*
X19463819Y-45400395D01*
X19797554Y-45177401D01*
X20020548Y-44843666D01*
X20098853Y-44450000D01*
X20020548Y-44056334D01*
X19797554Y-43722599D01*
X19463819Y-43499605D01*
X19070153Y-43421300D01*
X19029847Y-43421300D01*
X18636181Y-43499605D01*
X18302446Y-43722599D01*
X18079452Y-44056334D01*
X18001147Y-44450000D01*
X17558853Y-44450000D01*
X17480548Y-44056334D01*
X17257554Y-43722599D01*
X16923819Y-43499605D01*
X16530153Y-43421300D01*
X16489847Y-43421300D01*
X16096181Y-43499605D01*
X15762446Y-43722599D01*
X15539452Y-44056334D01*
X15461147Y-44450000D01*
X12915100Y-44450000D01*
X12915100Y-41910000D01*
X15461147Y-41910000D01*
X15539452Y-42303666D01*
X15762446Y-42637401D01*
X16096181Y-42860395D01*
X16489847Y-42938700D01*
X16530153Y-42938700D01*
X16923819Y-42860395D01*
X17257554Y-42637401D01*
X17480548Y-42303666D01*
X17558853Y-41910000D01*
X18001147Y-41910000D01*
X18079452Y-42303666D01*
X18302446Y-42637401D01*
X18636181Y-42860395D01*
X19029847Y-42938700D01*
X19070153Y-42938700D01*
X19463819Y-42860395D01*
X19797554Y-42637401D01*
X20020548Y-42303666D01*
X20098853Y-41910000D01*
X20020548Y-41516334D01*
X19797554Y-41182599D01*
X19463819Y-40959605D01*
X19070153Y-40881300D01*
X19029847Y-40881300D01*
X18636181Y-40959605D01*
X18302446Y-41182599D01*
X18079452Y-41516334D01*
X18001147Y-41910000D01*
X17558853Y-41910000D01*
X17480548Y-41516334D01*
X17257554Y-41182599D01*
X16923819Y-40959605D01*
X16530153Y-40881300D01*
X16489847Y-40881300D01*
X16096181Y-40959605D01*
X15762446Y-41182599D01*
X15539452Y-41516334D01*
X15461147Y-41910000D01*
X12915100Y-41910000D01*
X12915100Y-39370000D01*
X15461147Y-39370000D01*
X15539452Y-39763666D01*
X15762446Y-40097401D01*
X16096181Y-40320395D01*
X16489847Y-40398700D01*
X16530153Y-40398700D01*
X16923819Y-40320395D01*
X17257554Y-40097401D01*
X17480548Y-39763666D01*
X17558853Y-39370000D01*
X18001147Y-39370000D01*
X18079452Y-39763666D01*
X18302446Y-40097401D01*
X18636181Y-40320395D01*
X19029847Y-40398700D01*
X19070153Y-40398700D01*
X19463819Y-40320395D01*
X19797554Y-40097401D01*
X20020548Y-39763666D01*
X20098853Y-39370000D01*
X20020548Y-38976334D01*
X19797554Y-38642599D01*
X19463819Y-38419605D01*
X19070153Y-38341300D01*
X19029847Y-38341300D01*
X18636181Y-38419605D01*
X18302446Y-38642599D01*
X18079452Y-38976334D01*
X18001147Y-39370000D01*
X17558853Y-39370000D01*
X17480548Y-38976334D01*
X17257554Y-38642599D01*
X16923819Y-38419605D01*
X16530153Y-38341300D01*
X16489847Y-38341300D01*
X16096181Y-38419605D01*
X15762446Y-38642599D01*
X15539452Y-38976334D01*
X15461147Y-39370000D01*
X12915100Y-39370000D01*
X12915100Y-36830000D01*
X15461147Y-36830000D01*
X15539452Y-37223666D01*
X15762446Y-37557401D01*
X16096181Y-37780395D01*
X16489847Y-37858700D01*
X16530153Y-37858700D01*
X16923819Y-37780395D01*
X17257554Y-37557401D01*
X17480548Y-37223666D01*
X17558853Y-36830000D01*
X18001147Y-36830000D01*
X18079452Y-37223666D01*
X18302446Y-37557401D01*
X18636181Y-37780395D01*
X19029847Y-37858700D01*
X19070153Y-37858700D01*
X19463819Y-37780395D01*
X19797554Y-37557401D01*
X20020548Y-37223666D01*
X20098853Y-36830000D01*
X20020548Y-36436334D01*
X19797554Y-36102599D01*
X19463819Y-35879605D01*
X19070153Y-35801300D01*
X19029847Y-35801300D01*
X18636181Y-35879605D01*
X18302446Y-36102599D01*
X18079452Y-36436334D01*
X18001147Y-36830000D01*
X17558853Y-36830000D01*
X17480548Y-36436334D01*
X17257554Y-36102599D01*
X16923819Y-35879605D01*
X16530153Y-35801300D01*
X16489847Y-35801300D01*
X16096181Y-35879605D01*
X15762446Y-36102599D01*
X15539452Y-36436334D01*
X15461147Y-36830000D01*
X12915100Y-36830000D01*
X12915100Y-34290000D01*
X15461147Y-34290000D01*
X15539452Y-34683666D01*
X15762446Y-35017401D01*
X16096181Y-35240395D01*
X16489847Y-35318700D01*
X16530153Y-35318700D01*
X16923819Y-35240395D01*
X17257554Y-35017401D01*
X17480548Y-34683666D01*
X17558853Y-34290000D01*
X18001147Y-34290000D01*
X18079452Y-34683666D01*
X18302446Y-35017401D01*
X18636181Y-35240395D01*
X19029847Y-35318700D01*
X19070153Y-35318700D01*
X19463819Y-35240395D01*
X19797554Y-35017401D01*
X20020548Y-34683666D01*
X20098853Y-34290000D01*
X20020548Y-33896334D01*
X19797554Y-33562599D01*
X19463819Y-33339605D01*
X19070153Y-33261300D01*
X19029847Y-33261300D01*
X18636181Y-33339605D01*
X18302446Y-33562599D01*
X18079452Y-33896334D01*
X18001147Y-34290000D01*
X17558853Y-34290000D01*
X17480548Y-33896334D01*
X17257554Y-33562599D01*
X16923819Y-33339605D01*
X16530153Y-33261300D01*
X16489847Y-33261300D01*
X16096181Y-33339605D01*
X15762446Y-33562599D01*
X15539452Y-33896334D01*
X15461147Y-34290000D01*
X12915100Y-34290000D01*
X12915100Y-31750000D01*
X15461147Y-31750000D01*
X15539452Y-32143666D01*
X15762446Y-32477401D01*
X16096181Y-32700395D01*
X16489847Y-32778700D01*
X16530153Y-32778700D01*
X16923819Y-32700395D01*
X17257554Y-32477401D01*
X17480548Y-32143666D01*
X17558853Y-31750000D01*
X18001147Y-31750000D01*
X18079452Y-32143666D01*
X18302446Y-32477401D01*
X18636181Y-32700395D01*
X19029847Y-32778700D01*
X19070153Y-32778700D01*
X19463819Y-32700395D01*
X19797554Y-32477401D01*
X20020548Y-32143666D01*
X20098853Y-31750000D01*
X20020548Y-31356334D01*
X19797554Y-31022599D01*
X19463819Y-30799605D01*
X19070153Y-30721300D01*
X19029847Y-30721300D01*
X18636181Y-30799605D01*
X18302446Y-31022599D01*
X18079452Y-31356334D01*
X18001147Y-31750000D01*
X17558853Y-31750000D01*
X17480548Y-31356334D01*
X17257554Y-31022599D01*
X16923819Y-30799605D01*
X16530153Y-30721300D01*
X16489847Y-30721300D01*
X16096181Y-30799605D01*
X15762446Y-31022599D01*
X15539452Y-31356334D01*
X15461147Y-31750000D01*
X12915100Y-31750000D01*
X12915100Y-30557493D01*
X28818632Y-30557493D01*
X28878079Y-30701364D01*
X28943300Y-30766699D01*
X28943300Y-41402000D01*
X28950665Y-41439029D01*
X28945768Y-41450824D01*
X28945632Y-41606493D01*
X29005079Y-41750364D01*
X29115057Y-41860535D01*
X29258824Y-41920232D01*
X29414493Y-41920368D01*
X29558364Y-41860921D01*
X29668535Y-41750943D01*
X29728232Y-41607176D01*
X29728368Y-41451507D01*
X29700814Y-41384822D01*
X29766824Y-41412232D01*
X29922493Y-41412368D01*
X30066364Y-41352921D01*
X30176535Y-41242943D01*
X30213300Y-41154403D01*
X30213300Y-42385336D01*
X30148465Y-42450057D01*
X30088768Y-42593824D01*
X30088632Y-42749493D01*
X30148079Y-42893364D01*
X30258057Y-43003535D01*
X30401824Y-43063232D01*
X30557493Y-43063368D01*
X30701364Y-43003921D01*
X30811535Y-42893943D01*
X30871232Y-42750176D01*
X30871368Y-42594507D01*
X30811921Y-42450636D01*
X30746700Y-42385301D01*
X30746700Y-42297321D01*
X30783079Y-42385364D01*
X30893057Y-42495535D01*
X31036824Y-42555232D01*
X31192493Y-42555368D01*
X31336364Y-42495921D01*
X31446535Y-42385943D01*
X31506232Y-42242176D01*
X31506368Y-42086507D01*
X31446921Y-41942636D01*
X31381700Y-41877301D01*
X31381700Y-30766664D01*
X31446535Y-30701943D01*
X31506232Y-30558176D01*
X31506368Y-30402507D01*
X31446921Y-30258636D01*
X31336943Y-30148465D01*
X31193176Y-30088768D01*
X31037507Y-30088632D01*
X30893636Y-30148079D01*
X30797428Y-30244118D01*
X30701943Y-30148465D01*
X30558176Y-30088768D01*
X30402507Y-30088632D01*
X30258636Y-30148079D01*
X30162428Y-30244118D01*
X30066943Y-30148465D01*
X29923176Y-30088768D01*
X29767507Y-30088632D01*
X29623636Y-30148079D01*
X29527428Y-30244118D01*
X29431943Y-30148465D01*
X29288176Y-30088768D01*
X29132507Y-30088632D01*
X28988636Y-30148079D01*
X28878465Y-30258057D01*
X28818768Y-30401824D01*
X28818632Y-30557493D01*
X12915100Y-30557493D01*
X12915100Y-29210000D01*
X15461147Y-29210000D01*
X15539452Y-29603666D01*
X15762446Y-29937401D01*
X16096181Y-30160395D01*
X16489847Y-30238700D01*
X16530153Y-30238700D01*
X16923819Y-30160395D01*
X17257554Y-29937401D01*
X17480548Y-29603666D01*
X17558853Y-29210000D01*
X18001147Y-29210000D01*
X18079452Y-29603666D01*
X18302446Y-29937401D01*
X18636181Y-30160395D01*
X19029847Y-30238700D01*
X19070153Y-30238700D01*
X19463819Y-30160395D01*
X19797554Y-29937401D01*
X20020548Y-29603666D01*
X20098853Y-29210000D01*
X20020548Y-28816334D01*
X19797554Y-28482599D01*
X19463819Y-28259605D01*
X19070153Y-28181300D01*
X19029847Y-28181300D01*
X18636181Y-28259605D01*
X18302446Y-28482599D01*
X18079452Y-28816334D01*
X18001147Y-29210000D01*
X17558853Y-29210000D01*
X17480548Y-28816334D01*
X17257554Y-28482599D01*
X16923819Y-28259605D01*
X16530153Y-28181300D01*
X16489847Y-28181300D01*
X16096181Y-28259605D01*
X15762446Y-28482599D01*
X15539452Y-28816334D01*
X15461147Y-29210000D01*
X12915100Y-29210000D01*
X12915100Y-26670000D01*
X15461147Y-26670000D01*
X15539452Y-27063666D01*
X15762446Y-27397401D01*
X16096181Y-27620395D01*
X16489847Y-27698700D01*
X16530153Y-27698700D01*
X16923819Y-27620395D01*
X17257554Y-27397401D01*
X17480548Y-27063666D01*
X17558853Y-26670000D01*
X18001147Y-26670000D01*
X18079452Y-27063666D01*
X18302446Y-27397401D01*
X18636181Y-27620395D01*
X19029847Y-27698700D01*
X19070153Y-27698700D01*
X19463819Y-27620395D01*
X19797554Y-27397401D01*
X20020548Y-27063666D01*
X20098853Y-26670000D01*
X20020548Y-26276334D01*
X19797554Y-25942599D01*
X19463819Y-25719605D01*
X19070153Y-25641300D01*
X19029847Y-25641300D01*
X18636181Y-25719605D01*
X18302446Y-25942599D01*
X18079452Y-26276334D01*
X18001147Y-26670000D01*
X17558853Y-26670000D01*
X17480548Y-26276334D01*
X17257554Y-25942599D01*
X16923819Y-25719605D01*
X16530153Y-25641300D01*
X16489847Y-25641300D01*
X16096181Y-25719605D01*
X15762446Y-25942599D01*
X15539452Y-26276334D01*
X15461147Y-26670000D01*
X12915100Y-26670000D01*
X12915100Y-24130000D01*
X15461147Y-24130000D01*
X15539452Y-24523666D01*
X15762446Y-24857401D01*
X16096181Y-25080395D01*
X16489847Y-25158700D01*
X16530153Y-25158700D01*
X16923819Y-25080395D01*
X17257554Y-24857401D01*
X17480548Y-24523666D01*
X17558853Y-24130000D01*
X18001147Y-24130000D01*
X18079452Y-24523666D01*
X18302446Y-24857401D01*
X18636181Y-25080395D01*
X19029847Y-25158700D01*
X19070153Y-25158700D01*
X19463819Y-25080395D01*
X19797554Y-24857401D01*
X20020548Y-24523666D01*
X20098853Y-24130000D01*
X20020548Y-23736334D01*
X19797554Y-23402599D01*
X19463819Y-23179605D01*
X19070153Y-23101300D01*
X19029847Y-23101300D01*
X18636181Y-23179605D01*
X18302446Y-23402599D01*
X18079452Y-23736334D01*
X18001147Y-24130000D01*
X17558853Y-24130000D01*
X17480548Y-23736334D01*
X17257554Y-23402599D01*
X16923819Y-23179605D01*
X16530153Y-23101300D01*
X16489847Y-23101300D01*
X16096181Y-23179605D01*
X15762446Y-23402599D01*
X15539452Y-23736334D01*
X15461147Y-24130000D01*
X12915100Y-24130000D01*
X12915100Y-21590000D01*
X15461147Y-21590000D01*
X15539452Y-21983666D01*
X15762446Y-22317401D01*
X16096181Y-22540395D01*
X16489847Y-22618700D01*
X16530153Y-22618700D01*
X16923819Y-22540395D01*
X17257554Y-22317401D01*
X17480548Y-21983666D01*
X17558853Y-21590000D01*
X18001147Y-21590000D01*
X18079452Y-21983666D01*
X18302446Y-22317401D01*
X18636181Y-22540395D01*
X19029847Y-22618700D01*
X19070153Y-22618700D01*
X19463819Y-22540395D01*
X19797554Y-22317401D01*
X20020548Y-21983666D01*
X20098853Y-21590000D01*
X20020548Y-21196334D01*
X19797554Y-20862599D01*
X19463819Y-20639605D01*
X19070153Y-20561300D01*
X19029847Y-20561300D01*
X18636181Y-20639605D01*
X18302446Y-20862599D01*
X18079452Y-21196334D01*
X18001147Y-21590000D01*
X17558853Y-21590000D01*
X17480548Y-21196334D01*
X17257554Y-20862599D01*
X16923819Y-20639605D01*
X16530153Y-20561300D01*
X16489847Y-20561300D01*
X16096181Y-20639605D01*
X15762446Y-20862599D01*
X15539452Y-21196334D01*
X15461147Y-21590000D01*
X12915100Y-21590000D01*
X12915100Y-19050000D01*
X15461147Y-19050000D01*
X15539452Y-19443666D01*
X15762446Y-19777401D01*
X16096181Y-20000395D01*
X16489847Y-20078700D01*
X16530153Y-20078700D01*
X16923819Y-20000395D01*
X17257554Y-19777401D01*
X17480548Y-19443666D01*
X17558853Y-19050000D01*
X18001147Y-19050000D01*
X18079452Y-19443666D01*
X18302446Y-19777401D01*
X18636181Y-20000395D01*
X19029847Y-20078700D01*
X19070153Y-20078700D01*
X19463819Y-20000395D01*
X19797554Y-19777401D01*
X20020548Y-19443666D01*
X20098853Y-19050000D01*
X20020548Y-18656334D01*
X19797554Y-18322599D01*
X19463819Y-18099605D01*
X19070153Y-18021300D01*
X19029847Y-18021300D01*
X18636181Y-18099605D01*
X18302446Y-18322599D01*
X18079452Y-18656334D01*
X18001147Y-19050000D01*
X17558853Y-19050000D01*
X17480548Y-18656334D01*
X17257554Y-18322599D01*
X16923819Y-18099605D01*
X16530153Y-18021300D01*
X16489847Y-18021300D01*
X16096181Y-18099605D01*
X15762446Y-18322599D01*
X15539452Y-18656334D01*
X15461147Y-19050000D01*
X12915100Y-19050000D01*
X12915100Y-16510000D01*
X15461147Y-16510000D01*
X15539452Y-16903666D01*
X15762446Y-17237401D01*
X16096181Y-17460395D01*
X16489847Y-17538700D01*
X16530153Y-17538700D01*
X16923819Y-17460395D01*
X17257554Y-17237401D01*
X17441860Y-16961566D01*
X17741423Y-16961566D01*
X17805374Y-17116010D01*
X18132026Y-17546178D01*
X18598431Y-17818597D01*
X18808700Y-17742952D01*
X18808700Y-16751300D01*
X19291300Y-16751300D01*
X19291300Y-17742952D01*
X19501569Y-17818597D01*
X19967974Y-17546178D01*
X20294626Y-17116010D01*
X20358577Y-16961566D01*
X20280692Y-16751300D01*
X19291300Y-16751300D01*
X18808700Y-16751300D01*
X17819308Y-16751300D01*
X17741423Y-16961566D01*
X17441860Y-16961566D01*
X17480548Y-16903666D01*
X17558853Y-16510000D01*
X17480548Y-16116334D01*
X17441861Y-16058434D01*
X17741423Y-16058434D01*
X17819308Y-16268700D01*
X18808700Y-16268700D01*
X18808700Y-15277048D01*
X19291300Y-15277048D01*
X19291300Y-16268700D01*
X20280692Y-16268700D01*
X20358577Y-16058434D01*
X20294626Y-15903990D01*
X19967974Y-15473822D01*
X19501569Y-15201403D01*
X19291300Y-15277048D01*
X18808700Y-15277048D01*
X18598431Y-15201403D01*
X18132026Y-15473822D01*
X17805374Y-15903990D01*
X17741423Y-16058434D01*
X17441861Y-16058434D01*
X17257554Y-15782599D01*
X16923819Y-15559605D01*
X16530153Y-15481300D01*
X16489847Y-15481300D01*
X16096181Y-15559605D01*
X15762446Y-15782599D01*
X15539452Y-16116334D01*
X15461147Y-16510000D01*
X12915100Y-16510000D01*
X12915100Y-12915100D01*
X48247300Y-12915100D01*
X48247300Y-67094900D01*
X48247300Y-67094900D01*
G37*
X48247300Y-67094900D02*
X12915100Y-67094900D01*
X12915100Y-64770000D01*
X15461147Y-64770000D01*
X15539452Y-65163666D01*
X15762446Y-65497401D01*
X16096181Y-65720395D01*
X16489847Y-65798700D01*
X16530153Y-65798700D01*
X16923819Y-65720395D01*
X17257554Y-65497401D01*
X17480548Y-65163666D01*
X17484962Y-65141475D01*
X17665700Y-65141475D01*
X17665700Y-65737173D01*
X17744972Y-65928553D01*
X17891447Y-66075028D01*
X18082826Y-66154300D01*
X18678525Y-66154300D01*
X18808700Y-66024125D01*
X18808700Y-65011300D01*
X19291300Y-65011300D01*
X19291300Y-66024125D01*
X19421475Y-66154300D01*
X20017174Y-66154300D01*
X20208553Y-66075028D01*
X20355028Y-65928553D01*
X20434300Y-65737173D01*
X20434300Y-65141475D01*
X20304125Y-65011300D01*
X19291300Y-65011300D01*
X18808700Y-65011300D01*
X17795875Y-65011300D01*
X17665700Y-65141475D01*
X17484962Y-65141475D01*
X17558853Y-64770000D01*
X17480548Y-64376334D01*
X17257554Y-64042599D01*
X16923819Y-63819605D01*
X16839471Y-63802827D01*
X17665700Y-63802827D01*
X17665700Y-64398525D01*
X17795875Y-64528700D01*
X18808700Y-64528700D01*
X18808700Y-63515875D01*
X19291300Y-63515875D01*
X19291300Y-64528700D01*
X20304125Y-64528700D01*
X20434300Y-64398525D01*
X20434300Y-63906400D01*
X41487666Y-63906400D01*
X41487666Y-65633600D01*
X41500480Y-65698019D01*
X41536970Y-65752630D01*
X41591581Y-65789120D01*
X41656000Y-65801934D01*
X43688000Y-65801934D01*
X43752419Y-65789120D01*
X43807030Y-65752630D01*
X43843520Y-65698019D01*
X43856334Y-65633600D01*
X43856334Y-63906400D01*
X43843520Y-63841981D01*
X43807030Y-63787370D01*
X43752419Y-63750880D01*
X43688000Y-63738066D01*
X41656000Y-63738066D01*
X41591581Y-63750880D01*
X41536970Y-63787370D01*
X41500480Y-63841981D01*
X41487666Y-63906400D01*
X20434300Y-63906400D01*
X20434300Y-63802827D01*
X20355028Y-63611447D01*
X20208553Y-63464972D01*
X20017174Y-63385700D01*
X19421475Y-63385700D01*
X19291300Y-63515875D01*
X18808700Y-63515875D01*
X18678525Y-63385700D01*
X18082826Y-63385700D01*
X17891447Y-63464972D01*
X17744972Y-63611447D01*
X17665700Y-63802827D01*
X16839471Y-63802827D01*
X16530153Y-63741300D01*
X16489847Y-63741300D01*
X16096181Y-63819605D01*
X15762446Y-64042599D01*
X15539452Y-64376334D01*
X15461147Y-64770000D01*
X12915100Y-64770000D01*
X12915100Y-62681566D01*
X15201423Y-62681566D01*
X15265374Y-62836010D01*
X15592026Y-63266178D01*
X16058431Y-63538597D01*
X16268700Y-63462952D01*
X16268700Y-62471300D01*
X16751300Y-62471300D01*
X16751300Y-63462952D01*
X16961569Y-63538597D01*
X17427974Y-63266178D01*
X17754626Y-62836010D01*
X17818577Y-62681566D01*
X17740692Y-62471300D01*
X16751300Y-62471300D01*
X16268700Y-62471300D01*
X15279308Y-62471300D01*
X15201423Y-62681566D01*
X12915100Y-62681566D01*
X12915100Y-62230000D01*
X18001147Y-62230000D01*
X18079452Y-62623666D01*
X18302446Y-62957401D01*
X18636181Y-63180395D01*
X19029847Y-63258700D01*
X19070153Y-63258700D01*
X19463819Y-63180395D01*
X19797554Y-62957401D01*
X20020548Y-62623666D01*
X20098853Y-62230000D01*
X41467761Y-62230000D01*
X41546066Y-62623666D01*
X41769060Y-62957401D01*
X42102795Y-63180395D01*
X42496461Y-63258700D01*
X42847539Y-63258700D01*
X43241205Y-63180395D01*
X43574940Y-62957401D01*
X43797934Y-62623666D01*
X43876239Y-62230000D01*
X43797934Y-61836334D01*
X43574940Y-61502599D01*
X43241205Y-61279605D01*
X42847539Y-61201300D01*
X42496461Y-61201300D01*
X42102795Y-61279605D01*
X41769060Y-61502599D01*
X41546066Y-61836334D01*
X41467761Y-62230000D01*
X20098853Y-62230000D01*
X20020548Y-61836334D01*
X19797554Y-61502599D01*
X19463819Y-61279605D01*
X19070153Y-61201300D01*
X19029847Y-61201300D01*
X18636181Y-61279605D01*
X18302446Y-61502599D01*
X18079452Y-61836334D01*
X18001147Y-62230000D01*
X12915100Y-62230000D01*
X12915100Y-61778434D01*
X15201423Y-61778434D01*
X15279308Y-61988700D01*
X16268700Y-61988700D01*
X16268700Y-60997048D01*
X16751300Y-60997048D01*
X16751300Y-61988700D01*
X17740692Y-61988700D01*
X17818577Y-61778434D01*
X17754626Y-61623990D01*
X17427974Y-61193822D01*
X16961569Y-60921403D01*
X16751300Y-60997048D01*
X16268700Y-60997048D01*
X16058431Y-60921403D01*
X15592026Y-61193822D01*
X15265374Y-61623990D01*
X15201423Y-61778434D01*
X12915100Y-61778434D01*
X12915100Y-59690000D01*
X15461147Y-59690000D01*
X15539452Y-60083666D01*
X15762446Y-60417401D01*
X16096181Y-60640395D01*
X16489847Y-60718700D01*
X16530153Y-60718700D01*
X16923819Y-60640395D01*
X17257554Y-60417401D01*
X17480548Y-60083666D01*
X17558853Y-59690000D01*
X18001147Y-59690000D01*
X18079452Y-60083666D01*
X18302446Y-60417401D01*
X18636181Y-60640395D01*
X19029847Y-60718700D01*
X19070153Y-60718700D01*
X19463819Y-60640395D01*
X19797554Y-60417401D01*
X20003554Y-60109100D01*
X32512000Y-60109100D01*
X32672383Y-60077198D01*
X32808348Y-59986348D01*
X33104696Y-59690000D01*
X41467761Y-59690000D01*
X41546066Y-60083666D01*
X41769060Y-60417401D01*
X42102795Y-60640395D01*
X42496461Y-60718700D01*
X42847539Y-60718700D01*
X43241205Y-60640395D01*
X43574940Y-60417401D01*
X43797934Y-60083666D01*
X43876239Y-59690000D01*
X43797934Y-59296334D01*
X43574940Y-58962599D01*
X43241205Y-58739605D01*
X42847539Y-58661300D01*
X42496461Y-58661300D01*
X42102795Y-58739605D01*
X41769060Y-58962599D01*
X41546066Y-59296334D01*
X41467761Y-59690000D01*
X33104696Y-59690000D01*
X33951348Y-58843349D01*
X33996773Y-58775365D01*
X34042198Y-58707383D01*
X34074100Y-58547000D01*
X34074100Y-57150000D01*
X41467761Y-57150000D01*
X41546066Y-57543666D01*
X41769060Y-57877401D01*
X42102795Y-58100395D01*
X42496461Y-58178700D01*
X42847539Y-58178700D01*
X43241205Y-58100395D01*
X43574940Y-57877401D01*
X43797934Y-57543666D01*
X43876239Y-57150000D01*
X43797934Y-56756334D01*
X43574940Y-56422599D01*
X43241205Y-56199605D01*
X42847539Y-56121300D01*
X42496461Y-56121300D01*
X42102795Y-56199605D01*
X41769060Y-56422599D01*
X41546066Y-56756334D01*
X41467761Y-57150000D01*
X34074100Y-57150000D01*
X34074100Y-55283100D01*
X45720000Y-55283100D01*
X45880383Y-55251198D01*
X46016348Y-55160348D01*
X47667349Y-53509348D01*
X47758199Y-53373382D01*
X47790100Y-53213000D01*
X47790100Y-19939000D01*
X47758198Y-19778617D01*
X47721809Y-19724157D01*
X47667349Y-19642652D01*
X44873348Y-16848652D01*
X44873347Y-16848651D01*
X44737383Y-16757802D01*
X44577000Y-16725900D01*
X32004000Y-16725900D01*
X31843617Y-16757802D01*
X31789157Y-16794191D01*
X31707652Y-16848651D01*
X30945652Y-17610652D01*
X30854802Y-17746617D01*
X30822900Y-17907000D01*
X30822900Y-27813000D01*
X30854802Y-27973383D01*
X30945652Y-28109348D01*
X31081617Y-28200198D01*
X31242000Y-28232100D01*
X31402383Y-28200198D01*
X31538348Y-28109348D01*
X31629198Y-27973383D01*
X31661100Y-27813000D01*
X31661100Y-18080596D01*
X32177597Y-17564100D01*
X44403404Y-17564100D01*
X46951900Y-20112597D01*
X46951900Y-53039403D01*
X45546404Y-54444900D01*
X34074100Y-54444900D01*
X34074100Y-47067493D01*
X34279632Y-47067493D01*
X34339079Y-47211364D01*
X34449057Y-47321535D01*
X34592824Y-47381232D01*
X34685143Y-47381313D01*
X35676712Y-48372883D01*
X35676632Y-48464493D01*
X35736079Y-48608364D01*
X35846057Y-48718535D01*
X35989824Y-48778232D01*
X36145493Y-48778368D01*
X36289364Y-48718921D01*
X36399535Y-48608943D01*
X36459232Y-48465176D01*
X36459368Y-48309507D01*
X36399921Y-48165636D01*
X36289943Y-48055465D01*
X36146176Y-47995768D01*
X36053858Y-47995687D01*
X35062288Y-47004118D01*
X35062368Y-46912507D01*
X35002921Y-46768636D01*
X34892943Y-46658465D01*
X34749176Y-46598768D01*
X34593507Y-46598632D01*
X34449636Y-46658079D01*
X34339465Y-46768057D01*
X34279768Y-46911824D01*
X34279632Y-47067493D01*
X34074100Y-47067493D01*
X34074100Y-45543493D01*
X37708632Y-45543493D01*
X37768079Y-45687364D01*
X37833300Y-45752699D01*
X37833300Y-47338336D01*
X37768465Y-47403057D01*
X37708768Y-47546824D01*
X37708632Y-47702493D01*
X37768079Y-47846364D01*
X37878057Y-47956535D01*
X38021824Y-48016232D01*
X38177493Y-48016368D01*
X38321364Y-47956921D01*
X38431535Y-47846943D01*
X38491232Y-47703176D01*
X38491368Y-47547507D01*
X38431921Y-47403636D01*
X38366700Y-47338301D01*
X38366700Y-45752664D01*
X38431535Y-45687943D01*
X38491232Y-45544176D01*
X38491368Y-45388507D01*
X38431921Y-45244636D01*
X38321943Y-45134465D01*
X38178176Y-45074768D01*
X38022507Y-45074632D01*
X37878636Y-45134079D01*
X37768465Y-45244057D01*
X37708768Y-45387824D01*
X37708632Y-45543493D01*
X34074100Y-45543493D01*
X34074100Y-44196000D01*
X34042198Y-44035617D01*
X33951348Y-43899652D01*
X33815383Y-43808802D01*
X33655000Y-43776900D01*
X33494617Y-43808802D01*
X33358652Y-43899652D01*
X33267802Y-44035617D01*
X33235900Y-44196000D01*
X33235900Y-58373403D01*
X32338404Y-59270900D01*
X20003554Y-59270900D01*
X19797554Y-58962599D01*
X19463819Y-58739605D01*
X19070153Y-58661300D01*
X19029847Y-58661300D01*
X18636181Y-58739605D01*
X18302446Y-58962599D01*
X18079452Y-59296334D01*
X18001147Y-59690000D01*
X17558853Y-59690000D01*
X17480548Y-59296334D01*
X17257554Y-58962599D01*
X16923819Y-58739605D01*
X16530153Y-58661300D01*
X16489847Y-58661300D01*
X16096181Y-58739605D01*
X15762446Y-58962599D01*
X15539452Y-59296334D01*
X15461147Y-59690000D01*
X12915100Y-59690000D01*
X12915100Y-57150000D01*
X15461147Y-57150000D01*
X15539452Y-57543666D01*
X15762446Y-57877401D01*
X16096181Y-58100395D01*
X16489847Y-58178700D01*
X16530153Y-58178700D01*
X16923819Y-58100395D01*
X17257554Y-57877401D01*
X17480548Y-57543666D01*
X17558853Y-57150000D01*
X18001147Y-57150000D01*
X18079452Y-57543666D01*
X18302446Y-57877401D01*
X18636181Y-58100395D01*
X19029847Y-58178700D01*
X19070153Y-58178700D01*
X19463819Y-58100395D01*
X19797554Y-57877401D01*
X20020548Y-57543666D01*
X20098853Y-57150000D01*
X20020548Y-56756334D01*
X19797554Y-56422599D01*
X19463819Y-56199605D01*
X19070153Y-56121300D01*
X19029847Y-56121300D01*
X18636181Y-56199605D01*
X18302446Y-56422599D01*
X18079452Y-56756334D01*
X18001147Y-57150000D01*
X17558853Y-57150000D01*
X17480548Y-56756334D01*
X17257554Y-56422599D01*
X16923819Y-56199605D01*
X16530153Y-56121300D01*
X16489847Y-56121300D01*
X16096181Y-56199605D01*
X15762446Y-56422599D01*
X15539452Y-56756334D01*
X15461147Y-57150000D01*
X12915100Y-57150000D01*
X12915100Y-54610000D01*
X15461147Y-54610000D01*
X15539452Y-55003666D01*
X15762446Y-55337401D01*
X16096181Y-55560395D01*
X16489847Y-55638700D01*
X16530153Y-55638700D01*
X16923819Y-55560395D01*
X17257554Y-55337401D01*
X17480548Y-55003666D01*
X17558853Y-54610000D01*
X18001147Y-54610000D01*
X18079452Y-55003666D01*
X18302446Y-55337401D01*
X18636181Y-55560395D01*
X19029847Y-55638700D01*
X19070153Y-55638700D01*
X19463819Y-55560395D01*
X19797554Y-55337401D01*
X20020548Y-55003666D01*
X20098853Y-54610000D01*
X20020548Y-54216334D01*
X19797554Y-53882599D01*
X19463819Y-53659605D01*
X19070153Y-53581300D01*
X19029847Y-53581300D01*
X18636181Y-53659605D01*
X18302446Y-53882599D01*
X18079452Y-54216334D01*
X18001147Y-54610000D01*
X17558853Y-54610000D01*
X17480548Y-54216334D01*
X17257554Y-53882599D01*
X16923819Y-53659605D01*
X16530153Y-53581300D01*
X16489847Y-53581300D01*
X16096181Y-53659605D01*
X15762446Y-53882599D01*
X15539452Y-54216334D01*
X15461147Y-54610000D01*
X12915100Y-54610000D01*
X12915100Y-52521566D01*
X15201423Y-52521566D01*
X15265374Y-52676010D01*
X15592026Y-53106178D01*
X16058431Y-53378597D01*
X16268700Y-53302952D01*
X16268700Y-52311300D01*
X16751300Y-52311300D01*
X16751300Y-53302952D01*
X16961569Y-53378597D01*
X17427974Y-53106178D01*
X17754626Y-52676010D01*
X17818577Y-52521566D01*
X17740692Y-52311300D01*
X16751300Y-52311300D01*
X16268700Y-52311300D01*
X15279308Y-52311300D01*
X15201423Y-52521566D01*
X12915100Y-52521566D01*
X12915100Y-52070000D01*
X18001147Y-52070000D01*
X18079452Y-52463666D01*
X18302446Y-52797401D01*
X18636181Y-53020395D01*
X19029847Y-53098700D01*
X19070153Y-53098700D01*
X19463819Y-53020395D01*
X19797554Y-52797401D01*
X20020548Y-52463666D01*
X20098853Y-52070000D01*
X20020548Y-51676334D01*
X19797554Y-51342599D01*
X19463819Y-51119605D01*
X19070153Y-51041300D01*
X19029847Y-51041300D01*
X18636181Y-51119605D01*
X18302446Y-51342599D01*
X18079452Y-51676334D01*
X18001147Y-52070000D01*
X12915100Y-52070000D01*
X12915100Y-51618434D01*
X15201423Y-51618434D01*
X15279308Y-51828700D01*
X16268700Y-51828700D01*
X16268700Y-50837048D01*
X16751300Y-50837048D01*
X16751300Y-51828700D01*
X17740692Y-51828700D01*
X17818577Y-51618434D01*
X17754626Y-51463990D01*
X17427974Y-51033822D01*
X16961569Y-50761403D01*
X16751300Y-50837048D01*
X16268700Y-50837048D01*
X16058431Y-50761403D01*
X15592026Y-51033822D01*
X15265374Y-51463990D01*
X15201423Y-51618434D01*
X12915100Y-51618434D01*
X12915100Y-49530000D01*
X15461147Y-49530000D01*
X15539452Y-49923666D01*
X15762446Y-50257401D01*
X16096181Y-50480395D01*
X16489847Y-50558700D01*
X16530153Y-50558700D01*
X16923819Y-50480395D01*
X17257554Y-50257401D01*
X17480548Y-49923666D01*
X17558853Y-49530000D01*
X18001147Y-49530000D01*
X18079452Y-49923666D01*
X18302446Y-50257401D01*
X18636181Y-50480395D01*
X19029847Y-50558700D01*
X19070153Y-50558700D01*
X19463819Y-50480395D01*
X19797554Y-50257401D01*
X20020548Y-49923666D01*
X20098853Y-49530000D01*
X20020548Y-49136334D01*
X19797554Y-48802599D01*
X19463819Y-48579605D01*
X19070153Y-48501300D01*
X19029847Y-48501300D01*
X18636181Y-48579605D01*
X18302446Y-48802599D01*
X18079452Y-49136334D01*
X18001147Y-49530000D01*
X17558853Y-49530000D01*
X17480548Y-49136334D01*
X17257554Y-48802599D01*
X16923819Y-48579605D01*
X16530153Y-48501300D01*
X16489847Y-48501300D01*
X16096181Y-48579605D01*
X15762446Y-48802599D01*
X15539452Y-49136334D01*
X15461147Y-49530000D01*
X12915100Y-49530000D01*
X12915100Y-46990000D01*
X15461147Y-46990000D01*
X15539452Y-47383666D01*
X15762446Y-47717401D01*
X16096181Y-47940395D01*
X16489847Y-48018700D01*
X16530153Y-48018700D01*
X16923819Y-47940395D01*
X17257554Y-47717401D01*
X17480548Y-47383666D01*
X17558853Y-46990000D01*
X18001147Y-46990000D01*
X18079452Y-47383666D01*
X18302446Y-47717401D01*
X18636181Y-47940395D01*
X19029847Y-48018700D01*
X19070153Y-48018700D01*
X19463819Y-47940395D01*
X19797554Y-47717401D01*
X20020548Y-47383666D01*
X20098853Y-46990000D01*
X20020548Y-46596334D01*
X19797554Y-46262599D01*
X19463819Y-46039605D01*
X19070153Y-45961300D01*
X19029847Y-45961300D01*
X18636181Y-46039605D01*
X18302446Y-46262599D01*
X18079452Y-46596334D01*
X18001147Y-46990000D01*
X17558853Y-46990000D01*
X17480548Y-46596334D01*
X17257554Y-46262599D01*
X16923819Y-46039605D01*
X16530153Y-45961300D01*
X16489847Y-45961300D01*
X16096181Y-46039605D01*
X15762446Y-46262599D01*
X15539452Y-46596334D01*
X15461147Y-46990000D01*
X12915100Y-46990000D01*
X12915100Y-44450000D01*
X15461147Y-44450000D01*
X15539452Y-44843666D01*
X15762446Y-45177401D01*
X16096181Y-45400395D01*
X16489847Y-45478700D01*
X16530153Y-45478700D01*
X16923819Y-45400395D01*
X17257554Y-45177401D01*
X17480548Y-44843666D01*
X17558853Y-44450000D01*
X18001147Y-44450000D01*
X18079452Y-44843666D01*
X18302446Y-45177401D01*
X18636181Y-45400395D01*
X19029847Y-45478700D01*
X19070153Y-45478700D01*
X19463819Y-45400395D01*
X19797554Y-45177401D01*
X20020548Y-44843666D01*
X20098853Y-44450000D01*
X20020548Y-44056334D01*
X19797554Y-43722599D01*
X19463819Y-43499605D01*
X19070153Y-43421300D01*
X19029847Y-43421300D01*
X18636181Y-43499605D01*
X18302446Y-43722599D01*
X18079452Y-44056334D01*
X18001147Y-44450000D01*
X17558853Y-44450000D01*
X17480548Y-44056334D01*
X17257554Y-43722599D01*
X16923819Y-43499605D01*
X16530153Y-43421300D01*
X16489847Y-43421300D01*
X16096181Y-43499605D01*
X15762446Y-43722599D01*
X15539452Y-44056334D01*
X15461147Y-44450000D01*
X12915100Y-44450000D01*
X12915100Y-41910000D01*
X15461147Y-41910000D01*
X15539452Y-42303666D01*
X15762446Y-42637401D01*
X16096181Y-42860395D01*
X16489847Y-42938700D01*
X16530153Y-42938700D01*
X16923819Y-42860395D01*
X17257554Y-42637401D01*
X17480548Y-42303666D01*
X17558853Y-41910000D01*
X18001147Y-41910000D01*
X18079452Y-42303666D01*
X18302446Y-42637401D01*
X18636181Y-42860395D01*
X19029847Y-42938700D01*
X19070153Y-42938700D01*
X19463819Y-42860395D01*
X19797554Y-42637401D01*
X20020548Y-42303666D01*
X20098853Y-41910000D01*
X20020548Y-41516334D01*
X19797554Y-41182599D01*
X19463819Y-40959605D01*
X19070153Y-40881300D01*
X19029847Y-40881300D01*
X18636181Y-40959605D01*
X18302446Y-41182599D01*
X18079452Y-41516334D01*
X18001147Y-41910000D01*
X17558853Y-41910000D01*
X17480548Y-41516334D01*
X17257554Y-41182599D01*
X16923819Y-40959605D01*
X16530153Y-40881300D01*
X16489847Y-40881300D01*
X16096181Y-40959605D01*
X15762446Y-41182599D01*
X15539452Y-41516334D01*
X15461147Y-41910000D01*
X12915100Y-41910000D01*
X12915100Y-39370000D01*
X15461147Y-39370000D01*
X15539452Y-39763666D01*
X15762446Y-40097401D01*
X16096181Y-40320395D01*
X16489847Y-40398700D01*
X16530153Y-40398700D01*
X16923819Y-40320395D01*
X17257554Y-40097401D01*
X17480548Y-39763666D01*
X17558853Y-39370000D01*
X18001147Y-39370000D01*
X18079452Y-39763666D01*
X18302446Y-40097401D01*
X18636181Y-40320395D01*
X19029847Y-40398700D01*
X19070153Y-40398700D01*
X19463819Y-40320395D01*
X19797554Y-40097401D01*
X20020548Y-39763666D01*
X20098853Y-39370000D01*
X20020548Y-38976334D01*
X19797554Y-38642599D01*
X19463819Y-38419605D01*
X19070153Y-38341300D01*
X19029847Y-38341300D01*
X18636181Y-38419605D01*
X18302446Y-38642599D01*
X18079452Y-38976334D01*
X18001147Y-39370000D01*
X17558853Y-39370000D01*
X17480548Y-38976334D01*
X17257554Y-38642599D01*
X16923819Y-38419605D01*
X16530153Y-38341300D01*
X16489847Y-38341300D01*
X16096181Y-38419605D01*
X15762446Y-38642599D01*
X15539452Y-38976334D01*
X15461147Y-39370000D01*
X12915100Y-39370000D01*
X12915100Y-36830000D01*
X15461147Y-36830000D01*
X15539452Y-37223666D01*
X15762446Y-37557401D01*
X16096181Y-37780395D01*
X16489847Y-37858700D01*
X16530153Y-37858700D01*
X16923819Y-37780395D01*
X17257554Y-37557401D01*
X17480548Y-37223666D01*
X17558853Y-36830000D01*
X18001147Y-36830000D01*
X18079452Y-37223666D01*
X18302446Y-37557401D01*
X18636181Y-37780395D01*
X19029847Y-37858700D01*
X19070153Y-37858700D01*
X19463819Y-37780395D01*
X19797554Y-37557401D01*
X20020548Y-37223666D01*
X20098853Y-36830000D01*
X20020548Y-36436334D01*
X19797554Y-36102599D01*
X19463819Y-35879605D01*
X19070153Y-35801300D01*
X19029847Y-35801300D01*
X18636181Y-35879605D01*
X18302446Y-36102599D01*
X18079452Y-36436334D01*
X18001147Y-36830000D01*
X17558853Y-36830000D01*
X17480548Y-36436334D01*
X17257554Y-36102599D01*
X16923819Y-35879605D01*
X16530153Y-35801300D01*
X16489847Y-35801300D01*
X16096181Y-35879605D01*
X15762446Y-36102599D01*
X15539452Y-36436334D01*
X15461147Y-36830000D01*
X12915100Y-36830000D01*
X12915100Y-34290000D01*
X15461147Y-34290000D01*
X15539452Y-34683666D01*
X15762446Y-35017401D01*
X16096181Y-35240395D01*
X16489847Y-35318700D01*
X16530153Y-35318700D01*
X16923819Y-35240395D01*
X17257554Y-35017401D01*
X17480548Y-34683666D01*
X17558853Y-34290000D01*
X18001147Y-34290000D01*
X18079452Y-34683666D01*
X18302446Y-35017401D01*
X18636181Y-35240395D01*
X19029847Y-35318700D01*
X19070153Y-35318700D01*
X19463819Y-35240395D01*
X19797554Y-35017401D01*
X20020548Y-34683666D01*
X20098853Y-34290000D01*
X20020548Y-33896334D01*
X19797554Y-33562599D01*
X19463819Y-33339605D01*
X19070153Y-33261300D01*
X19029847Y-33261300D01*
X18636181Y-33339605D01*
X18302446Y-33562599D01*
X18079452Y-33896334D01*
X18001147Y-34290000D01*
X17558853Y-34290000D01*
X17480548Y-33896334D01*
X17257554Y-33562599D01*
X16923819Y-33339605D01*
X16530153Y-33261300D01*
X16489847Y-33261300D01*
X16096181Y-33339605D01*
X15762446Y-33562599D01*
X15539452Y-33896334D01*
X15461147Y-34290000D01*
X12915100Y-34290000D01*
X12915100Y-31750000D01*
X15461147Y-31750000D01*
X15539452Y-32143666D01*
X15762446Y-32477401D01*
X16096181Y-32700395D01*
X16489847Y-32778700D01*
X16530153Y-32778700D01*
X16923819Y-32700395D01*
X17257554Y-32477401D01*
X17480548Y-32143666D01*
X17558853Y-31750000D01*
X18001147Y-31750000D01*
X18079452Y-32143666D01*
X18302446Y-32477401D01*
X18636181Y-32700395D01*
X19029847Y-32778700D01*
X19070153Y-32778700D01*
X19463819Y-32700395D01*
X19797554Y-32477401D01*
X20020548Y-32143666D01*
X20098853Y-31750000D01*
X20020548Y-31356334D01*
X19797554Y-31022599D01*
X19463819Y-30799605D01*
X19070153Y-30721300D01*
X19029847Y-30721300D01*
X18636181Y-30799605D01*
X18302446Y-31022599D01*
X18079452Y-31356334D01*
X18001147Y-31750000D01*
X17558853Y-31750000D01*
X17480548Y-31356334D01*
X17257554Y-31022599D01*
X16923819Y-30799605D01*
X16530153Y-30721300D01*
X16489847Y-30721300D01*
X16096181Y-30799605D01*
X15762446Y-31022599D01*
X15539452Y-31356334D01*
X15461147Y-31750000D01*
X12915100Y-31750000D01*
X12915100Y-30557493D01*
X28818632Y-30557493D01*
X28878079Y-30701364D01*
X28943300Y-30766699D01*
X28943300Y-41402000D01*
X28950665Y-41439029D01*
X28945768Y-41450824D01*
X28945632Y-41606493D01*
X29005079Y-41750364D01*
X29115057Y-41860535D01*
X29258824Y-41920232D01*
X29414493Y-41920368D01*
X29558364Y-41860921D01*
X29668535Y-41750943D01*
X29728232Y-41607176D01*
X29728368Y-41451507D01*
X29700814Y-41384822D01*
X29766824Y-41412232D01*
X29922493Y-41412368D01*
X30066364Y-41352921D01*
X30176535Y-41242943D01*
X30213300Y-41154403D01*
X30213300Y-42385336D01*
X30148465Y-42450057D01*
X30088768Y-42593824D01*
X30088632Y-42749493D01*
X30148079Y-42893364D01*
X30258057Y-43003535D01*
X30401824Y-43063232D01*
X30557493Y-43063368D01*
X30701364Y-43003921D01*
X30811535Y-42893943D01*
X30871232Y-42750176D01*
X30871368Y-42594507D01*
X30811921Y-42450636D01*
X30746700Y-42385301D01*
X30746700Y-42297321D01*
X30783079Y-42385364D01*
X30893057Y-42495535D01*
X31036824Y-42555232D01*
X31192493Y-42555368D01*
X31336364Y-42495921D01*
X31446535Y-42385943D01*
X31506232Y-42242176D01*
X31506368Y-42086507D01*
X31446921Y-41942636D01*
X31381700Y-41877301D01*
X31381700Y-30766664D01*
X31446535Y-30701943D01*
X31506232Y-30558176D01*
X31506368Y-30402507D01*
X31446921Y-30258636D01*
X31336943Y-30148465D01*
X31193176Y-30088768D01*
X31037507Y-30088632D01*
X30893636Y-30148079D01*
X30797428Y-30244118D01*
X30701943Y-30148465D01*
X30558176Y-30088768D01*
X30402507Y-30088632D01*
X30258636Y-30148079D01*
X30162428Y-30244118D01*
X30066943Y-30148465D01*
X29923176Y-30088768D01*
X29767507Y-30088632D01*
X29623636Y-30148079D01*
X29527428Y-30244118D01*
X29431943Y-30148465D01*
X29288176Y-30088768D01*
X29132507Y-30088632D01*
X28988636Y-30148079D01*
X28878465Y-30258057D01*
X28818768Y-30401824D01*
X28818632Y-30557493D01*
X12915100Y-30557493D01*
X12915100Y-29210000D01*
X15461147Y-29210000D01*
X15539452Y-29603666D01*
X15762446Y-29937401D01*
X16096181Y-30160395D01*
X16489847Y-30238700D01*
X16530153Y-30238700D01*
X16923819Y-30160395D01*
X17257554Y-29937401D01*
X17480548Y-29603666D01*
X17558853Y-29210000D01*
X18001147Y-29210000D01*
X18079452Y-29603666D01*
X18302446Y-29937401D01*
X18636181Y-30160395D01*
X19029847Y-30238700D01*
X19070153Y-30238700D01*
X19463819Y-30160395D01*
X19797554Y-29937401D01*
X20020548Y-29603666D01*
X20098853Y-29210000D01*
X20020548Y-28816334D01*
X19797554Y-28482599D01*
X19463819Y-28259605D01*
X19070153Y-28181300D01*
X19029847Y-28181300D01*
X18636181Y-28259605D01*
X18302446Y-28482599D01*
X18079452Y-28816334D01*
X18001147Y-29210000D01*
X17558853Y-29210000D01*
X17480548Y-28816334D01*
X17257554Y-28482599D01*
X16923819Y-28259605D01*
X16530153Y-28181300D01*
X16489847Y-28181300D01*
X16096181Y-28259605D01*
X15762446Y-28482599D01*
X15539452Y-28816334D01*
X15461147Y-29210000D01*
X12915100Y-29210000D01*
X12915100Y-26670000D01*
X15461147Y-26670000D01*
X15539452Y-27063666D01*
X15762446Y-27397401D01*
X16096181Y-27620395D01*
X16489847Y-27698700D01*
X16530153Y-27698700D01*
X16923819Y-27620395D01*
X17257554Y-27397401D01*
X17480548Y-27063666D01*
X17558853Y-26670000D01*
X18001147Y-26670000D01*
X18079452Y-27063666D01*
X18302446Y-27397401D01*
X18636181Y-27620395D01*
X19029847Y-27698700D01*
X19070153Y-27698700D01*
X19463819Y-27620395D01*
X19797554Y-27397401D01*
X20020548Y-27063666D01*
X20098853Y-26670000D01*
X20020548Y-26276334D01*
X19797554Y-25942599D01*
X19463819Y-25719605D01*
X19070153Y-25641300D01*
X19029847Y-25641300D01*
X18636181Y-25719605D01*
X18302446Y-25942599D01*
X18079452Y-26276334D01*
X18001147Y-26670000D01*
X17558853Y-26670000D01*
X17480548Y-26276334D01*
X17257554Y-25942599D01*
X16923819Y-25719605D01*
X16530153Y-25641300D01*
X16489847Y-25641300D01*
X16096181Y-25719605D01*
X15762446Y-25942599D01*
X15539452Y-26276334D01*
X15461147Y-26670000D01*
X12915100Y-26670000D01*
X12915100Y-24130000D01*
X15461147Y-24130000D01*
X15539452Y-24523666D01*
X15762446Y-24857401D01*
X16096181Y-25080395D01*
X16489847Y-25158700D01*
X16530153Y-25158700D01*
X16923819Y-25080395D01*
X17257554Y-24857401D01*
X17480548Y-24523666D01*
X17558853Y-24130000D01*
X18001147Y-24130000D01*
X18079452Y-24523666D01*
X18302446Y-24857401D01*
X18636181Y-25080395D01*
X19029847Y-25158700D01*
X19070153Y-25158700D01*
X19463819Y-25080395D01*
X19797554Y-24857401D01*
X20020548Y-24523666D01*
X20098853Y-24130000D01*
X20020548Y-23736334D01*
X19797554Y-23402599D01*
X19463819Y-23179605D01*
X19070153Y-23101300D01*
X19029847Y-23101300D01*
X18636181Y-23179605D01*
X18302446Y-23402599D01*
X18079452Y-23736334D01*
X18001147Y-24130000D01*
X17558853Y-24130000D01*
X17480548Y-23736334D01*
X17257554Y-23402599D01*
X16923819Y-23179605D01*
X16530153Y-23101300D01*
X16489847Y-23101300D01*
X16096181Y-23179605D01*
X15762446Y-23402599D01*
X15539452Y-23736334D01*
X15461147Y-24130000D01*
X12915100Y-24130000D01*
X12915100Y-21590000D01*
X15461147Y-21590000D01*
X15539452Y-21983666D01*
X15762446Y-22317401D01*
X16096181Y-22540395D01*
X16489847Y-22618700D01*
X16530153Y-22618700D01*
X16923819Y-22540395D01*
X17257554Y-22317401D01*
X17480548Y-21983666D01*
X17558853Y-21590000D01*
X18001147Y-21590000D01*
X18079452Y-21983666D01*
X18302446Y-22317401D01*
X18636181Y-22540395D01*
X19029847Y-22618700D01*
X19070153Y-22618700D01*
X19463819Y-22540395D01*
X19797554Y-22317401D01*
X20020548Y-21983666D01*
X20098853Y-21590000D01*
X20020548Y-21196334D01*
X19797554Y-20862599D01*
X19463819Y-20639605D01*
X19070153Y-20561300D01*
X19029847Y-20561300D01*
X18636181Y-20639605D01*
X18302446Y-20862599D01*
X18079452Y-21196334D01*
X18001147Y-21590000D01*
X17558853Y-21590000D01*
X17480548Y-21196334D01*
X17257554Y-20862599D01*
X16923819Y-20639605D01*
X16530153Y-20561300D01*
X16489847Y-20561300D01*
X16096181Y-20639605D01*
X15762446Y-20862599D01*
X15539452Y-21196334D01*
X15461147Y-21590000D01*
X12915100Y-21590000D01*
X12915100Y-19050000D01*
X15461147Y-19050000D01*
X15539452Y-19443666D01*
X15762446Y-19777401D01*
X16096181Y-20000395D01*
X16489847Y-20078700D01*
X16530153Y-20078700D01*
X16923819Y-20000395D01*
X17257554Y-19777401D01*
X17480548Y-19443666D01*
X17558853Y-19050000D01*
X18001147Y-19050000D01*
X18079452Y-19443666D01*
X18302446Y-19777401D01*
X18636181Y-20000395D01*
X19029847Y-20078700D01*
X19070153Y-20078700D01*
X19463819Y-20000395D01*
X19797554Y-19777401D01*
X20020548Y-19443666D01*
X20098853Y-19050000D01*
X20020548Y-18656334D01*
X19797554Y-18322599D01*
X19463819Y-18099605D01*
X19070153Y-18021300D01*
X19029847Y-18021300D01*
X18636181Y-18099605D01*
X18302446Y-18322599D01*
X18079452Y-18656334D01*
X18001147Y-19050000D01*
X17558853Y-19050000D01*
X17480548Y-18656334D01*
X17257554Y-18322599D01*
X16923819Y-18099605D01*
X16530153Y-18021300D01*
X16489847Y-18021300D01*
X16096181Y-18099605D01*
X15762446Y-18322599D01*
X15539452Y-18656334D01*
X15461147Y-19050000D01*
X12915100Y-19050000D01*
X12915100Y-16510000D01*
X15461147Y-16510000D01*
X15539452Y-16903666D01*
X15762446Y-17237401D01*
X16096181Y-17460395D01*
X16489847Y-17538700D01*
X16530153Y-17538700D01*
X16923819Y-17460395D01*
X17257554Y-17237401D01*
X17441860Y-16961566D01*
X17741423Y-16961566D01*
X17805374Y-17116010D01*
X18132026Y-17546178D01*
X18598431Y-17818597D01*
X18808700Y-17742952D01*
X18808700Y-16751300D01*
X19291300Y-16751300D01*
X19291300Y-17742952D01*
X19501569Y-17818597D01*
X19967974Y-17546178D01*
X20294626Y-17116010D01*
X20358577Y-16961566D01*
X20280692Y-16751300D01*
X19291300Y-16751300D01*
X18808700Y-16751300D01*
X17819308Y-16751300D01*
X17741423Y-16961566D01*
X17441860Y-16961566D01*
X17480548Y-16903666D01*
X17558853Y-16510000D01*
X17480548Y-16116334D01*
X17441861Y-16058434D01*
X17741423Y-16058434D01*
X17819308Y-16268700D01*
X18808700Y-16268700D01*
X18808700Y-15277048D01*
X19291300Y-15277048D01*
X19291300Y-16268700D01*
X20280692Y-16268700D01*
X20358577Y-16058434D01*
X20294626Y-15903990D01*
X19967974Y-15473822D01*
X19501569Y-15201403D01*
X19291300Y-15277048D01*
X18808700Y-15277048D01*
X18598431Y-15201403D01*
X18132026Y-15473822D01*
X17805374Y-15903990D01*
X17741423Y-16058434D01*
X17441861Y-16058434D01*
X17257554Y-15782599D01*
X16923819Y-15559605D01*
X16530153Y-15481300D01*
X16489847Y-15481300D01*
X16096181Y-15559605D01*
X15762446Y-15782599D01*
X15539452Y-16116334D01*
X15461147Y-16510000D01*
X12915100Y-16510000D01*
X12915100Y-12915100D01*
X48247300Y-12915100D01*
X48247300Y-67094900D01*
M02*
