G04 #@! TF.FileFunction,Soldermask,Bot*
%FSLAX46Y46*%
G04 Gerber Fmt 4.6, Leading zero omitted, Abs format (unit mm)*
G04 Created by KiCad (PCBNEW (2016-05-30 BZR 6864, Git 09dc517)-product) date 06/20/16 14:34:37*
%MOMM*%
%LPD*%
G01*
G04 APERTURE LIST*
%ADD10C,0.100000*%
%ADD11R,4.200000X3.200000*%
%ADD12R,1.727200X2.032000*%
%ADD13O,1.727200X2.032000*%
%ADD14R,2.032000X2.032000*%
%ADD15O,2.032000X2.032000*%
%ADD16R,1.727200X1.727200*%
%ADD17O,1.727200X1.727200*%
%ADD18C,1.700000*%
%ADD19R,2.032000X1.727200*%
%ADD20O,2.032000X1.727200*%
G04 APERTURE END LIST*
D10*
D11*
X63500000Y-88310000D03*
X63500000Y-59010000D03*
D12*
X71120000Y-50800000D03*
D13*
X68580000Y-50800000D03*
X66040000Y-50800000D03*
X63500000Y-50800000D03*
D14*
X61976000Y-15367000D03*
D15*
X59436000Y-15367000D03*
D16*
X19050000Y-64770000D03*
D17*
X16510000Y-64770000D03*
X19050000Y-62230000D03*
X16510000Y-62230000D03*
X19050000Y-59690000D03*
X16510000Y-59690000D03*
X19050000Y-57150000D03*
X16510000Y-57150000D03*
X19050000Y-54610000D03*
X16510000Y-54610000D03*
X19050000Y-52070000D03*
X16510000Y-52070000D03*
X19050000Y-49530000D03*
X16510000Y-49530000D03*
X19050000Y-46990000D03*
X16510000Y-46990000D03*
X19050000Y-44450000D03*
X16510000Y-44450000D03*
X19050000Y-41910000D03*
X16510000Y-41910000D03*
X19050000Y-39370000D03*
X16510000Y-39370000D03*
X19050000Y-36830000D03*
X16510000Y-36830000D03*
X19050000Y-34290000D03*
X16510000Y-34290000D03*
X19050000Y-31750000D03*
X16510000Y-31750000D03*
X19050000Y-29210000D03*
X16510000Y-29210000D03*
X19050000Y-26670000D03*
X16510000Y-26670000D03*
X19050000Y-24130000D03*
X16510000Y-24130000D03*
X19050000Y-21590000D03*
X16510000Y-21590000D03*
X19050000Y-19050000D03*
X16510000Y-19050000D03*
X19050000Y-16510000D03*
X16510000Y-16510000D03*
D18*
X76454000Y-25034000D03*
X76454000Y-18034000D03*
D19*
X81280000Y-68580000D03*
D20*
X81280000Y-71120000D03*
X81280000Y-73660000D03*
X81280000Y-76200000D03*
X81280000Y-78740000D03*
D19*
X76200000Y-40005000D03*
D20*
X76200000Y-42545000D03*
X76200000Y-45085000D03*
D19*
X42672000Y-64770000D03*
D20*
X42672000Y-62230000D03*
X42672000Y-59690000D03*
X42672000Y-57150000D03*
M02*
