G04 #@! TF.FileFunction,Legend,Bot*
%FSLAX46Y46*%
G04 Gerber Fmt 4.6, Leading zero omitted, Abs format (unit mm)*
G04 Created by KiCad (PCBNEW (2016-04-11 BZR 6687, Git f239aee)-product) date 7/7/2016 5:08:46 PM*
%MOMM*%
G01*
G04 APERTURE LIST*
%ADD10C,0.100000*%
%ADD11C,0.150000*%
G04 APERTURE END LIST*
D10*
D11*
X46384595Y-34790000D02*
X46289357Y-34837619D01*
X46146500Y-34837619D01*
X46003642Y-34790000D01*
X45908404Y-34694761D01*
X45860785Y-34599523D01*
X45813166Y-34409047D01*
X45813166Y-34266190D01*
X45860785Y-34075714D01*
X45908404Y-33980476D01*
X46003642Y-33885238D01*
X46146500Y-33837619D01*
X46241738Y-33837619D01*
X46384595Y-33885238D01*
X46432214Y-33932857D01*
X46432214Y-34266190D01*
X46241738Y-34266190D01*
X46860785Y-33837619D02*
X46860785Y-34837619D01*
X47432214Y-33837619D01*
X47432214Y-34837619D01*
X47908404Y-33837619D02*
X47908404Y-34837619D01*
X48146500Y-34837619D01*
X48289357Y-34790000D01*
X48384595Y-34694761D01*
X48432214Y-34599523D01*
X48479833Y-34409047D01*
X48479833Y-34266190D01*
X48432214Y-34075714D01*
X48384595Y-33980476D01*
X48289357Y-33885238D01*
X48146500Y-33837619D01*
X47908404Y-33837619D01*
X42932023Y-26217619D02*
X42932023Y-27217619D01*
X42932023Y-26741428D02*
X43503452Y-26741428D01*
X43503452Y-26217619D02*
X43503452Y-27217619D01*
X43979642Y-26217619D02*
X43979642Y-27217619D01*
X44360595Y-27217619D01*
X44455833Y-27170000D01*
X44503452Y-27122380D01*
X44551071Y-27027142D01*
X44551071Y-26884285D01*
X44503452Y-26789047D01*
X44455833Y-26741428D01*
X44360595Y-26693809D01*
X43979642Y-26693809D01*
X44741547Y-26122380D02*
X45503452Y-26122380D01*
X46265357Y-27170000D02*
X46170119Y-27217619D01*
X46027261Y-27217619D01*
X45884404Y-27170000D01*
X45789166Y-27074761D01*
X45741547Y-26979523D01*
X45693928Y-26789047D01*
X45693928Y-26646190D01*
X45741547Y-26455714D01*
X45789166Y-26360476D01*
X45884404Y-26265238D01*
X46027261Y-26217619D01*
X46122500Y-26217619D01*
X46265357Y-26265238D01*
X46312976Y-26312857D01*
X46312976Y-26646190D01*
X46122500Y-26646190D01*
X46741547Y-26217619D02*
X46741547Y-27217619D01*
X47312976Y-26217619D01*
X47312976Y-27217619D01*
X47789166Y-26217619D02*
X47789166Y-27217619D01*
X48027261Y-27217619D01*
X48170119Y-27170000D01*
X48265357Y-27074761D01*
X48312976Y-26979523D01*
X48360595Y-26789047D01*
X48360595Y-26646190D01*
X48312976Y-26455714D01*
X48265357Y-26360476D01*
X48170119Y-26265238D01*
X48027261Y-26217619D01*
X47789166Y-26217619D01*
X62174380Y-58036880D02*
X61174380Y-58036880D01*
X62174380Y-58513071D02*
X61174380Y-58513071D01*
X61888666Y-58846404D01*
X61174380Y-59179738D01*
X62174380Y-59179738D01*
X62174380Y-60179738D02*
X62174380Y-59608309D01*
X62174380Y-59894023D02*
X61174380Y-59894023D01*
X61317238Y-59798785D01*
X61412476Y-59703547D01*
X61460095Y-59608309D01*
X64714380Y-58036880D02*
X63714380Y-58036880D01*
X64714380Y-58513071D02*
X63714380Y-58513071D01*
X64428666Y-58846404D01*
X63714380Y-59179738D01*
X64714380Y-59179738D01*
X63714380Y-59846404D02*
X63714380Y-59941642D01*
X63762000Y-60036880D01*
X63809619Y-60084500D01*
X63904857Y-60132119D01*
X64095333Y-60179738D01*
X64333428Y-60179738D01*
X64523904Y-60132119D01*
X64619142Y-60084500D01*
X64666761Y-60036880D01*
X64714380Y-59941642D01*
X64714380Y-59846404D01*
X64666761Y-59751166D01*
X64619142Y-59703547D01*
X64523904Y-59655928D01*
X64333428Y-59608309D01*
X64095333Y-59608309D01*
X63904857Y-59655928D01*
X63809619Y-59703547D01*
X63762000Y-59751166D01*
X63714380Y-59846404D01*
X59634380Y-58036880D02*
X58634380Y-58036880D01*
X59634380Y-58513071D02*
X58634380Y-58513071D01*
X59348666Y-58846404D01*
X58634380Y-59179738D01*
X59634380Y-59179738D01*
X58729619Y-59608309D02*
X58682000Y-59655928D01*
X58634380Y-59751166D01*
X58634380Y-59989261D01*
X58682000Y-60084500D01*
X58729619Y-60132119D01*
X58824857Y-60179738D01*
X58920095Y-60179738D01*
X59062952Y-60132119D01*
X59634380Y-59560690D01*
X59634380Y-60179738D01*
X57094380Y-58036880D02*
X56094380Y-58036880D01*
X57094380Y-58513071D02*
X56094380Y-58513071D01*
X56808666Y-58846404D01*
X56094380Y-59179738D01*
X57094380Y-59179738D01*
X56094380Y-59560690D02*
X56094380Y-60179738D01*
X56475333Y-59846404D01*
X56475333Y-59989261D01*
X56522952Y-60084500D01*
X56570571Y-60132119D01*
X56665809Y-60179738D01*
X56903904Y-60179738D01*
X56999142Y-60132119D01*
X57046761Y-60084500D01*
X57094380Y-59989261D01*
X57094380Y-59703547D01*
X57046761Y-59608309D01*
X56999142Y-59560690D01*
X37488761Y-16793738D02*
X37536380Y-16936595D01*
X37536380Y-17174690D01*
X37488761Y-17269928D01*
X37441142Y-17317547D01*
X37345904Y-17365166D01*
X37250666Y-17365166D01*
X37155428Y-17317547D01*
X37107809Y-17269928D01*
X37060190Y-17174690D01*
X37012571Y-16984214D01*
X36964952Y-16888976D01*
X36917333Y-16841357D01*
X36822095Y-16793738D01*
X36726857Y-16793738D01*
X36631619Y-16841357D01*
X36584000Y-16888976D01*
X36536380Y-16984214D01*
X36536380Y-17222309D01*
X36584000Y-17365166D01*
X37536380Y-17793738D02*
X36536380Y-17793738D01*
X36536380Y-18174690D01*
X36584000Y-18269928D01*
X36631619Y-18317547D01*
X36726857Y-18365166D01*
X36869714Y-18365166D01*
X36964952Y-18317547D01*
X37012571Y-18269928D01*
X37060190Y-18174690D01*
X37060190Y-17793738D01*
X37536380Y-18793738D02*
X36536380Y-18793738D01*
X37536380Y-19365166D02*
X36964952Y-18936595D01*
X36536380Y-19365166D02*
X37107809Y-18793738D01*
X37155428Y-19793738D02*
X37155428Y-20555642D01*
X40028761Y-16793738D02*
X40076380Y-16936595D01*
X40076380Y-17174690D01*
X40028761Y-17269928D01*
X39981142Y-17317547D01*
X39885904Y-17365166D01*
X39790666Y-17365166D01*
X39695428Y-17317547D01*
X39647809Y-17269928D01*
X39600190Y-17174690D01*
X39552571Y-16984214D01*
X39504952Y-16888976D01*
X39457333Y-16841357D01*
X39362095Y-16793738D01*
X39266857Y-16793738D01*
X39171619Y-16841357D01*
X39124000Y-16888976D01*
X39076380Y-16984214D01*
X39076380Y-17222309D01*
X39124000Y-17365166D01*
X40076380Y-17793738D02*
X39076380Y-17793738D01*
X39076380Y-18174690D01*
X39124000Y-18269928D01*
X39171619Y-18317547D01*
X39266857Y-18365166D01*
X39409714Y-18365166D01*
X39504952Y-18317547D01*
X39552571Y-18269928D01*
X39600190Y-18174690D01*
X39600190Y-17793738D01*
X40076380Y-18793738D02*
X39076380Y-18793738D01*
X40076380Y-19365166D02*
X39504952Y-18936595D01*
X39076380Y-19365166D02*
X39647809Y-18793738D01*
X39695428Y-19793738D02*
X39695428Y-20555642D01*
X40076380Y-20174690D02*
X39314476Y-20174690D01*
X64714380Y-75880214D02*
X64714380Y-75308785D01*
X64714380Y-75594500D02*
X63714380Y-75594500D01*
X63857238Y-75499261D01*
X63952476Y-75404023D01*
X64000095Y-75308785D01*
X15454380Y-74149976D02*
X15454380Y-74769023D01*
X15835333Y-74435690D01*
X15835333Y-74578547D01*
X15882952Y-74673785D01*
X15930571Y-74721404D01*
X16025809Y-74769023D01*
X16263904Y-74769023D01*
X16359142Y-74721404D01*
X16406761Y-74673785D01*
X16454380Y-74578547D01*
X16454380Y-74292833D01*
X16406761Y-74197595D01*
X16359142Y-74149976D01*
X16454380Y-75245214D02*
X16454380Y-75435690D01*
X16406761Y-75530928D01*
X16359142Y-75578547D01*
X16216285Y-75673785D01*
X16025809Y-75721404D01*
X15644857Y-75721404D01*
X15549619Y-75673785D01*
X15502000Y-75626166D01*
X15454380Y-75530928D01*
X15454380Y-75340452D01*
X15502000Y-75245214D01*
X15549619Y-75197595D01*
X15644857Y-75149976D01*
X15882952Y-75149976D01*
X15978190Y-75197595D01*
X16025809Y-75245214D01*
X16073428Y-75340452D01*
X16073428Y-75530928D01*
X16025809Y-75626166D01*
X15978190Y-75673785D01*
X15882952Y-75721404D01*
X44971833Y-28757619D02*
X44971833Y-29757619D01*
X44971833Y-29281428D02*
X45543261Y-29281428D01*
X45543261Y-28757619D02*
X45543261Y-29757619D01*
X46019452Y-28757619D02*
X46019452Y-29757619D01*
X46400404Y-29757619D01*
X46495642Y-29710000D01*
X46543261Y-29662380D01*
X46590880Y-29567142D01*
X46590880Y-29424285D01*
X46543261Y-29329047D01*
X46495642Y-29281428D01*
X46400404Y-29233809D01*
X46019452Y-29233809D01*
X46781357Y-28662380D02*
X47543261Y-28662380D01*
X48352785Y-28757619D02*
X48019452Y-29233809D01*
X47781357Y-28757619D02*
X47781357Y-29757619D01*
X48162309Y-29757619D01*
X48257547Y-29710000D01*
X48305166Y-29662380D01*
X48352785Y-29567142D01*
X48352785Y-29424285D01*
X48305166Y-29329047D01*
X48257547Y-29281428D01*
X48162309Y-29233809D01*
X47781357Y-29233809D01*
X45654404Y-24677619D02*
X46273452Y-24677619D01*
X45940119Y-24296666D01*
X46082976Y-24296666D01*
X46178214Y-24249047D01*
X46225833Y-24201428D01*
X46273452Y-24106190D01*
X46273452Y-23868095D01*
X46225833Y-23772857D01*
X46178214Y-23725238D01*
X46082976Y-23677619D01*
X45797261Y-23677619D01*
X45702023Y-23725238D01*
X45654404Y-23772857D01*
X46559166Y-24677619D02*
X46892500Y-23677619D01*
X47225833Y-24677619D01*
X47463928Y-24677619D02*
X48082976Y-24677619D01*
X47749642Y-24296666D01*
X47892500Y-24296666D01*
X47987738Y-24249047D01*
X48035357Y-24201428D01*
X48082976Y-24106190D01*
X48082976Y-23868095D01*
X48035357Y-23772857D01*
X47987738Y-23725238D01*
X47892500Y-23677619D01*
X47606785Y-23677619D01*
X47511547Y-23725238D01*
X47463928Y-23772857D01*
X45067071Y-31297619D02*
X45067071Y-32297619D01*
X45067071Y-31821428D02*
X45638500Y-31821428D01*
X45638500Y-31297619D02*
X45638500Y-32297619D01*
X46114690Y-31297619D02*
X46114690Y-32297619D01*
X46495642Y-32297619D01*
X46590880Y-32250000D01*
X46638500Y-32202380D01*
X46686119Y-32107142D01*
X46686119Y-31964285D01*
X46638500Y-31869047D01*
X46590880Y-31821428D01*
X46495642Y-31773809D01*
X46114690Y-31773809D01*
X46876595Y-31202380D02*
X47638500Y-31202380D01*
X48352785Y-31297619D02*
X47876595Y-31297619D01*
X47876595Y-32297619D01*
X73128238Y-19853785D02*
X73080619Y-19710928D01*
X73080619Y-19472833D01*
X73128238Y-19377595D01*
X73175857Y-19329976D01*
X73271095Y-19282357D01*
X73366333Y-19282357D01*
X73461571Y-19329976D01*
X73509190Y-19377595D01*
X73556809Y-19472833D01*
X73604428Y-19663309D01*
X73652047Y-19758547D01*
X73699666Y-19806166D01*
X73794904Y-19853785D01*
X73890142Y-19853785D01*
X73985380Y-19806166D01*
X74033000Y-19758547D01*
X74080619Y-19663309D01*
X74080619Y-19425214D01*
X74033000Y-19282357D01*
X73080619Y-18853785D02*
X74080619Y-18853785D01*
X74080619Y-18615690D01*
X74033000Y-18472833D01*
X73937761Y-18377595D01*
X73842523Y-18329976D01*
X73652047Y-18282357D01*
X73509190Y-18282357D01*
X73318714Y-18329976D01*
X73223476Y-18377595D01*
X73128238Y-18472833D01*
X73080619Y-18615690D01*
X73080619Y-18853785D01*
X73366333Y-17901404D02*
X73366333Y-17425214D01*
X73080619Y-17996642D02*
X74080619Y-17663309D01*
X73080619Y-17329976D01*
X70207238Y-19925214D02*
X70159619Y-19782357D01*
X70159619Y-19544261D01*
X70207238Y-19449023D01*
X70254857Y-19401404D01*
X70350095Y-19353785D01*
X70445333Y-19353785D01*
X70540571Y-19401404D01*
X70588190Y-19449023D01*
X70635809Y-19544261D01*
X70683428Y-19734738D01*
X70731047Y-19829976D01*
X70778666Y-19877595D01*
X70873904Y-19925214D01*
X70969142Y-19925214D01*
X71064380Y-19877595D01*
X71112000Y-19829976D01*
X71159619Y-19734738D01*
X71159619Y-19496642D01*
X71112000Y-19353785D01*
X70254857Y-18353785D02*
X70207238Y-18401404D01*
X70159619Y-18544261D01*
X70159619Y-18639500D01*
X70207238Y-18782357D01*
X70302476Y-18877595D01*
X70397714Y-18925214D01*
X70588190Y-18972833D01*
X70731047Y-18972833D01*
X70921523Y-18925214D01*
X71016761Y-18877595D01*
X71112000Y-18782357D01*
X71159619Y-18639500D01*
X71159619Y-18544261D01*
X71112000Y-18401404D01*
X71064380Y-18353785D01*
X70159619Y-17925214D02*
X71159619Y-17925214D01*
X70159619Y-17353785D02*
X70731047Y-17782357D01*
X71159619Y-17353785D02*
X70588190Y-17925214D01*
X65698619Y-15940595D02*
X65698619Y-15321547D01*
X65317666Y-15654880D01*
X65317666Y-15512023D01*
X65270047Y-15416785D01*
X65222428Y-15369166D01*
X65127190Y-15321547D01*
X64889095Y-15321547D01*
X64793857Y-15369166D01*
X64746238Y-15416785D01*
X64698619Y-15512023D01*
X64698619Y-15797738D01*
X64746238Y-15892976D01*
X64793857Y-15940595D01*
X65698619Y-15035833D02*
X64698619Y-14702500D01*
X65698619Y-14369166D01*
X65698619Y-14131071D02*
X65698619Y-13512023D01*
X65317666Y-13845357D01*
X65317666Y-13702500D01*
X65270047Y-13607261D01*
X65222428Y-13559642D01*
X65127190Y-13512023D01*
X64889095Y-13512023D01*
X64793857Y-13559642D01*
X64746238Y-13607261D01*
X64698619Y-13702500D01*
X64698619Y-13988214D01*
X64746238Y-14083452D01*
X64793857Y-14131071D01*
X75239619Y-19544261D02*
X76239619Y-19544261D01*
X75239619Y-19068071D02*
X76239619Y-19068071D01*
X75239619Y-18496642D01*
X76239619Y-18496642D01*
X76239619Y-18163309D02*
X76239619Y-17591880D01*
X75239619Y-17877595D02*
X76239619Y-17877595D01*
X81526000Y-15591404D02*
X81573619Y-15686642D01*
X81573619Y-15829500D01*
X81526000Y-15972357D01*
X81430761Y-16067595D01*
X81335523Y-16115214D01*
X81145047Y-16162833D01*
X81002190Y-16162833D01*
X80811714Y-16115214D01*
X80716476Y-16067595D01*
X80621238Y-15972357D01*
X80573619Y-15829500D01*
X80573619Y-15734261D01*
X80621238Y-15591404D01*
X80668857Y-15543785D01*
X81002190Y-15543785D01*
X81002190Y-15734261D01*
X80573619Y-15115214D02*
X81573619Y-15115214D01*
X80573619Y-14543785D01*
X81573619Y-14543785D01*
X80573619Y-14067595D02*
X81573619Y-14067595D01*
X81573619Y-13829500D01*
X81526000Y-13686642D01*
X81430761Y-13591404D01*
X81335523Y-13543785D01*
X81145047Y-13496166D01*
X81002190Y-13496166D01*
X80811714Y-13543785D01*
X80716476Y-13591404D01*
X80621238Y-13686642D01*
X80573619Y-13829500D01*
X80573619Y-14067595D01*
X84352000Y-32512000D02*
G75*
G03X84352000Y-32512000I-11200000J0D01*
G01*
X74035214Y-29646571D02*
X73892357Y-29694190D01*
X73844738Y-29741809D01*
X73797119Y-29837047D01*
X73797119Y-29979904D01*
X73844738Y-30075142D01*
X73892357Y-30122761D01*
X73987595Y-30170380D01*
X74368547Y-30170380D01*
X74368547Y-29170380D01*
X74035214Y-29170380D01*
X73939976Y-29218000D01*
X73892357Y-29265619D01*
X73844738Y-29360857D01*
X73844738Y-29456095D01*
X73892357Y-29551333D01*
X73939976Y-29598952D01*
X74035214Y-29646571D01*
X74368547Y-29646571D01*
X73511404Y-29170380D02*
X72939976Y-29170380D01*
X73225690Y-30170380D02*
X73225690Y-29170380D01*
X72082833Y-30170380D02*
X72654261Y-30170380D01*
X72368547Y-30170380D02*
X72368547Y-29170380D01*
X72463785Y-29313238D01*
X72559023Y-29408476D01*
X72654261Y-29456095D01*
X82012309Y-33051714D02*
X78964690Y-33051714D01*
X67661309Y-33051714D02*
X64613690Y-33051714D01*
X66137500Y-34575523D02*
X66137500Y-31527904D01*
M02*
