M48
INCH,TZ
T1C0.012
T2C0.040
T3C0.067
%
G90
G05
T1
X5800Y-7800
X5800Y-15800
X5800Y-20300
X5800Y-24300
X5800Y-27800
X7200Y-24200
X7300Y-17300
X7350Y-26000
X7750Y-21800
X7800Y-6300
X8200Y-26000
X9050Y-26000
X9900Y-26000
X10300Y-6300
X10550Y-9400
X10750Y-26000
X10800Y-17300
X11250Y-24750
X11800Y-8300
X11800Y-26050
X11800Y-26300
X11800Y-26550
X11800Y-26800
X12450Y-7000
X12550Y-12900
X12550Y-13750
X12850Y-9450
X13800Y-17300
X14250Y-12750
X14700Y-7250
X15500Y-7250
X15950Y-26550
X16100Y-16550
X16150Y-26750
X16400Y-26050
X16600Y-26300
X17150Y-23250
X17700Y-23400
X17800Y-8300
X18300Y-24650
X18500Y-22400
X18550Y-23300
X18750Y-22400
X18850Y-24100
X19000Y-22400
X19300Y-6300
X19800Y-16800
X20450Y-21750
X22800Y-19800
X22800Y-23300
X23050Y-11750
X23300Y-6300
X23300Y-16300
X23800Y-10300
X24800Y-23300
X25250Y-9000
X25300Y-25300
X25300Y-27800
X25750Y-14550
X26800Y-7650
X28500Y-7650
X28650Y-11650
X34300Y-6300
X34300Y-16300
X34550Y-11700
T2
X6300Y-30800
X6300Y-31800
X7300Y-30800
X7300Y-31800
X8300Y-30800
X8300Y-31800
X9300Y-30800
X9300Y-31800
X10300Y-30800
X10300Y-31800
X11300Y-30800
X11300Y-31800
X12300Y-30800
X12300Y-31800
X13300Y-30800
X13300Y-31800
X14100Y-15200
X14300Y-30800
X14300Y-31800
X14600Y-5700
X15100Y-15200
X15300Y-30800
X15300Y-31800
X15600Y-5700
X16100Y-15200
X16300Y-30800
X16300Y-31800
X17300Y-30800
X17300Y-31800
X18300Y-30800
X18300Y-31800
X19300Y-30800
X19300Y-31800
X19850Y-9450
X19850Y-10450
X19850Y-11450
X19850Y-12450
X19850Y-13450
X20300Y-30800
X20300Y-31800
X21300Y-30800
X21300Y-31800
X22300Y-21500
X22300Y-30800
X22300Y-31800
X23300Y-21500
X23300Y-30800
X23300Y-31800
X24300Y-21500
X24300Y-30800
X24300Y-31800
X25300Y-21500
X25300Y-30800
X25300Y-31800
X26800Y-5800
X27800Y-5800
X28800Y-5800
X29800Y-5800
X30800Y-5800
T3
X6850Y-11200
X9606Y-11200
T0
M30
