G04 #@! TF.FileFunction,Soldermask,Top*
%FSLAX46Y46*%
G04 Gerber Fmt 4.6, Leading zero omitted, Abs format (unit mm)*
G04 Created by KiCad (PCBNEW (2016-05-30 BZR 6864, Git 09dc517)-product) date 06/20/16 14:34:37*
%MOMM*%
%LPD*%
G01*
G04 APERTURE LIST*
%ADD10C,0.100000*%
%ADD11R,1.000000X1.250000*%
%ADD12R,1.250000X1.000000*%
%ADD13R,1.727200X2.032000*%
%ADD14O,1.727200X2.032000*%
%ADD15R,0.700000X1.300000*%
%ADD16R,1.300000X0.700000*%
%ADD17R,2.032000X2.032000*%
%ADD18O,2.032000X2.032000*%
%ADD19R,1.727200X1.727200*%
%ADD20O,1.727200X1.727200*%
%ADD21R,2.400000X2.400000*%
%ADD22R,1.200000X0.300000*%
%ADD23O,1.473200X0.609600*%
%ADD24C,1.700000*%
%ADD25R,2.800000X2.000000*%
%ADD26R,2.800000X2.200000*%
%ADD27R,2.800000X2.800000*%
%ADD28O,0.609600X1.473200*%
%ADD29R,1.300000X1.900000*%
%ADD30R,2.032000X1.727200*%
%ADD31O,2.032000X1.727200*%
%ADD32R,0.900000X0.800000*%
%ADD33R,0.800000X0.900000*%
G04 APERTURE END LIST*
D10*
D11*
X37576000Y-29083000D03*
X35576000Y-29083000D03*
D12*
X81407000Y-24527000D03*
X81407000Y-26527000D03*
X69977000Y-31131000D03*
X69977000Y-33131000D03*
X69977000Y-19701000D03*
X69977000Y-21701000D03*
X72009000Y-66659000D03*
X72009000Y-64659000D03*
X60960000Y-35322000D03*
X60960000Y-37322000D03*
X63119000Y-35322000D03*
X63119000Y-37322000D03*
X56896000Y-30083000D03*
X56896000Y-28083000D03*
D11*
X61071000Y-64770000D03*
X59071000Y-64770000D03*
X59706000Y-22479000D03*
X61706000Y-22479000D03*
D12*
X57023000Y-18685000D03*
X57023000Y-20685000D03*
X64389000Y-18685000D03*
X64389000Y-20685000D03*
X64389000Y-24495000D03*
X64389000Y-22495000D03*
X57023000Y-24495000D03*
X57023000Y-22495000D03*
D13*
X71120000Y-50800000D03*
D14*
X68580000Y-50800000D03*
X66040000Y-50800000D03*
X63500000Y-50800000D03*
D15*
X33970000Y-19177000D03*
X32070000Y-19177000D03*
X33970000Y-21336000D03*
X32070000Y-21336000D03*
X33970000Y-23495000D03*
X32070000Y-23495000D03*
X33970000Y-25654000D03*
X32070000Y-25654000D03*
X33970000Y-27813000D03*
X32070000Y-27813000D03*
D16*
X81407000Y-21021000D03*
X81407000Y-22921000D03*
D15*
X71689000Y-29083000D03*
X69789000Y-29083000D03*
D16*
X69977000Y-16195000D03*
X69977000Y-18095000D03*
X69977000Y-25588000D03*
X69977000Y-23688000D03*
D15*
X77790000Y-33147000D03*
X79690000Y-33147000D03*
D16*
X63119000Y-31816000D03*
X63119000Y-33716000D03*
X60960000Y-33716000D03*
X60960000Y-31816000D03*
X74676000Y-69027000D03*
X74676000Y-70927000D03*
D15*
X75626000Y-72898000D03*
X73726000Y-72898000D03*
D17*
X61976000Y-15367000D03*
D18*
X59436000Y-15367000D03*
D19*
X19050000Y-64770000D03*
D20*
X16510000Y-64770000D03*
X19050000Y-62230000D03*
X16510000Y-62230000D03*
X19050000Y-59690000D03*
X16510000Y-59690000D03*
X19050000Y-57150000D03*
X16510000Y-57150000D03*
X19050000Y-54610000D03*
X16510000Y-54610000D03*
X19050000Y-52070000D03*
X16510000Y-52070000D03*
X19050000Y-49530000D03*
X16510000Y-49530000D03*
X19050000Y-46990000D03*
X16510000Y-46990000D03*
X19050000Y-44450000D03*
X16510000Y-44450000D03*
X19050000Y-41910000D03*
X16510000Y-41910000D03*
X19050000Y-39370000D03*
X16510000Y-39370000D03*
X19050000Y-36830000D03*
X16510000Y-36830000D03*
X19050000Y-34290000D03*
X16510000Y-34290000D03*
X19050000Y-31750000D03*
X16510000Y-31750000D03*
X19050000Y-29210000D03*
X16510000Y-29210000D03*
X19050000Y-26670000D03*
X16510000Y-26670000D03*
X19050000Y-24130000D03*
X16510000Y-24130000D03*
X19050000Y-21590000D03*
X16510000Y-21590000D03*
X19050000Y-19050000D03*
X16510000Y-19050000D03*
X19050000Y-16510000D03*
X16510000Y-16510000D03*
D21*
X41967000Y-21972000D03*
X41967000Y-50672000D03*
D22*
X39267000Y-24072000D03*
X39267000Y-24572000D03*
X39267000Y-25572000D03*
X39267000Y-25072000D03*
X39267000Y-27072000D03*
X39267000Y-27572000D03*
X39267000Y-26572000D03*
X39267000Y-26072000D03*
X39267000Y-30072000D03*
X39267000Y-30572000D03*
X39267000Y-31572000D03*
X39267000Y-31072000D03*
X39267000Y-29072000D03*
X39267000Y-29572000D03*
X39267000Y-28572000D03*
X39267000Y-28072000D03*
X39267000Y-36072000D03*
X39267000Y-34072000D03*
X39267000Y-34572000D03*
X39267000Y-35572000D03*
X39267000Y-35072000D03*
X39267000Y-33072000D03*
X39267000Y-33572000D03*
X39267000Y-32572000D03*
X39267000Y-32072000D03*
X39267000Y-44572000D03*
X39267000Y-45072000D03*
X39267000Y-46072000D03*
X39267000Y-45572000D03*
X39267000Y-47572000D03*
X39267000Y-48072000D03*
X39267000Y-47072000D03*
X39267000Y-46572000D03*
X39267000Y-48572000D03*
X39267000Y-40572000D03*
X39267000Y-41072000D03*
X39267000Y-42072000D03*
X39267000Y-41572000D03*
X39267000Y-43572000D03*
X39267000Y-44072000D03*
X39267000Y-43072000D03*
X39267000Y-42572000D03*
X39267000Y-38572000D03*
X39267000Y-39072000D03*
X39267000Y-40072000D03*
X39267000Y-39572000D03*
X39267000Y-37572000D03*
X39267000Y-38072000D03*
X39267000Y-37072000D03*
X39267000Y-36572000D03*
D23*
X66421000Y-68580000D03*
X66421000Y-69850000D03*
X66421000Y-71120000D03*
X66421000Y-72390000D03*
X72009000Y-72390000D03*
X72009000Y-71120000D03*
X72009000Y-69850000D03*
X72009000Y-68580000D03*
D24*
X76454000Y-25034000D03*
D25*
X72754000Y-14134000D03*
X80154000Y-16034000D03*
D26*
X72754000Y-16934000D03*
X80154000Y-18834000D03*
D27*
X72754000Y-26334000D03*
X77204000Y-30434000D03*
D24*
X76454000Y-18034000D03*
D28*
X58801000Y-30099000D03*
X60071000Y-30099000D03*
X61341000Y-30099000D03*
X62611000Y-30099000D03*
X62611000Y-24511000D03*
X61341000Y-24511000D03*
X60071000Y-24511000D03*
X58801000Y-24511000D03*
D29*
X62821000Y-67115000D03*
X62821000Y-71315000D03*
X57321000Y-71315000D03*
X57321000Y-67115000D03*
D30*
X81280000Y-68580000D03*
D31*
X81280000Y-71120000D03*
X81280000Y-73660000D03*
X81280000Y-76200000D03*
X81280000Y-78740000D03*
D32*
X76597000Y-67564000D03*
X78597000Y-68514000D03*
X78597000Y-66614000D03*
X34433000Y-44196000D03*
X36433000Y-45146000D03*
X36433000Y-43246000D03*
D33*
X37719000Y-20812000D03*
X38669000Y-18812000D03*
X36769000Y-18812000D03*
D30*
X76200000Y-40005000D03*
D31*
X76200000Y-42545000D03*
X76200000Y-45085000D03*
D30*
X42672000Y-64770000D03*
D31*
X42672000Y-62230000D03*
X42672000Y-59690000D03*
X42672000Y-57150000D03*
M02*
