M48
INCH,TZ
T1C0.012
T2C0.040
T3C0.067
%
G90
G05
T1
X1.05Y-0.6
X1.05Y-2.55
X1.15Y-1.2
X1.155Y-1.635
X1.175Y-1.2
X1.175Y-1.615
X1.2Y-1.2
X1.2Y-1.68
X1.225Y-1.2
X1.225Y-1.66
X1.23Y-0.755
X1.23Y-0.84
X1.23Y-0.925
X1.23Y-1.01
X1.23Y-1.095
X1.3Y-2.55
X1.325Y-1.74
X1.355Y-1.145
X1.365Y-1.85
X1.4Y-0.6
X1.41Y-0.74
X1.42Y-1.905
X1.5Y-1.79
X1.5Y-1.875
X1.5Y-2.3
X1.5Y-2.5
X1.59Y-1.87
X1.59Y-1.895
X1.59Y-1.92
X1.65Y-0.795
X1.655Y-2.065
X1.8Y-0.6
X1.85Y-2.3
X2.15Y-2.35
X2.15Y-3.45
X2.24Y-1.065
X2.245Y-0.695
X2.35Y-0.84
X2.43Y-0.84
X2.535Y-0.695
X2.55Y-1.05
X2.55Y-1.25
X2.605Y-2.325
X2.61Y-3.475
X2.615Y-2.885
X2.75Y-2.4
X2.755Y-0.9
X2.8Y-1.305
X2.8Y-1.5
X2.9Y-1.35
X3.015Y-2.7
X3.015Y-2.87
X3.135Y-1.36
X3.15Y-2.35
X3.15Y-3.45
X3.205Y-1.09
T2
X0.65Y-0.65
X0.65Y-0.75
X0.65Y-0.85
X0.65Y-0.95
X0.65Y-1.05
X0.65Y-1.15
X0.65Y-1.25
X0.65Y-1.35
X0.65Y-1.45
X0.65Y-1.55
X0.65Y-1.65
X0.65Y-1.75
X0.65Y-1.85
X0.65Y-1.95
X0.65Y-2.05
X0.65Y-2.15
X0.65Y-2.25
X0.65Y-2.35
X0.65Y-2.45
X0.65Y-2.55
X0.75Y-0.65
X0.75Y-0.75
X0.75Y-0.85
X0.75Y-0.95
X0.75Y-1.05
X0.75Y-1.15
X0.75Y-1.25
X0.75Y-1.35
X0.75Y-1.45
X0.75Y-1.55
X0.75Y-1.65
X0.75Y-1.75
X0.75Y-1.85
X0.75Y-1.95
X0.75Y-2.05
X0.75Y-2.15
X0.75Y-2.25
X0.75Y-2.35
X0.75Y-2.45
X0.75Y-2.55
X1.68Y-2.25
X1.68Y-2.35
X1.68Y-2.45
X1.68Y-2.55
X2.34Y-0.605
X2.44Y-0.605
X2.5Y-2.
X2.6Y-2.
X2.7Y-2.
X2.8Y-2.
X3.Y-1.575
X3.Y-1.675
X3.Y-1.775
X3.2Y-2.7
X3.2Y-2.8
X3.2Y-2.9
X3.2Y-3.
X3.2Y-3.1
T3
X3.01Y-0.71
X3.01Y-0.9856
T0
M30
