G04 #@! TF.FileFunction,Legend,Top*
%FSLAX46Y46*%
G04 Gerber Fmt 4.6, Leading zero omitted, Abs format (unit mm)*
G04 Created by KiCad (PCBNEW (2016-04-11 BZR 6687, Git f239aee)-product) date 7/7/2016 5:08:46 PM*
%MOMM*%
G01*
G04 APERTURE LIST*
%ADD10C,0.100000*%
%ADD11C,0.200000*%
%ADD12C,0.150000*%
G04 APERTURE END LIST*
D10*
D11*
X55372000Y-46482000D02*
X55372000Y-12192000D01*
X52832000Y-46482000D02*
X52832000Y-12192000D01*
X12192000Y-46482000D02*
X52832000Y-46482000D01*
X68072000Y-46482000D02*
X55372000Y-46482000D01*
X12192000Y-49022000D02*
X66802000Y-49022000D01*
D12*
X29425000Y-61206000D02*
X29425000Y-60206000D01*
X27725000Y-60206000D02*
X27725000Y-61206000D01*
X25265000Y-23026000D02*
X24265000Y-23026000D01*
X24265000Y-24726000D02*
X25265000Y-24726000D01*
X30345000Y-34075000D02*
X29345000Y-34075000D01*
X29345000Y-35775000D02*
X30345000Y-35775000D01*
X21328000Y-34075000D02*
X20328000Y-34075000D01*
X20328000Y-35775000D02*
X21328000Y-35775000D01*
X64651000Y-24853000D02*
X65651000Y-24853000D01*
X65651000Y-23153000D02*
X64651000Y-23153000D01*
X39394500Y-34218500D02*
X39394500Y-33218500D01*
X37694500Y-33218500D02*
X37694500Y-34218500D01*
X41553500Y-34218500D02*
X41553500Y-33218500D01*
X39853500Y-33218500D02*
X39853500Y-34218500D01*
X37045000Y-30853000D02*
X37045000Y-29853000D01*
X35345000Y-29853000D02*
X35345000Y-30853000D01*
X65112000Y-36441000D02*
X65112000Y-35441000D01*
X63412000Y-35441000D02*
X63412000Y-36441000D01*
X38854000Y-18835000D02*
X37854000Y-18835000D01*
X37854000Y-20535000D02*
X38854000Y-20535000D01*
X34155000Y-16930000D02*
X33155000Y-16930000D01*
X33155000Y-18630000D02*
X34155000Y-18630000D01*
X42553000Y-18630000D02*
X43553000Y-18630000D01*
X43553000Y-16930000D02*
X42553000Y-16930000D01*
X41187000Y-20201000D02*
X41187000Y-21201000D01*
X42887000Y-21201000D02*
X42887000Y-20201000D01*
X33821000Y-20201000D02*
X33821000Y-21201000D01*
X35521000Y-21201000D02*
X35521000Y-20201000D01*
X17794000Y-64862000D02*
X17794000Y-63662000D01*
X19544000Y-63662000D02*
X19544000Y-64862000D01*
X19953000Y-64862000D02*
X19953000Y-63662000D01*
X21703000Y-63662000D02*
X21703000Y-64862000D01*
X22112000Y-64862000D02*
X22112000Y-63662000D01*
X23862000Y-63662000D02*
X23862000Y-64862000D01*
X24271000Y-64862000D02*
X24271000Y-63662000D01*
X26021000Y-63662000D02*
X26021000Y-64862000D01*
X26430000Y-64862000D02*
X26430000Y-63662000D01*
X28180000Y-63662000D02*
X28180000Y-64862000D01*
X21809000Y-24751000D02*
X20609000Y-24751000D01*
X20609000Y-23001000D02*
X21809000Y-23001000D01*
X26889000Y-35800000D02*
X25689000Y-35800000D01*
X25689000Y-34050000D02*
X26889000Y-34050000D01*
X17872000Y-35800000D02*
X16672000Y-35800000D01*
X16672000Y-34050000D02*
X17872000Y-34050000D01*
X30572000Y-33641000D02*
X29372000Y-33641000D01*
X29372000Y-31891000D02*
X30572000Y-31891000D01*
X33514000Y-25181000D02*
X33514000Y-26381000D01*
X31764000Y-26381000D02*
X31764000Y-25181000D01*
X39828500Y-30762500D02*
X39828500Y-29562500D01*
X41578500Y-29562500D02*
X41578500Y-30762500D01*
X39419500Y-29562500D02*
X39419500Y-30762500D01*
X37669500Y-30762500D02*
X37669500Y-29562500D01*
X70069000Y-22211000D02*
X68869000Y-22211000D01*
X68869000Y-20461000D02*
X70069000Y-20461000D01*
X71515000Y-21936000D02*
X71515000Y-20736000D01*
X73265000Y-20736000D02*
X73265000Y-21936000D01*
X38354000Y-15748000D02*
X35814000Y-15748000D01*
X41174000Y-16028000D02*
X39624000Y-16028000D01*
X38354000Y-15748000D02*
X38354000Y-13208000D01*
X39624000Y-12928000D02*
X41174000Y-12928000D01*
X41174000Y-12928000D02*
X41174000Y-16028000D01*
X38354000Y-13208000D02*
X35814000Y-13208000D01*
X35814000Y-13208000D02*
X35814000Y-15748000D01*
X14732000Y-82042000D02*
X65532000Y-82042000D01*
X62992000Y-76962000D02*
X14732000Y-76962000D01*
X14732000Y-82042000D02*
X14732000Y-76962000D01*
X65532000Y-82042000D02*
X65532000Y-79502000D01*
X65812000Y-78232000D02*
X65812000Y-76682000D01*
X65532000Y-79502000D02*
X62992000Y-79502000D01*
X62992000Y-79502000D02*
X62992000Y-76962000D01*
X65812000Y-76682000D02*
X64262000Y-76682000D01*
X51064000Y-53515000D02*
X51064000Y-53015000D01*
X48814000Y-57515000D02*
X51064000Y-57515000D01*
X51064000Y-57515000D02*
X51064000Y-57015000D01*
X20564000Y-57015000D02*
X20564000Y-57515000D01*
X20564000Y-57515000D02*
X22814000Y-57515000D01*
X20564000Y-53015000D02*
X20564000Y-53515000D01*
X51064000Y-53015000D02*
X20564000Y-53015000D01*
X68199000Y-27559000D02*
G75*
G03X68199000Y-27559000I-127000J0D01*
G01*
X67437000Y-28194000D02*
X72517000Y-28194000D01*
X67437000Y-24892000D02*
X72517000Y-24892000D01*
X67437000Y-28702000D02*
X72517000Y-28702000D01*
X67437000Y-28702000D02*
X67437000Y-24892000D01*
X72517000Y-28702000D02*
X72517000Y-24892000D01*
X23699000Y-31448000D02*
X17899000Y-31448000D01*
X28399000Y-29548000D02*
X28399000Y-31448000D01*
X28399000Y-31448000D02*
X27699000Y-31448000D01*
X28399000Y-25448000D02*
X19899000Y-25448000D01*
X28399000Y-25448000D02*
X28399000Y-25848000D01*
X13899000Y-25448000D02*
X12899000Y-25448000D01*
X12899000Y-25448000D02*
X12899000Y-25948000D01*
X12899000Y-25948000D02*
X11399000Y-25948000D01*
X11399000Y-25948000D02*
X11399000Y-30948000D01*
X11399000Y-30948000D02*
X11899000Y-30948000D01*
X36576000Y-25400000D02*
G75*
G03X36576000Y-25400000I-127000J0D01*
G01*
X35814000Y-26035000D02*
X40894000Y-26035000D01*
X35814000Y-22733000D02*
X40894000Y-22733000D01*
X35814000Y-26543000D02*
X40894000Y-26543000D01*
X35814000Y-26543000D02*
X35814000Y-22733000D01*
X40894000Y-26543000D02*
X40894000Y-22733000D01*
X69407000Y-32741000D02*
X69407000Y-33441000D01*
X68007000Y-32741000D02*
X68007000Y-33441000D01*
X69107000Y-32541000D02*
X69107000Y-33641000D01*
X69107000Y-33641000D02*
X68307000Y-33641000D01*
X68307000Y-33641000D02*
X68307000Y-32541000D01*
X68307000Y-32541000D02*
X69107000Y-32541000D01*
X70607000Y-34241000D02*
X70607000Y-37641000D01*
X66807000Y-37641000D02*
X66807000Y-34241000D01*
X70607000Y-39741000D02*
X70607000Y-39941000D01*
X70607000Y-39941000D02*
X66807000Y-39941000D01*
X66807000Y-39941000D02*
X66807000Y-39741000D01*
X70607000Y-32141000D02*
X70607000Y-31941000D01*
X70607000Y-31941000D02*
X66807000Y-31941000D01*
X66807000Y-31941000D02*
X66807000Y-32141000D01*
X68072000Y-16282000D02*
X66522000Y-16282000D01*
X66522000Y-16282000D02*
X66522000Y-13182000D01*
X66522000Y-13182000D02*
X68072000Y-13182000D01*
X69342000Y-13462000D02*
X79502000Y-13462000D01*
X79502000Y-13462000D02*
X79502000Y-16002000D01*
X79502000Y-16002000D02*
X69342000Y-16002000D01*
X69342000Y-13462000D02*
X69342000Y-16002000D01*
X67356000Y-17715000D02*
X66756000Y-17715000D01*
X66056000Y-19115000D02*
X65556000Y-19115000D01*
X65556000Y-19115000D02*
X65556000Y-18615000D01*
X68056000Y-19115000D02*
X68556000Y-19115000D01*
X68556000Y-19115000D02*
X68556000Y-18615000D01*
X18604000Y-59263000D02*
X18604000Y-59863000D01*
X20004000Y-60563000D02*
X20004000Y-61063000D01*
X20004000Y-61063000D02*
X19504000Y-61063000D01*
X20004000Y-58563000D02*
X20004000Y-58063000D01*
X20004000Y-58063000D02*
X19504000Y-58063000D01*
X43354000Y-36148000D02*
X33354000Y-36148000D01*
X33354000Y-36148000D02*
X33354000Y-46148000D01*
X33354000Y-46148000D02*
X43354000Y-46148000D01*
X43354000Y-46148000D02*
X43354000Y-36148000D01*
X62992000Y-53340000D02*
X55372000Y-53340000D01*
X62992000Y-55880000D02*
X55372000Y-55880000D01*
X65812000Y-56160000D02*
X64262000Y-56160000D01*
X55372000Y-53340000D02*
X55372000Y-55880000D01*
X62992000Y-55880000D02*
X62992000Y-53340000D01*
X64262000Y-53060000D02*
X65812000Y-53060000D01*
X65812000Y-53060000D02*
X65812000Y-56160000D01*
X48869000Y-24003000D02*
X48869000Y-22453000D01*
X48869000Y-22453000D02*
X51969000Y-22453000D01*
X51969000Y-22453000D02*
X51969000Y-24003000D01*
X51689000Y-25273000D02*
X51689000Y-35433000D01*
X51689000Y-35433000D02*
X49149000Y-35433000D01*
X49149000Y-35433000D02*
X49149000Y-25273000D01*
X51689000Y-25273000D02*
X49149000Y-25273000D01*
X31032142Y-60970166D02*
X31079761Y-61017785D01*
X31127380Y-61160642D01*
X31127380Y-61255880D01*
X31079761Y-61398738D01*
X30984523Y-61493976D01*
X30889285Y-61541595D01*
X30698809Y-61589214D01*
X30555952Y-61589214D01*
X30365476Y-61541595D01*
X30270238Y-61493976D01*
X30175000Y-61398738D01*
X30127380Y-61255880D01*
X30127380Y-61160642D01*
X30175000Y-61017785D01*
X30222619Y-60970166D01*
X31127380Y-60017785D02*
X31127380Y-60589214D01*
X31127380Y-60303500D02*
X30127380Y-60303500D01*
X30270238Y-60398738D01*
X30365476Y-60493976D01*
X30413095Y-60589214D01*
X24500833Y-22201142D02*
X24453214Y-22248761D01*
X24310357Y-22296380D01*
X24215119Y-22296380D01*
X24072261Y-22248761D01*
X23977023Y-22153523D01*
X23929404Y-22058285D01*
X23881785Y-21867809D01*
X23881785Y-21724952D01*
X23929404Y-21534476D01*
X23977023Y-21439238D01*
X24072261Y-21344000D01*
X24215119Y-21296380D01*
X24310357Y-21296380D01*
X24453214Y-21344000D01*
X24500833Y-21391619D01*
X24881785Y-21391619D02*
X24929404Y-21344000D01*
X25024642Y-21296380D01*
X25262738Y-21296380D01*
X25357976Y-21344000D01*
X25405595Y-21391619D01*
X25453214Y-21486857D01*
X25453214Y-21582095D01*
X25405595Y-21724952D01*
X24834166Y-22296380D01*
X25453214Y-22296380D01*
X29580833Y-37314142D02*
X29533214Y-37361761D01*
X29390357Y-37409380D01*
X29295119Y-37409380D01*
X29152261Y-37361761D01*
X29057023Y-37266523D01*
X29009404Y-37171285D01*
X28961785Y-36980809D01*
X28961785Y-36837952D01*
X29009404Y-36647476D01*
X29057023Y-36552238D01*
X29152261Y-36457000D01*
X29295119Y-36409380D01*
X29390357Y-36409380D01*
X29533214Y-36457000D01*
X29580833Y-36504619D01*
X29914166Y-36409380D02*
X30533214Y-36409380D01*
X30199880Y-36790333D01*
X30342738Y-36790333D01*
X30437976Y-36837952D01*
X30485595Y-36885571D01*
X30533214Y-36980809D01*
X30533214Y-37218904D01*
X30485595Y-37314142D01*
X30437976Y-37361761D01*
X30342738Y-37409380D01*
X30057023Y-37409380D01*
X29961785Y-37361761D01*
X29914166Y-37314142D01*
X20563833Y-37441142D02*
X20516214Y-37488761D01*
X20373357Y-37536380D01*
X20278119Y-37536380D01*
X20135261Y-37488761D01*
X20040023Y-37393523D01*
X19992404Y-37298285D01*
X19944785Y-37107809D01*
X19944785Y-36964952D01*
X19992404Y-36774476D01*
X20040023Y-36679238D01*
X20135261Y-36584000D01*
X20278119Y-36536380D01*
X20373357Y-36536380D01*
X20516214Y-36584000D01*
X20563833Y-36631619D01*
X21420976Y-36869714D02*
X21420976Y-37536380D01*
X21182880Y-36488761D02*
X20944785Y-37203047D01*
X21563833Y-37203047D01*
X64886833Y-26460142D02*
X64839214Y-26507761D01*
X64696357Y-26555380D01*
X64601119Y-26555380D01*
X64458261Y-26507761D01*
X64363023Y-26412523D01*
X64315404Y-26317285D01*
X64267785Y-26126809D01*
X64267785Y-25983952D01*
X64315404Y-25793476D01*
X64363023Y-25698238D01*
X64458261Y-25603000D01*
X64601119Y-25555380D01*
X64696357Y-25555380D01*
X64839214Y-25603000D01*
X64886833Y-25650619D01*
X65791595Y-25555380D02*
X65315404Y-25555380D01*
X65267785Y-26031571D01*
X65315404Y-25983952D01*
X65410642Y-25936333D01*
X65648738Y-25936333D01*
X65743976Y-25983952D01*
X65791595Y-26031571D01*
X65839214Y-26126809D01*
X65839214Y-26364904D01*
X65791595Y-26460142D01*
X65743976Y-26507761D01*
X65648738Y-26555380D01*
X65410642Y-26555380D01*
X65315404Y-26507761D01*
X65267785Y-26460142D01*
X36742642Y-33982666D02*
X36790261Y-34030285D01*
X36837880Y-34173142D01*
X36837880Y-34268380D01*
X36790261Y-34411238D01*
X36695023Y-34506476D01*
X36599785Y-34554095D01*
X36409309Y-34601714D01*
X36266452Y-34601714D01*
X36075976Y-34554095D01*
X35980738Y-34506476D01*
X35885500Y-34411238D01*
X35837880Y-34268380D01*
X35837880Y-34173142D01*
X35885500Y-34030285D01*
X35933119Y-33982666D01*
X35837880Y-33125523D02*
X35837880Y-33316000D01*
X35885500Y-33411238D01*
X35933119Y-33458857D01*
X36075976Y-33554095D01*
X36266452Y-33601714D01*
X36647404Y-33601714D01*
X36742642Y-33554095D01*
X36790261Y-33506476D01*
X36837880Y-33411238D01*
X36837880Y-33220761D01*
X36790261Y-33125523D01*
X36742642Y-33077904D01*
X36647404Y-33030285D01*
X36409309Y-33030285D01*
X36314071Y-33077904D01*
X36266452Y-33125523D01*
X36218833Y-33220761D01*
X36218833Y-33411238D01*
X36266452Y-33506476D01*
X36314071Y-33554095D01*
X36409309Y-33601714D01*
X43160642Y-33982666D02*
X43208261Y-34030285D01*
X43255880Y-34173142D01*
X43255880Y-34268380D01*
X43208261Y-34411238D01*
X43113023Y-34506476D01*
X43017785Y-34554095D01*
X42827309Y-34601714D01*
X42684452Y-34601714D01*
X42493976Y-34554095D01*
X42398738Y-34506476D01*
X42303500Y-34411238D01*
X42255880Y-34268380D01*
X42255880Y-34173142D01*
X42303500Y-34030285D01*
X42351119Y-33982666D01*
X42255880Y-33649333D02*
X42255880Y-32982666D01*
X43255880Y-33411238D01*
X34520142Y-30490166D02*
X34567761Y-30537785D01*
X34615380Y-30680642D01*
X34615380Y-30775880D01*
X34567761Y-30918738D01*
X34472523Y-31013976D01*
X34377285Y-31061595D01*
X34186809Y-31109214D01*
X34043952Y-31109214D01*
X33853476Y-31061595D01*
X33758238Y-31013976D01*
X33663000Y-30918738D01*
X33615380Y-30775880D01*
X33615380Y-30680642D01*
X33663000Y-30537785D01*
X33710619Y-30490166D01*
X34043952Y-29918738D02*
X33996333Y-30013976D01*
X33948714Y-30061595D01*
X33853476Y-30109214D01*
X33805857Y-30109214D01*
X33710619Y-30061595D01*
X33663000Y-30013976D01*
X33615380Y-29918738D01*
X33615380Y-29728261D01*
X33663000Y-29633023D01*
X33710619Y-29585404D01*
X33805857Y-29537785D01*
X33853476Y-29537785D01*
X33948714Y-29585404D01*
X33996333Y-29633023D01*
X34043952Y-29728261D01*
X34043952Y-29918738D01*
X34091571Y-30013976D01*
X34139190Y-30061595D01*
X34234428Y-30109214D01*
X34424904Y-30109214D01*
X34520142Y-30061595D01*
X34567761Y-30013976D01*
X34615380Y-29918738D01*
X34615380Y-29728261D01*
X34567761Y-29633023D01*
X34520142Y-29585404D01*
X34424904Y-29537785D01*
X34234428Y-29537785D01*
X34139190Y-29585404D01*
X34091571Y-29633023D01*
X34043952Y-29728261D01*
X62587142Y-36205166D02*
X62634761Y-36252785D01*
X62682380Y-36395642D01*
X62682380Y-36490880D01*
X62634761Y-36633738D01*
X62539523Y-36728976D01*
X62444285Y-36776595D01*
X62253809Y-36824214D01*
X62110952Y-36824214D01*
X61920476Y-36776595D01*
X61825238Y-36728976D01*
X61730000Y-36633738D01*
X61682380Y-36490880D01*
X61682380Y-36395642D01*
X61730000Y-36252785D01*
X61777619Y-36205166D01*
X62682380Y-35728976D02*
X62682380Y-35538500D01*
X62634761Y-35443261D01*
X62587142Y-35395642D01*
X62444285Y-35300404D01*
X62253809Y-35252785D01*
X61872857Y-35252785D01*
X61777619Y-35300404D01*
X61730000Y-35348023D01*
X61682380Y-35443261D01*
X61682380Y-35633738D01*
X61730000Y-35728976D01*
X61777619Y-35776595D01*
X61872857Y-35824214D01*
X62110952Y-35824214D01*
X62206190Y-35776595D01*
X62253809Y-35728976D01*
X62301428Y-35633738D01*
X62301428Y-35443261D01*
X62253809Y-35348023D01*
X62206190Y-35300404D01*
X62110952Y-35252785D01*
X37613642Y-17629142D02*
X37566023Y-17676761D01*
X37423166Y-17724380D01*
X37327928Y-17724380D01*
X37185071Y-17676761D01*
X37089833Y-17581523D01*
X37042214Y-17486285D01*
X36994595Y-17295809D01*
X36994595Y-17152952D01*
X37042214Y-16962476D01*
X37089833Y-16867238D01*
X37185071Y-16772000D01*
X37327928Y-16724380D01*
X37423166Y-16724380D01*
X37566023Y-16772000D01*
X37613642Y-16819619D01*
X38566023Y-17724380D02*
X37994595Y-17724380D01*
X38280309Y-17724380D02*
X38280309Y-16724380D01*
X38185071Y-16867238D01*
X38089833Y-16962476D01*
X37994595Y-17010095D01*
X39185071Y-16724380D02*
X39280309Y-16724380D01*
X39375547Y-16772000D01*
X39423166Y-16819619D01*
X39470785Y-16914857D01*
X39518404Y-17105333D01*
X39518404Y-17343428D01*
X39470785Y-17533904D01*
X39423166Y-17629142D01*
X39375547Y-17676761D01*
X39280309Y-17724380D01*
X39185071Y-17724380D01*
X39089833Y-17676761D01*
X39042214Y-17629142D01*
X38994595Y-17533904D01*
X38946976Y-17343428D01*
X38946976Y-17105333D01*
X38994595Y-16914857D01*
X39042214Y-16819619D01*
X39089833Y-16772000D01*
X39185071Y-16724380D01*
X32914642Y-16037142D02*
X32867023Y-16084761D01*
X32724166Y-16132380D01*
X32628928Y-16132380D01*
X32486071Y-16084761D01*
X32390833Y-15989523D01*
X32343214Y-15894285D01*
X32295595Y-15703809D01*
X32295595Y-15560952D01*
X32343214Y-15370476D01*
X32390833Y-15275238D01*
X32486071Y-15180000D01*
X32628928Y-15132380D01*
X32724166Y-15132380D01*
X32867023Y-15180000D01*
X32914642Y-15227619D01*
X33867023Y-16132380D02*
X33295595Y-16132380D01*
X33581309Y-16132380D02*
X33581309Y-15132380D01*
X33486071Y-15275238D01*
X33390833Y-15370476D01*
X33295595Y-15418095D01*
X34819404Y-16132380D02*
X34247976Y-16132380D01*
X34533690Y-16132380D02*
X34533690Y-15132380D01*
X34438452Y-15275238D01*
X34343214Y-15370476D01*
X34247976Y-15418095D01*
X42312642Y-15851142D02*
X42265023Y-15898761D01*
X42122166Y-15946380D01*
X42026928Y-15946380D01*
X41884071Y-15898761D01*
X41788833Y-15803523D01*
X41741214Y-15708285D01*
X41693595Y-15517809D01*
X41693595Y-15374952D01*
X41741214Y-15184476D01*
X41788833Y-15089238D01*
X41884071Y-14994000D01*
X42026928Y-14946380D01*
X42122166Y-14946380D01*
X42265023Y-14994000D01*
X42312642Y-15041619D01*
X43265023Y-15946380D02*
X42693595Y-15946380D01*
X42979309Y-15946380D02*
X42979309Y-14946380D01*
X42884071Y-15089238D01*
X42788833Y-15184476D01*
X42693595Y-15232095D01*
X43645976Y-15041619D02*
X43693595Y-14994000D01*
X43788833Y-14946380D01*
X44026928Y-14946380D01*
X44122166Y-14994000D01*
X44169785Y-15041619D01*
X44217404Y-15136857D01*
X44217404Y-15232095D01*
X44169785Y-15374952D01*
X43598357Y-15946380D01*
X44217404Y-15946380D01*
X43997571Y-21631833D02*
X43997571Y-21965166D01*
X44521380Y-21965166D02*
X43521380Y-21965166D01*
X43521380Y-21488976D01*
X43997571Y-20774690D02*
X44045190Y-20631833D01*
X44092809Y-20584214D01*
X44188047Y-20536595D01*
X44330904Y-20536595D01*
X44426142Y-20584214D01*
X44473761Y-20631833D01*
X44521380Y-20727071D01*
X44521380Y-21108023D01*
X43521380Y-21108023D01*
X43521380Y-20774690D01*
X43569000Y-20679452D01*
X43616619Y-20631833D01*
X43711857Y-20584214D01*
X43807095Y-20584214D01*
X43902333Y-20631833D01*
X43949952Y-20679452D01*
X43997571Y-20774690D01*
X43997571Y-21108023D01*
X44521380Y-19584214D02*
X44521380Y-20155642D01*
X44521380Y-19869928D02*
X43521380Y-19869928D01*
X43664238Y-19965166D01*
X43759476Y-20060404D01*
X43807095Y-20155642D01*
X32567571Y-21631833D02*
X32567571Y-21965166D01*
X33091380Y-21965166D02*
X32091380Y-21965166D01*
X32091380Y-21488976D01*
X32567571Y-20774690D02*
X32615190Y-20631833D01*
X32662809Y-20584214D01*
X32758047Y-20536595D01*
X32900904Y-20536595D01*
X32996142Y-20584214D01*
X33043761Y-20631833D01*
X33091380Y-20727071D01*
X33091380Y-21108023D01*
X32091380Y-21108023D01*
X32091380Y-20774690D01*
X32139000Y-20679452D01*
X32186619Y-20631833D01*
X32281857Y-20584214D01*
X32377095Y-20584214D01*
X32472333Y-20631833D01*
X32519952Y-20679452D01*
X32567571Y-20774690D01*
X32567571Y-21108023D01*
X32186619Y-20155642D02*
X32139000Y-20108023D01*
X32091380Y-20012785D01*
X32091380Y-19774690D01*
X32139000Y-19679452D01*
X32186619Y-19631833D01*
X32281857Y-19584214D01*
X32377095Y-19584214D01*
X32519952Y-19631833D01*
X33091380Y-20203261D01*
X33091380Y-19584214D01*
X19121380Y-67828166D02*
X18645190Y-68161500D01*
X19121380Y-68399595D02*
X18121380Y-68399595D01*
X18121380Y-68018642D01*
X18169000Y-67923404D01*
X18216619Y-67875785D01*
X18311857Y-67828166D01*
X18454714Y-67828166D01*
X18549952Y-67875785D01*
X18597571Y-67923404D01*
X18645190Y-68018642D01*
X18645190Y-68399595D01*
X19121380Y-66875785D02*
X19121380Y-67447214D01*
X19121380Y-67161500D02*
X18121380Y-67161500D01*
X18264238Y-67256738D01*
X18359476Y-67351976D01*
X18407095Y-67447214D01*
X21407380Y-67955166D02*
X20931190Y-68288500D01*
X21407380Y-68526595D02*
X20407380Y-68526595D01*
X20407380Y-68145642D01*
X20455000Y-68050404D01*
X20502619Y-68002785D01*
X20597857Y-67955166D01*
X20740714Y-67955166D01*
X20835952Y-68002785D01*
X20883571Y-68050404D01*
X20931190Y-68145642D01*
X20931190Y-68526595D01*
X20502619Y-67574214D02*
X20455000Y-67526595D01*
X20407380Y-67431357D01*
X20407380Y-67193261D01*
X20455000Y-67098023D01*
X20502619Y-67050404D01*
X20597857Y-67002785D01*
X20693095Y-67002785D01*
X20835952Y-67050404D01*
X21407380Y-67621833D01*
X21407380Y-67002785D01*
X23820380Y-67955166D02*
X23344190Y-68288500D01*
X23820380Y-68526595D02*
X22820380Y-68526595D01*
X22820380Y-68145642D01*
X22868000Y-68050404D01*
X22915619Y-68002785D01*
X23010857Y-67955166D01*
X23153714Y-67955166D01*
X23248952Y-68002785D01*
X23296571Y-68050404D01*
X23344190Y-68145642D01*
X23344190Y-68526595D01*
X22820380Y-67621833D02*
X22820380Y-67002785D01*
X23201333Y-67336119D01*
X23201333Y-67193261D01*
X23248952Y-67098023D01*
X23296571Y-67050404D01*
X23391809Y-67002785D01*
X23629904Y-67002785D01*
X23725142Y-67050404D01*
X23772761Y-67098023D01*
X23820380Y-67193261D01*
X23820380Y-67478976D01*
X23772761Y-67574214D01*
X23725142Y-67621833D01*
X26106380Y-67955166D02*
X25630190Y-68288500D01*
X26106380Y-68526595D02*
X25106380Y-68526595D01*
X25106380Y-68145642D01*
X25154000Y-68050404D01*
X25201619Y-68002785D01*
X25296857Y-67955166D01*
X25439714Y-67955166D01*
X25534952Y-68002785D01*
X25582571Y-68050404D01*
X25630190Y-68145642D01*
X25630190Y-68526595D01*
X25439714Y-67098023D02*
X26106380Y-67098023D01*
X25058761Y-67336119D02*
X25773047Y-67574214D01*
X25773047Y-66955166D01*
X28265380Y-67955166D02*
X27789190Y-68288500D01*
X28265380Y-68526595D02*
X27265380Y-68526595D01*
X27265380Y-68145642D01*
X27313000Y-68050404D01*
X27360619Y-68002785D01*
X27455857Y-67955166D01*
X27598714Y-67955166D01*
X27693952Y-68002785D01*
X27741571Y-68050404D01*
X27789190Y-68145642D01*
X27789190Y-68526595D01*
X27265380Y-67050404D02*
X27265380Y-67526595D01*
X27741571Y-67574214D01*
X27693952Y-67526595D01*
X27646333Y-67431357D01*
X27646333Y-67193261D01*
X27693952Y-67098023D01*
X27741571Y-67050404D01*
X27836809Y-67002785D01*
X28074904Y-67002785D01*
X28170142Y-67050404D01*
X28217761Y-67098023D01*
X28265380Y-67193261D01*
X28265380Y-67431357D01*
X28217761Y-67526595D01*
X28170142Y-67574214D01*
X20944833Y-22296380D02*
X20611500Y-21820190D01*
X20373404Y-22296380D02*
X20373404Y-21296380D01*
X20754357Y-21296380D01*
X20849595Y-21344000D01*
X20897214Y-21391619D01*
X20944833Y-21486857D01*
X20944833Y-21629714D01*
X20897214Y-21724952D01*
X20849595Y-21772571D01*
X20754357Y-21820190D01*
X20373404Y-21820190D01*
X21801976Y-21296380D02*
X21611500Y-21296380D01*
X21516261Y-21344000D01*
X21468642Y-21391619D01*
X21373404Y-21534476D01*
X21325785Y-21724952D01*
X21325785Y-22105904D01*
X21373404Y-22201142D01*
X21421023Y-22248761D01*
X21516261Y-22296380D01*
X21706738Y-22296380D01*
X21801976Y-22248761D01*
X21849595Y-22201142D01*
X21897214Y-22105904D01*
X21897214Y-21867809D01*
X21849595Y-21772571D01*
X21801976Y-21724952D01*
X21706738Y-21677333D01*
X21516261Y-21677333D01*
X21421023Y-21724952D01*
X21373404Y-21772571D01*
X21325785Y-21867809D01*
X25897833Y-37536380D02*
X25564500Y-37060190D01*
X25326404Y-37536380D02*
X25326404Y-36536380D01*
X25707357Y-36536380D01*
X25802595Y-36584000D01*
X25850214Y-36631619D01*
X25897833Y-36726857D01*
X25897833Y-36869714D01*
X25850214Y-36964952D01*
X25802595Y-37012571D01*
X25707357Y-37060190D01*
X25326404Y-37060190D01*
X26231166Y-36536380D02*
X26897833Y-36536380D01*
X26469261Y-37536380D01*
X17007833Y-37409380D02*
X16674500Y-36933190D01*
X16436404Y-37409380D02*
X16436404Y-36409380D01*
X16817357Y-36409380D01*
X16912595Y-36457000D01*
X16960214Y-36504619D01*
X17007833Y-36599857D01*
X17007833Y-36742714D01*
X16960214Y-36837952D01*
X16912595Y-36885571D01*
X16817357Y-36933190D01*
X16436404Y-36933190D01*
X17579261Y-36837952D02*
X17484023Y-36790333D01*
X17436404Y-36742714D01*
X17388785Y-36647476D01*
X17388785Y-36599857D01*
X17436404Y-36504619D01*
X17484023Y-36457000D01*
X17579261Y-36409380D01*
X17769738Y-36409380D01*
X17864976Y-36457000D01*
X17912595Y-36504619D01*
X17960214Y-36599857D01*
X17960214Y-36647476D01*
X17912595Y-36742714D01*
X17864976Y-36790333D01*
X17769738Y-36837952D01*
X17579261Y-36837952D01*
X17484023Y-36885571D01*
X17436404Y-36933190D01*
X17388785Y-37028428D01*
X17388785Y-37218904D01*
X17436404Y-37314142D01*
X17484023Y-37361761D01*
X17579261Y-37409380D01*
X17769738Y-37409380D01*
X17864976Y-37361761D01*
X17912595Y-37314142D01*
X17960214Y-37218904D01*
X17960214Y-37028428D01*
X17912595Y-36933190D01*
X17864976Y-36885571D01*
X17769738Y-36837952D01*
X29707833Y-31118380D02*
X29374500Y-30642190D01*
X29136404Y-31118380D02*
X29136404Y-30118380D01*
X29517357Y-30118380D01*
X29612595Y-30166000D01*
X29660214Y-30213619D01*
X29707833Y-30308857D01*
X29707833Y-30451714D01*
X29660214Y-30546952D01*
X29612595Y-30594571D01*
X29517357Y-30642190D01*
X29136404Y-30642190D01*
X30184023Y-31118380D02*
X30374500Y-31118380D01*
X30469738Y-31070761D01*
X30517357Y-31023142D01*
X30612595Y-30880285D01*
X30660214Y-30689809D01*
X30660214Y-30308857D01*
X30612595Y-30213619D01*
X30564976Y-30166000D01*
X30469738Y-30118380D01*
X30279261Y-30118380D01*
X30184023Y-30166000D01*
X30136404Y-30213619D01*
X30088785Y-30308857D01*
X30088785Y-30546952D01*
X30136404Y-30642190D01*
X30184023Y-30689809D01*
X30279261Y-30737428D01*
X30469738Y-30737428D01*
X30564976Y-30689809D01*
X30612595Y-30642190D01*
X30660214Y-30546952D01*
X34996380Y-26521357D02*
X34520190Y-26854690D01*
X34996380Y-27092785D02*
X33996380Y-27092785D01*
X33996380Y-26711833D01*
X34044000Y-26616595D01*
X34091619Y-26568976D01*
X34186857Y-26521357D01*
X34329714Y-26521357D01*
X34424952Y-26568976D01*
X34472571Y-26616595D01*
X34520190Y-26711833D01*
X34520190Y-27092785D01*
X34996380Y-25568976D02*
X34996380Y-26140404D01*
X34996380Y-25854690D02*
X33996380Y-25854690D01*
X34139238Y-25949928D01*
X34234476Y-26045166D01*
X34282095Y-26140404D01*
X33996380Y-24949928D02*
X33996380Y-24854690D01*
X34044000Y-24759452D01*
X34091619Y-24711833D01*
X34186857Y-24664214D01*
X34377333Y-24616595D01*
X34615428Y-24616595D01*
X34805904Y-24664214D01*
X34901142Y-24711833D01*
X34948761Y-24759452D01*
X34996380Y-24854690D01*
X34996380Y-24949928D01*
X34948761Y-25045166D01*
X34901142Y-25092785D01*
X34805904Y-25140404D01*
X34615428Y-25188023D01*
X34377333Y-25188023D01*
X34186857Y-25140404D01*
X34091619Y-25092785D01*
X34044000Y-25045166D01*
X33996380Y-24949928D01*
X43255880Y-30902857D02*
X42779690Y-31236190D01*
X43255880Y-31474285D02*
X42255880Y-31474285D01*
X42255880Y-31093333D01*
X42303500Y-30998095D01*
X42351119Y-30950476D01*
X42446357Y-30902857D01*
X42589214Y-30902857D01*
X42684452Y-30950476D01*
X42732071Y-30998095D01*
X42779690Y-31093333D01*
X42779690Y-31474285D01*
X43255880Y-29950476D02*
X43255880Y-30521904D01*
X43255880Y-30236190D02*
X42255880Y-30236190D01*
X42398738Y-30331428D01*
X42493976Y-30426666D01*
X42541595Y-30521904D01*
X43255880Y-28998095D02*
X43255880Y-29569523D01*
X43255880Y-29283809D02*
X42255880Y-29283809D01*
X42398738Y-29379047D01*
X42493976Y-29474285D01*
X42541595Y-29569523D01*
X42362380Y-27410357D02*
X41886190Y-27743690D01*
X42362380Y-27981785D02*
X41362380Y-27981785D01*
X41362380Y-27600833D01*
X41410000Y-27505595D01*
X41457619Y-27457976D01*
X41552857Y-27410357D01*
X41695714Y-27410357D01*
X41790952Y-27457976D01*
X41838571Y-27505595D01*
X41886190Y-27600833D01*
X41886190Y-27981785D01*
X42362380Y-26457976D02*
X42362380Y-27029404D01*
X42362380Y-26743690D02*
X41362380Y-26743690D01*
X41505238Y-26838928D01*
X41600476Y-26934166D01*
X41648095Y-27029404D01*
X41457619Y-26077023D02*
X41410000Y-26029404D01*
X41362380Y-25934166D01*
X41362380Y-25696071D01*
X41410000Y-25600833D01*
X41457619Y-25553214D01*
X41552857Y-25505595D01*
X41648095Y-25505595D01*
X41790952Y-25553214D01*
X42362380Y-26124642D01*
X42362380Y-25505595D01*
X65299642Y-21788380D02*
X64966309Y-21312190D01*
X64728214Y-21788380D02*
X64728214Y-20788380D01*
X65109166Y-20788380D01*
X65204404Y-20836000D01*
X65252023Y-20883619D01*
X65299642Y-20978857D01*
X65299642Y-21121714D01*
X65252023Y-21216952D01*
X65204404Y-21264571D01*
X65109166Y-21312190D01*
X64728214Y-21312190D01*
X66252023Y-21788380D02*
X65680595Y-21788380D01*
X65966309Y-21788380D02*
X65966309Y-20788380D01*
X65871071Y-20931238D01*
X65775833Y-21026476D01*
X65680595Y-21074095D01*
X66585357Y-20788380D02*
X67204404Y-20788380D01*
X66871071Y-21169333D01*
X67013928Y-21169333D01*
X67109166Y-21216952D01*
X67156785Y-21264571D01*
X67204404Y-21359809D01*
X67204404Y-21597904D01*
X67156785Y-21693142D01*
X67109166Y-21740761D01*
X67013928Y-21788380D01*
X66728214Y-21788380D01*
X66632976Y-21740761D01*
X66585357Y-21693142D01*
X74942380Y-22076357D02*
X74466190Y-22409690D01*
X74942380Y-22647785D02*
X73942380Y-22647785D01*
X73942380Y-22266833D01*
X73990000Y-22171595D01*
X74037619Y-22123976D01*
X74132857Y-22076357D01*
X74275714Y-22076357D01*
X74370952Y-22123976D01*
X74418571Y-22171595D01*
X74466190Y-22266833D01*
X74466190Y-22647785D01*
X74942380Y-21123976D02*
X74942380Y-21695404D01*
X74942380Y-21409690D02*
X73942380Y-21409690D01*
X74085238Y-21504928D01*
X74180476Y-21600166D01*
X74228095Y-21695404D01*
X74275714Y-20266833D02*
X74942380Y-20266833D01*
X73894761Y-20504928D02*
X74609047Y-20743023D01*
X74609047Y-20123976D01*
X34954595Y-53681380D02*
X34954595Y-54490904D01*
X35002214Y-54586142D01*
X35049833Y-54633761D01*
X35145071Y-54681380D01*
X35335547Y-54681380D01*
X35430785Y-54633761D01*
X35478404Y-54586142D01*
X35526023Y-54490904D01*
X35526023Y-53681380D01*
X35954595Y-53776619D02*
X36002214Y-53729000D01*
X36097452Y-53681380D01*
X36335547Y-53681380D01*
X36430785Y-53729000D01*
X36478404Y-53776619D01*
X36526023Y-53871857D01*
X36526023Y-53967095D01*
X36478404Y-54109952D01*
X35906976Y-54681380D01*
X36526023Y-54681380D01*
X69117595Y-26249380D02*
X69117595Y-27058904D01*
X69165214Y-27154142D01*
X69212833Y-27201761D01*
X69308071Y-27249380D01*
X69498547Y-27249380D01*
X69593785Y-27201761D01*
X69641404Y-27154142D01*
X69689023Y-27058904D01*
X69689023Y-26249380D01*
X70069976Y-26249380D02*
X70689023Y-26249380D01*
X70355690Y-26630333D01*
X70498547Y-26630333D01*
X70593785Y-26677952D01*
X70641404Y-26725571D01*
X70689023Y-26820809D01*
X70689023Y-27058904D01*
X70641404Y-27154142D01*
X70593785Y-27201761D01*
X70498547Y-27249380D01*
X70212833Y-27249380D01*
X70117595Y-27201761D01*
X70069976Y-27154142D01*
X19841595Y-27900380D02*
X19841595Y-28709904D01*
X19889214Y-28805142D01*
X19936833Y-28852761D01*
X20032071Y-28900380D01*
X20222547Y-28900380D01*
X20317785Y-28852761D01*
X20365404Y-28805142D01*
X20413023Y-28709904D01*
X20413023Y-27900380D01*
X21317785Y-28233714D02*
X21317785Y-28900380D01*
X21079690Y-27852761D02*
X20841595Y-28567047D01*
X21460642Y-28567047D01*
X37494595Y-24598380D02*
X37494595Y-25407904D01*
X37542214Y-25503142D01*
X37589833Y-25550761D01*
X37685071Y-25598380D01*
X37875547Y-25598380D01*
X37970785Y-25550761D01*
X38018404Y-25503142D01*
X38066023Y-25407904D01*
X38066023Y-24598380D01*
X39018404Y-24598380D02*
X38542214Y-24598380D01*
X38494595Y-25074571D01*
X38542214Y-25026952D01*
X38637452Y-24979333D01*
X38875547Y-24979333D01*
X38970785Y-25026952D01*
X39018404Y-25074571D01*
X39066023Y-25169809D01*
X39066023Y-25407904D01*
X39018404Y-25503142D01*
X38970785Y-25550761D01*
X38875547Y-25598380D01*
X38637452Y-25598380D01*
X38542214Y-25550761D01*
X38494595Y-25503142D01*
X68159380Y-42182023D02*
X69159380Y-41515357D01*
X68159380Y-41515357D02*
X69159380Y-42182023D01*
X69159380Y-40610595D02*
X69159380Y-41182023D01*
X69159380Y-40896309D02*
X68159380Y-40896309D01*
X68302238Y-40991547D01*
X68397476Y-41086785D01*
X68445095Y-41182023D01*
X62220404Y-18867380D02*
X62220404Y-17867380D01*
X62458500Y-17867380D01*
X62601357Y-17915000D01*
X62696595Y-18010238D01*
X62744214Y-18105476D01*
X62791833Y-18295952D01*
X62791833Y-18438809D01*
X62744214Y-18629285D01*
X62696595Y-18724523D01*
X62601357Y-18819761D01*
X62458500Y-18867380D01*
X62220404Y-18867380D01*
X63744214Y-18867380D02*
X63172785Y-18867380D01*
X63458500Y-18867380D02*
X63458500Y-17867380D01*
X63363261Y-18010238D01*
X63268023Y-18105476D01*
X63172785Y-18153095D01*
X18454619Y-56707738D02*
X18407000Y-56802976D01*
X18311761Y-56898214D01*
X18168904Y-57041071D01*
X18121285Y-57136309D01*
X18121285Y-57231547D01*
X18359380Y-57183928D02*
X18311761Y-57279166D01*
X18216523Y-57374404D01*
X18026047Y-57422023D01*
X17692714Y-57422023D01*
X17502238Y-57374404D01*
X17407000Y-57279166D01*
X17359380Y-57183928D01*
X17359380Y-56993452D01*
X17407000Y-56898214D01*
X17502238Y-56802976D01*
X17692714Y-56755357D01*
X18026047Y-56755357D01*
X18216523Y-56802976D01*
X18311761Y-56898214D01*
X18359380Y-56993452D01*
X18359380Y-57183928D01*
X17454619Y-56374404D02*
X17407000Y-56326785D01*
X17359380Y-56231547D01*
X17359380Y-55993452D01*
X17407000Y-55898214D01*
X17454619Y-55850595D01*
X17549857Y-55802976D01*
X17645095Y-55802976D01*
X17787952Y-55850595D01*
X18359380Y-56422023D01*
X18359380Y-55802976D01*
X36946976Y-43140380D02*
X37280309Y-44140380D01*
X37613642Y-43140380D01*
X38518404Y-44140380D02*
X38185071Y-43664190D01*
X37946976Y-44140380D02*
X37946976Y-43140380D01*
X38327928Y-43140380D01*
X38423166Y-43188000D01*
X38470785Y-43235619D01*
X38518404Y-43330857D01*
X38518404Y-43473714D01*
X38470785Y-43568952D01*
X38423166Y-43616571D01*
X38327928Y-43664190D01*
X37946976Y-43664190D01*
X39470785Y-44140380D02*
X38899357Y-44140380D01*
X39185071Y-44140380D02*
X39185071Y-43140380D01*
X39089833Y-43283238D01*
X38994595Y-43378476D01*
X38899357Y-43426095D01*
M02*
